<svg xmlns="http://www.w3.org/2000/svg" xmlns:xlink="http://www.w3.org/1999/xlink" viewBox="0 0 965.2 420.43"><defs><style>.cls-1{fill:none;}.cls-2{fill:url(#Degradado_sin_nombre_36);}.cls-3{fill:url(#Degradado_sin_nombre_36-2);}.cls-4{fill:url(#Degradado_sin_nombre_36-3);}.cls-5{fill:url(#Degradado_sin_nombre_36-4);}.cls-6{fill:url(#Degradado_sin_nombre_36-5);}.cls-7{fill:url(#Degradado_sin_nombre_36-6);}.cls-8{fill:url(#Degradado_sin_nombre_36-7);}.cls-9{fill:url(#Degradado_sin_nombre_36-8);}.cls-10{fill:url(#Degradado_sin_nombre_36-9);}.cls-11{fill:url(#Degradado_sin_nombre_36-10);}.cls-12{fill:url(#Degradado_sin_nombre_36-11);}.cls-13{fill:url(#Degradado_sin_nombre_36-12);}.cls-14{fill:url(#Degradado_sin_nombre_36-13);}.cls-15{font-size:34.73px;fill:#111629;font-family:Arial-Black, Arial;font-weight:800;}.cls-16{fill:url(#Degradado_sin_nombre_36-14);}.cls-17{clip-path:url(#clip-path);}.cls-18{fill:#7ea9e9;}.cls-19{fill:url(#Degradado_sin_nombre_48);}.cls-20{fill:url(#Degradado_sin_nombre_63);}</style><linearGradient id="Degradado_sin_nombre_36" x1="59.06" y1="326.55" x2="59.06" y2="207.38" gradientUnits="userSpaceOnUse"><stop offset="0" stop-color="#0e3782"/><stop offset="0.24" stop-color="#092960"/><stop offset="0.55" stop-color="#04193a"/><stop offset="0.71" stop-color="#02132b"/><stop offset="1" stop-color="#02132b"/></linearGradient><linearGradient id="Degradado_sin_nombre_36-2" x1="297.82" y1="322.45" x2="297.82" y2="233.64" xlink:href="#Degradado_sin_nombre_36"/><linearGradient id="Degradado_sin_nombre_36-3" x1="788.85" y1="322.45" x2="788.85" y2="233.64" xlink:href="#Degradado_sin_nombre_36"/><linearGradient id="Degradado_sin_nombre_36-4" x1="179.24" y1="322.45" x2="179.24" y2="233.64" xlink:href="#Degradado_sin_nombre_36"/><linearGradient id="Degradado_sin_nombre_36-5" x1="542.88" y1="322.45" x2="542.88" y2="233.64" xlink:href="#Degradado_sin_nombre_36"/><linearGradient id="Degradado_sin_nombre_36-6" x1="456.38" y1="409.54" x2="456.38" y2="342.02" xlink:href="#Degradado_sin_nombre_36"/><linearGradient id="Degradado_sin_nombre_36-7" x1="666.78" y1="320.06" x2="666.78" y2="233.64" xlink:href="#Degradado_sin_nombre_36"/><linearGradient id="Degradado_sin_nombre_36-8" x1="782.93" y1="409.54" x2="782.93" y2="342.02" xlink:href="#Degradado_sin_nombre_36"/><linearGradient id="Degradado_sin_nombre_36-9" x1="608.96" y1="409.54" x2="608.96" y2="342.02" xlink:href="#Degradado_sin_nombre_36"/><linearGradient id="Degradado_sin_nombre_36-10" x1="532" y1="409.54" x2="532" y2="342.02" xlink:href="#Degradado_sin_nombre_36"/><linearGradient id="Degradado_sin_nombre_36-11" x1="908.02" y1="320.01" x2="908.02" y2="235.36" xlink:href="#Degradado_sin_nombre_36"/><linearGradient id="Degradado_sin_nombre_36-12" x1="696.26" y1="409.54" x2="696.26" y2="342.02" xlink:href="#Degradado_sin_nombre_36"/><linearGradient id="Degradado_sin_nombre_36-13" x1="873.18" y1="409.54" x2="873.18" y2="342.02" xlink:href="#Degradado_sin_nombre_36"/><linearGradient id="Degradado_sin_nombre_36-14" x1="417.57" y1="412.78" x2="417.57" y2="233.64" xlink:href="#Degradado_sin_nombre_36"/><clipPath id="clip-path"><path class="cls-1" d="M956.45,171.41S759.33,0,481.56,0C174.64,0,0,171.41,0,171.41H154.65V118.46h31.23v53h16V94.46h45v77h14.09V54.85H327.2V171.41H625.06V54.85h66.28V171.41h14.1V94.46h44.94v77h16V118.46h31.23v53Z"/></clipPath><radialGradient id="Degradado_sin_nombre_48" cx="478.23" cy="171.41" r="161.04" gradientUnits="userSpaceOnUse"><stop offset="0" stop-color="#c9ddfe"/><stop offset="1" stop-color="#82afed"/></radialGradient><radialGradient id="Degradado_sin_nombre_63" cx="478.23" cy="171.41" r="107.42" gradientUnits="userSpaceOnUse"><stop offset="0" stop-color="#c9ddfe" stop-opacity="0"/><stop offset="0.66" stop-color="#82afed" stop-opacity="0.6"/><stop offset="0.87" stop-color="#c9ddfe"/><stop offset="1" stop-color="#c9ddfe" stop-opacity="0"/></radialGradient></defs><g id="Capa_2" data-name="Capa 2"><g id="peruana"><path class="cls-2" d="M82.7,207.38H0c2.1,1.14,4,6,4,8.12V318.44c0,2.1-1.91,7-4,8.11H82.7c19.76,0,35.43-5.15,35.43-30.84V238.22C118.13,212.53,102.46,207.38,82.7,207.38Zm-4.3,57v36.69c0,6.79-5.13,7.1-11.6,7.1H44.6V225.78H66.8c6.47,0,11.6,1.55,11.6,7.1Z"/><path class="cls-3" d="M339.19,233.64H269.86a22.15,22.15,0,0,0-22.15,22.15v19.87a18.72,18.72,0,0,0,18.72,18.71h41.63a3.63,3.63,0,0,1,3.63,3.63v3.44a3.63,3.63,0,0,1-3.63,3.63h-46.5s-8.31.05-15-3.15l3,17.88a3,3,0,0,0,3,2.65H326.3a22.82,22.82,0,0,0,22.82-22.83V277.76a17.18,17.18,0,0,0-17.18-17.19H289.15a3.63,3.63,0,0,1-3.62-3.63v-3.06a3.63,3.63,0,0,1,3.62-3.63s42.4.1,45,0,8.21,1.25,13.37,5.54A40.58,40.58,0,0,0,344,236.6,5,5,0,0,0,339.19,233.64Z"/><path class="cls-4" d="M830.23,233.64H760.9a22.16,22.16,0,0,0-22.16,22.15v19.87a18.72,18.72,0,0,0,18.72,18.71H799.1a3.64,3.64,0,0,1,3.63,3.63v3.44a3.64,3.64,0,0,1-3.63,3.63H752.59s-8.31.05-15-3.15l3,17.88a3,3,0,0,0,3,2.65h73.82a22.83,22.83,0,0,0,22.82-22.83V277.76A17.19,17.19,0,0,0,823,260.57H780.19a3.63,3.63,0,0,1-3.63-3.63v-3.06a3.63,3.63,0,0,1,3.63-3.63s42.4.1,45,0,8.21,1.25,13.37,5.54A40.45,40.45,0,0,0,835,236.6,5,5,0,0,0,830.23,233.64Z"/><path class="cls-5" d="M228.73,287.5a4.37,4.37,0,0,0,4.37-4.37v-32a17.47,17.47,0,0,0-17.48-17.47H144.15a18.76,18.76,0,0,0-18.77,18.76v50.28a19.77,19.77,0,0,0,19.77,19.77h74.77a13.22,13.22,0,0,0,13.18-13.18v-8.79s-9,3.06-16.23,3.06H170.12a4.63,4.63,0,0,1-4.63-4.63V287.5Zm-63.24-18V258.75c0-4.39,2.67-7.54,6.11-7.54h17.48c3.43,0,6.11,3.15,6.11,7.54v10.79Z"/><path class="cls-6" d="M592.37,287.5a4.37,4.37,0,0,0,4.37-4.37v-32a17.48,17.48,0,0,0-17.48-17.47H507.79A18.76,18.76,0,0,0,489,252.4v50.28a19.77,19.77,0,0,0,19.77,19.77h74.77a13.22,13.22,0,0,0,13.18-13.18v-8.79s-9,3.06-16.24,3.06H533.76a4.63,4.63,0,0,1-4.63-4.63V287.5Zm-63.24-18V258.75c0-4.39,2.67-7.54,6.11-7.54h17.48c3.43,0,6.11,3.15,6.11,7.54v10.79Z"/><path class="cls-7" d="M492.77,383a3.26,3.26,0,0,0,3.21-3.32V355.31A13.07,13.07,0,0,0,483.13,342H430.57a14,14,0,0,0-13.8,14.27v38.22a14.79,14.79,0,0,0,14.54,15h55a9.89,9.89,0,0,0,9.69-10v-6.68s-6.6,2.32-11.93,2.32H449.67a3.46,3.46,0,0,1-3.4-3.52V383Zm-46.5-13.65v-8.2c0-3.34,2-5.74,4.49-5.74h12.85c2.53,0,4.5,2.4,4.5,5.74v8.2Z"/><path class="cls-8" d="M609,233.64h40.11c1.5,0,2.29.86,2.22,4.3s-.06,6.23,1.15,5.73,2.86-10,8.95-10h32.94c16.33,0,25.5,10.31,25.5,24.92V302.3c0,7.92,3.25,12.7,4.77,17.76H677a49.9,49.9,0,0,0,3.73-17.67V261.52c0-4.68-.77-11.65-11.65-11.65s-16.43,1.24-16.43,11.75v41.06c0,8.59,3.63,13.85,4.92,17.38H611.11s2.72-5.92,2.72-15.8c0,0,.15-52,.15-56.58A23.1,23.1,0,0,0,609,233.64Z"/><path class="cls-9" d="M739.63,342h30c1.12,0,1.71.68,1.66,3.36s-.05,4.87.86,4.48,2.14-7.84,6.7-7.84h24.68c12.23,0,19.09,8.06,19.09,19.47v34.17c0,6.19,2.43,9.92,3.58,13.88H790.55a40.43,40.43,0,0,0,2.79-13.81V363.81c0-3.66-.57-9.1-8.73-9.1s-12.3,1-12.3,9.17V396c0,6.71,2.72,10.82,3.69,13.58H741.24a33.22,33.22,0,0,0,2-12.35s.1-40.62.1-44.2A18.51,18.51,0,0,0,739.63,342Z"/><path class="cls-10" d="M652.27,409.54h-30c-1.13,0-1.72-.68-1.66-3.36s0-4.87-.87-4.48-2.14,7.84-6.7,7.84H588.33c-12.23,0-19.1-8.06-19.1-19.47V355.9c0-6.19-2.43-9.92-3.57-13.88h35.69a40.41,40.41,0,0,0-2.79,13.8v31.93c0,3.66.57,9.1,8.72,9.1s12.3-1,12.3-9.17V355.6c0-6.71-2.72-10.82-3.68-13.58h34.76a33.22,33.22,0,0,0-2,12.35s-.11,40.62-.11,44.2A18.48,18.48,0,0,0,652.27,409.54Z"/><path class="cls-11" d="M503.55,342h27.16c1.13,0,1.72.68,1.66,3.36s0,4.87.87,4.48,2.14-7.84,6.7-7.84h20.51v19.87c-3.76-1.17-6.65-4.21-14.8-4.21s-12.29,4-12.29,12.23v26c0,6.71,2.72,10.82,3.68,13.58H505.16a33.22,33.22,0,0,0,2-12.35s.11-40.62.11-44.2A18.48,18.48,0,0,0,503.55,342Z"/><path class="cls-12" d="M961.19,306.83v-48.7c0-19.48-17.19-22.77-27.5-22.77h-72a3.4,3.4,0,0,0-3.34,2.72l-3.73,18c2-1.72,5.16-4.44,9.88-4.44h51.37a3.91,3.91,0,0,1,3.92,3.92v4.09a3.9,3.9,0,0,1-3.81,3.92c-10.28.24-38.06,0-48.52,0-12.89,0-16.61,12.23-16.61,19.77v17.67c0,8.21,5.54,18.95,17,18.95h42.59c3.63,0,8.74-2.77,9.65-5.54s2.82-1.81,2.94-.58,1.83,6.12,5.32,6.12H965.2C963.34,316.43,961.19,311.27,961.19,306.83Zm-41.4-9.31a7.06,7.06,0,0,1-7.06,7.07h-15a4.4,4.4,0,0,1-4.39-4.39V285.11a4.39,4.39,0,0,1,4.39-4.39h22.06Z"/><path class="cls-13" d="M734.27,399V360.19c0-15.54-12.29-18.17-19.66-18.17H663.13a2.52,2.52,0,0,0-2.39,2.17l-2.67,14.4c1.43-1.37,3.69-3.54,7.07-3.54h36.73a3,3,0,0,1,2.8,3.12v3.27a3,3,0,0,1-2.73,3.12c-7.34.19-27.21,0-34.69,0-9.22,0-11.88,9.75-11.88,15.77v14.09c0,6.55,4,15.12,12.16,15.12H698c2.59,0,6.25-2.21,6.9-4.42s2-1.45,2.1-.46,1.31,4.88,3.8,4.88h26.36C735.81,406.68,734.27,402.57,734.27,399Zm-29.6-7.43c0,3.11-2.26,5.64-5,5.64H688.9a3.34,3.34,0,0,1-3.14-3.51v-12a3.33,3.33,0,0,1,3.14-3.5h15.77Z"/><path class="cls-14" d="M911.2,399V360.19c0-15.54-12.29-18.17-19.67-18.17H840.05a2.52,2.52,0,0,0-2.38,2.17L835,358.59c1.44-1.37,3.69-3.54,7.07-3.54h36.73a3,3,0,0,1,2.81,3.12v3.27a3,3,0,0,1-2.73,3.12c-7.35.19-27.22,0-34.69,0-9.22,0-11.88,9.75-11.88,15.77v14.09c0,6.55,4,15.12,12.15,15.12h30.46c2.59,0,6.24-2.21,6.89-4.42s2-1.45,2.1-.46,1.32,4.88,3.81,4.88h26.36C912.74,406.68,911.2,402.57,911.2,399Zm-29.6-7.43a5.37,5.37,0,0,1-5.06,5.64H865.82a3.34,3.34,0,0,1-3.14-3.51v-12a3.34,3.34,0,0,1,3.14-3.5H881.6Z"/><text class="cls-15" transform="translate(926.06 368.1)">S.<tspan x="0" y="41.68">A.</tspan></text><path class="cls-16" d="M449.11,233.64H419.17c-9,0-11.25,4.15-12.89,6.3s-2.87.57-3.15-2.08-3.16-4.22-5-4.22H362.68c1.68,2.24,4.59,7,4.59,10.31V412.78h38.65V312.06c0-2.07,1.72-2.67,2.89-.71,3.2,5.37,5.77,4.37,11.07,4.37h30.37c14,0,22.2-8.17,22.2-19.2V252.83C472.45,241.37,463.14,233.64,449.11,233.64Zm-16.33,61.59a5.26,5.26,0,0,1-5.26,5.25H407.76a2.1,2.1,0,0,1-2.1-2.1V254.65a2.1,2.1,0,0,1,2.1-2.1h19.76a5.26,5.26,0,0,1,5.26,5.25Z"/><g class="cls-17"><rect class="cls-18" x="-17.14" y="-39.42" width="990.73" height="238.32"/><polygon class="cls-19" points="478.23 9.14 483.19 143.24 533.72 18.93 492.53 146.64 582.53 47.1 500.13 153.02 618.75 90.27 505.1 161.63 638.03 143.23 506.83 171.41 638.03 199.58 505.1 181.19 618.75 252.54 500.13 189.79 582.53 295.71 492.53 196.18 533.72 323.89 483.19 199.57 478.23 333.67 473.26 199.57 422.73 323.89 463.93 196.18 373.92 295.71 456.32 189.79 337.7 252.54 451.35 181.19 318.43 199.58 449.63 171.41 318.43 143.23 451.35 161.63 337.7 90.27 456.32 153.02 373.92 47.1 463.93 146.64 422.73 18.93 473.26 143.24 478.23 9.14"/><circle class="cls-20" cx="478.23" cy="171.41" r="107.42"/></g></g></g></svg>