<?xml version="1.0" encoding="UTF-8"?><svg xmlns="http://www.w3.org/2000/svg" viewBox="0 0 392.24 569.21"><defs><style>.d{fill:#1d1d1b;}</style></defs><g id="a"/><g id="b"><g id="c"><circle class="d" cx="82.95" cy="273.27" r="3.94"/><circle class="d" cx="82.95" cy="283.77" r="3.94"/><circle class="d" cx="94.24" cy="273.01" r="3.94"/><circle class="d" cx="105.53" cy="273.27" r="3.94"/><circle class="d" cx="94.24" cy="283.51" r="3.94"/><circle class="d" cx="105.53" cy="283.77" r="3.94"/><circle class="d" cx="116.82" cy="273.01" r="3.94"/><circle class="d" cx="128.11" cy="273.27" r="3.94"/><circle class="d" cx="116.82" cy="283.51" r="3.94"/><circle class="d" cx="128.11" cy="283.77" r="3.94"/><circle class="d" cx="139.39" cy="273.01" r="3.94"/><circle class="d" cx="150.68" cy="273.27" r="3.94"/><circle class="d" cx="139.39" cy="283.51" r="3.94"/><circle class="d" cx="150.68" cy="283.77" r="3.94"/><circle class="d" cx="161.97" cy="273.01" r="3.94"/><circle class="d" cx="173.26" cy="273.27" r="3.94"/><circle class="d" cx="161.97" cy="283.51" r="3.94"/><circle class="d" cx="173.26" cy="283.77" r="3.94"/><circle class="d" cx="184.55" cy="273.01" r="3.94"/><circle class="d" cx="195.83" cy="273.27" r="3.94"/><circle class="d" cx="184.55" cy="283.51" r="3.94"/><circle class="d" cx="195.83" cy="283.77" r="3.94"/><circle class="d" cx="60.38" cy="251.75" r="3.94"/><circle class="d" cx="71.67" cy="251.49" r="3.94"/><circle class="d" cx="82.95" cy="251.75" r="3.94"/><circle class="d" cx="71.67" cy="261.99" r="3.94"/><circle class="d" cx="82.95" cy="262.25" r="3.94"/><circle class="d" cx="94.24" cy="251.49" r="3.94"/><circle class="d" cx="105.53" cy="251.75" r="3.94"/><circle class="d" cx="94.24" cy="261.99" r="3.94"/><circle class="d" cx="105.53" cy="262.25" r="3.94"/><circle class="d" cx="116.82" cy="251.49" r="3.94"/><circle class="d" cx="128.11" cy="251.75" r="3.94"/><circle class="d" cx="116.82" cy="261.99" r="3.94"/><circle class="d" cx="128.11" cy="262.25" r="3.94"/><circle class="d" cx="139.39" cy="251.49" r="3.94"/><circle class="d" cx="150.68" cy="251.75" r="3.94"/><circle class="d" cx="139.39" cy="261.99" r="3.94"/><circle class="d" cx="150.68" cy="262.25" r="3.94"/><circle class="d" cx="161.97" cy="251.49" r="3.94"/><circle class="d" cx="173.26" cy="251.75" r="3.94"/><circle class="d" cx="161.97" cy="261.99" r="3.94"/><circle class="d" cx="173.26" cy="262.25" r="3.94"/><circle class="d" cx="184.55" cy="251.49" r="3.94"/><circle class="d" cx="195.83" cy="251.75" r="3.94"/><circle class="d" cx="184.55" cy="261.99" r="3.94"/><circle class="d" cx="195.83" cy="262.25" r="3.94"/><circle class="d" cx="49.09" cy="229.96" r="3.94"/><circle class="d" cx="60.38" cy="230.22" r="3.94"/><circle class="d" cx="60.38" cy="240.72" r="3.94"/><circle class="d" cx="71.67" cy="229.96" r="3.94"/><circle class="d" cx="82.95" cy="230.22" r="3.94"/><circle class="d" cx="71.67" cy="240.46" r="3.94"/><circle class="d" cx="82.95" cy="240.72" r="3.94"/><circle class="d" cx="94.24" cy="229.96" r="3.94"/><circle class="d" cx="105.53" cy="230.22" r="3.94"/><circle class="d" cx="94.24" cy="240.46" r="3.94"/><circle class="d" cx="105.53" cy="240.72" r="3.94"/><circle class="d" cx="116.82" cy="229.96" r="3.94"/><circle class="d" cx="128.11" cy="230.22" r="3.94"/><circle class="d" cx="116.82" cy="240.46" r="3.94"/><circle class="d" cx="128.11" cy="240.72" r="3.94"/><circle class="d" cx="139.39" cy="229.96" r="3.94"/><circle class="d" cx="150.68" cy="230.22" r="3.94"/><circle class="d" cx="139.39" cy="240.46" r="3.94"/><circle class="d" cx="150.68" cy="240.72" r="3.94"/><circle class="d" cx="161.97" cy="229.96" r="3.94"/><circle class="d" cx="173.26" cy="230.22" r="3.94"/><circle class="d" cx="161.97" cy="240.46" r="3.94"/><circle class="d" cx="173.26" cy="240.72" r="3.94"/><circle class="d" cx="184.55" cy="229.96" r="3.94"/><circle class="d" cx="195.83" cy="230.22" r="3.94"/><circle class="d" cx="184.55" cy="240.46" r="3.94"/><circle class="d" cx="195.83" cy="240.72" r="3.94"/><circle class="d" cx="26.51" cy="208.43" r="3.94"/><circle class="d" cx="37.8" cy="208.7" r="3.94"/><circle class="d" cx="49.09" cy="208.43" r="3.94"/><circle class="d" cx="60.38" cy="208.7" r="3.94"/><circle class="d" cx="49.09" cy="218.93" r="3.94"/><circle class="d" cx="60.38" cy="219.2" r="3.94"/><circle class="d" cx="71.67" cy="208.43" r="3.94"/><circle class="d" cx="82.95" cy="208.7" r="3.94"/><circle class="d" cx="71.67" cy="218.93" r="3.94"/><circle class="d" cx="82.95" cy="219.2" r="3.94"/><circle class="d" cx="94.24" cy="208.43" r="3.94"/><circle class="d" cx="105.53" cy="208.7" r="3.94"/><circle class="d" cx="94.24" cy="218.93" r="3.94"/><circle class="d" cx="105.53" cy="219.2" r="3.94"/><circle class="d" cx="116.82" cy="208.43" r="3.94"/><circle class="d" cx="128.11" cy="208.7" r="3.94"/><circle class="d" cx="116.82" cy="218.93" r="3.94"/><circle class="d" cx="128.11" cy="219.2" r="3.94"/><circle class="d" cx="139.39" cy="208.43" r="3.94"/><circle class="d" cx="150.68" cy="208.7" r="3.94"/><circle class="d" cx="139.39" cy="218.93" r="3.94"/><circle class="d" cx="150.68" cy="219.2" r="3.94"/><circle class="d" cx="161.97" cy="208.43" r="3.94"/><circle class="d" cx="173.26" cy="208.7" r="3.94"/><circle class="d" cx="161.97" cy="218.93" r="3.94"/><circle class="d" cx="173.26" cy="219.2" r="3.94"/><circle class="d" cx="184.55" cy="208.43" r="3.94"/><circle class="d" cx="195.83" cy="208.7" r="3.94"/><circle class="d" cx="184.55" cy="218.93" r="3.94"/><circle class="d" cx="195.83" cy="219.2" r="3.94"/><circle class="d" cx="15.23" cy="187.17" r="3.94"/><circle class="d" cx="15.23" cy="197.67" r="3.94"/><circle class="d" cx="26.51" cy="186.91" r="3.94"/><circle class="d" cx="37.8" cy="187.17" r="3.94"/><circle class="d" cx="26.51" cy="197.41" r="3.94"/><circle class="d" cx="37.8" cy="197.67" r="3.94"/><circle class="d" cx="49.09" cy="186.91" r="3.94"/><circle class="d" cx="60.38" cy="187.17" r="3.94"/><circle class="d" cx="49.09" cy="197.41" r="3.94"/><circle class="d" cx="60.38" cy="197.67" r="3.94"/><circle class="d" cx="71.67" cy="186.91" r="3.94"/><circle class="d" cx="82.95" cy="187.17" r="3.94"/><circle class="d" cx="71.67" cy="197.41" r="3.94"/><circle class="d" cx="82.95" cy="197.67" r="3.94"/><circle class="d" cx="94.24" cy="186.91" r="3.94"/><circle class="d" cx="105.53" cy="187.17" r="3.94"/><circle class="d" cx="94.24" cy="197.41" r="3.94"/><circle class="d" cx="105.53" cy="197.67" r="3.94"/><circle class="d" cx="116.82" cy="186.91" r="3.94"/><circle class="d" cx="128.11" cy="187.17" r="3.94"/><circle class="d" cx="116.82" cy="197.41" r="3.94"/><circle class="d" cx="128.11" cy="197.67" r="3.94"/><circle class="d" cx="139.39" cy="186.91" r="3.94"/><circle class="d" cx="150.68" cy="187.17" r="3.94"/><circle class="d" cx="139.39" cy="197.41" r="3.94"/><circle class="d" cx="150.68" cy="197.67" r="3.94"/><circle class="d" cx="161.97" cy="186.91" r="3.94"/><circle class="d" cx="173.26" cy="187.17" r="3.94"/><circle class="d" cx="161.97" cy="197.41" r="3.94"/><circle class="d" cx="173.26" cy="197.67" r="3.94"/><circle class="d" cx="184.55" cy="186.91" r="3.94"/><circle class="d" cx="195.83" cy="187.17" r="3.94"/><circle class="d" cx="184.55" cy="197.41" r="3.94"/><circle class="d" cx="195.83" cy="197.67" r="3.94"/><circle class="d" cx="15.23" cy="165.64" r="3.94"/><circle class="d" cx="26.51" cy="165.38" r="3.94"/><circle class="d" cx="37.8" cy="165.64" r="3.94"/><circle class="d" cx="26.51" cy="175.88" r="3.94"/><circle class="d" cx="37.8" cy="176.15" r="3.94"/><circle class="d" cx="49.09" cy="165.38" r="3.94"/><circle class="d" cx="60.38" cy="165.64" r="3.94"/><circle class="d" cx="49.09" cy="175.88" r="3.94"/><circle class="d" cx="60.38" cy="176.15" r="3.94"/><circle class="d" cx="71.67" cy="165.38" r="3.94"/><circle class="d" cx="82.95" cy="165.64" r="3.94"/><circle class="d" cx="71.67" cy="175.88" r="3.94"/><circle class="d" cx="82.95" cy="176.15" r="3.94"/><circle class="d" cx="94.24" cy="165.38" r="3.94"/><circle class="d" cx="105.53" cy="165.64" r="3.94"/><circle class="d" cx="94.24" cy="175.88" r="3.94"/><circle class="d" cx="105.53" cy="176.15" r="3.94"/><circle class="d" cx="116.82" cy="165.38" r="3.94"/><circle class="d" cx="128.11" cy="165.64" r="3.94"/><circle class="d" cx="116.82" cy="175.88" r="3.94"/><circle class="d" cx="128.11" cy="176.15" r="3.94"/><circle class="d" cx="139.39" cy="165.38" r="3.94"/><circle class="d" cx="150.68" cy="165.64" r="3.94"/><circle class="d" cx="139.39" cy="175.88" r="3.94"/><circle class="d" cx="150.68" cy="176.15" r="3.94"/><circle class="d" cx="161.97" cy="165.38" r="3.94"/><circle class="d" cx="173.26" cy="165.64" r="3.94"/><circle class="d" cx="161.97" cy="175.88" r="3.94"/><circle class="d" cx="173.26" cy="176.15" r="3.94"/><circle class="d" cx="184.55" cy="165.38" r="3.94"/><circle class="d" cx="195.83" cy="165.64" r="3.94"/><circle class="d" cx="184.55" cy="175.88" r="3.94"/><circle class="d" cx="195.83" cy="176.15" r="3.94"/><circle class="d" cx="3.94" cy="143.86" r="3.94"/><circle class="d" cx="15.23" cy="144.12" r="3.94"/><circle class="d" cx="3.94" cy="154.36" r="3.94"/><circle class="d" cx="15.23" cy="154.62" r="3.94"/><circle class="d" cx="26.51" cy="143.86" r="3.94"/><circle class="d" cx="37.8" cy="144.12" r="3.94"/><circle class="d" cx="26.51" cy="154.36" r="3.94"/><circle class="d" cx="37.8" cy="154.62" r="3.94"/><circle class="d" cx="49.09" cy="143.86" r="3.94"/><circle class="d" cx="49.09" cy="154.36" r="3.94"/><circle class="d" cx="60.38" cy="154.62" r="3.94"/><circle class="d" cx="82.95" cy="144.12" r="3.94"/><circle class="d" cx="71.67" cy="154.36" r="3.94"/><circle class="d" cx="82.95" cy="154.62" r="3.94"/><circle class="d" cx="94.24" cy="143.86" r="3.94"/><circle class="d" cx="105.53" cy="144.12" r="3.94"/><circle class="d" cx="94.24" cy="154.36" r="3.94"/><circle class="d" cx="105.53" cy="154.62" r="3.94"/><circle class="d" cx="116.82" cy="143.86" r="3.94"/><circle class="d" cx="128.11" cy="144.12" r="3.94"/><circle class="d" cx="116.82" cy="154.36" r="3.94"/><circle class="d" cx="128.11" cy="154.62" r="3.94"/><circle class="d" cx="139.39" cy="143.86" r="3.94"/><circle class="d" cx="150.68" cy="144.12" r="3.94"/><circle class="d" cx="139.39" cy="154.36" r="3.94"/><circle class="d" cx="150.68" cy="154.62" r="3.94"/><circle class="d" cx="161.97" cy="143.86" r="3.94"/><circle class="d" cx="173.26" cy="144.12" r="3.94"/><circle class="d" cx="161.97" cy="154.36" r="3.94"/><circle class="d" cx="173.26" cy="154.62" r="3.94"/><circle class="d" cx="184.55" cy="143.86" r="3.94"/><circle class="d" cx="195.83" cy="144.12" r="3.94"/><circle class="d" cx="184.55" cy="154.36" r="3.94"/><circle class="d" cx="195.83" cy="154.62" r="3.94"/><circle class="d" cx="15.23" cy="122.59" r="3.94"/><circle class="d" cx="3.94" cy="132.83" r="3.94"/><circle class="d" cx="15.23" cy="133.09" r="3.94"/><circle class="d" cx="26.51" cy="122.33" r="3.94"/><circle class="d" cx="37.8" cy="122.59" r="3.94"/><circle class="d" cx="26.51" cy="132.83" r="3.94"/><circle class="d" cx="82.95" cy="133.09" r="3.94"/><circle class="d" cx="94.24" cy="122.33" r="3.94"/><circle class="d" cx="105.53" cy="122.59" r="3.94"/><circle class="d" cx="94.24" cy="132.83" r="3.94"/><circle class="d" cx="105.53" cy="133.09" r="3.94"/><circle class="d" cx="116.82" cy="122.33" r="3.94"/><circle class="d" cx="128.11" cy="122.59" r="3.94"/><circle class="d" cx="116.82" cy="132.83" r="3.94"/><circle class="d" cx="128.11" cy="133.09" r="3.94"/><circle class="d" cx="139.39" cy="122.33" r="3.94"/><circle class="d" cx="150.68" cy="122.59" r="3.94"/><circle class="d" cx="139.39" cy="132.83" r="3.94"/><circle class="d" cx="150.68" cy="133.09" r="3.94"/><circle class="d" cx="161.97" cy="122.33" r="3.94"/><circle class="d" cx="173.26" cy="122.59" r="3.94"/><circle class="d" cx="161.97" cy="132.83" r="3.94"/><circle class="d" cx="173.26" cy="133.09" r="3.94"/><circle class="d" cx="184.55" cy="122.33" r="3.94"/><circle class="d" cx="195.83" cy="122.59" r="3.94"/><circle class="d" cx="184.55" cy="132.83" r="3.94"/><circle class="d" cx="195.83" cy="133.09" r="3.94"/><circle class="d" cx="37.8" cy="111.57" r="3.94"/><circle class="d" cx="105.53" cy="101.07" r="3.94"/><circle class="d" cx="94.24" cy="111.3" r="3.94"/><circle class="d" cx="105.53" cy="111.57" r="3.94"/><circle class="d" cx="116.82" cy="100.8" r="3.94"/><circle class="d" cx="128.11" cy="101.07" r="3.94"/><circle class="d" cx="116.82" cy="111.3" r="3.94"/><circle class="d" cx="128.11" cy="111.57" r="3.94"/><circle class="d" cx="139.39" cy="100.8" r="3.94"/><circle class="d" cx="150.68" cy="101.07" r="3.94"/><circle class="d" cx="139.39" cy="111.3" r="3.94"/><circle class="d" cx="150.68" cy="111.57" r="3.94"/><circle class="d" cx="161.97" cy="100.8" r="3.94"/><circle class="d" cx="173.26" cy="101.07" r="3.94"/><circle class="d" cx="161.97" cy="111.3" r="3.94"/><circle class="d" cx="173.26" cy="111.57" r="3.94"/><circle class="d" cx="184.55" cy="100.8" r="3.94"/><circle class="d" cx="195.83" cy="101.07" r="3.94"/><circle class="d" cx="184.55" cy="111.3" r="3.94"/><circle class="d" cx="195.83" cy="111.57" r="3.94"/><circle class="d" cx="116.82" cy="89.78" r="3.94"/><circle class="d" cx="128.11" cy="90.04" r="3.94"/><circle class="d" cx="150.68" cy="79.54" r="3.94"/><circle class="d" cx="139.39" cy="89.78" r="3.94"/><circle class="d" cx="150.68" cy="90.04" r="3.94"/><circle class="d" cx="161.97" cy="79.28" r="3.94"/><circle class="d" cx="173.26" cy="79.54" r="3.94"/><circle class="d" cx="161.97" cy="89.78" r="3.94"/><circle class="d" cx="173.26" cy="90.04" r="3.94"/><circle class="d" cx="184.55" cy="79.28" r="3.94"/><circle class="d" cx="195.83" cy="79.54" r="3.94"/><circle class="d" cx="184.55" cy="89.78" r="3.94"/><circle class="d" cx="195.83" cy="90.04" r="3.94"/><circle class="d" cx="173.26" cy="58.02" r="3.94"/><circle class="d" cx="161.97" cy="68.25" r="3.94"/><circle class="d" cx="173.26" cy="68.52" r="3.94"/><circle class="d" cx="184.55" cy="57.75" r="3.94"/><circle class="d" cx="195.83" cy="58.02" r="3.94"/><circle class="d" cx="184.55" cy="68.25" r="3.94"/><circle class="d" cx="195.83" cy="68.52" r="3.94"/><circle class="d" cx="184.55" cy="36.23" r="3.94"/><circle class="d" cx="195.83" cy="36.49" r="3.94"/><circle class="d" cx="184.55" cy="46.73" r="3.94"/><circle class="d" cx="195.83" cy="46.99" r="3.94"/><circle class="d" cx="184.55" cy="14.7" r="3.94"/><circle class="d" cx="195.83" cy="14.96" r="3.94"/><circle class="d" cx="184.55" cy="3.94" r="3.94"/><circle class="d" cx="195.83" cy="4.2" r="3.94"/><circle class="d" cx="173.26" cy="457.64" r="3.94"/><circle class="d" cx="161.97" cy="435.86" r="3.94"/><circle class="d" cx="173.26" cy="436.12" r="3.94"/><circle class="d" cx="161.97" cy="446.36" r="3.94"/><circle class="d" cx="173.26" cy="446.62" r="3.94"/><circle class="d" cx="161.97" cy="414.33" r="3.94"/><circle class="d" cx="173.26" cy="414.59" r="3.94"/><circle class="d" cx="161.97" cy="424.83" r="3.94"/><circle class="d" cx="173.26" cy="425.09" r="3.94"/><circle class="d" cx="150.68" cy="393.07" r="3.94"/><circle class="d" cx="150.68" cy="403.57" r="3.94"/><circle class="d" cx="161.97" cy="392.8" r="3.94"/><circle class="d" cx="173.26" cy="393.07" r="3.94"/><circle class="d" cx="161.97" cy="403.3" r="3.94"/><circle class="d" cx="173.26" cy="403.57" r="3.94"/><circle class="d" cx="139.39" cy="371.28" r="3.94"/><circle class="d" cx="150.68" cy="371.54" r="3.94"/><circle class="d" cx="139.39" cy="381.78" r="3.94"/><circle class="d" cx="150.68" cy="382.04" r="3.94"/><circle class="d" cx="161.97" cy="371.28" r="3.94"/><circle class="d" cx="173.26" cy="371.54" r="3.94"/><circle class="d" cx="161.97" cy="381.78" r="3.94"/><circle class="d" cx="173.26" cy="382.04" r="3.94"/><circle class="d" cx="116.82" cy="349.75" r="3.94"/><circle class="d" cx="128.11" cy="350.02" r="3.94"/><circle class="d" cx="128.11" cy="360.52" r="3.94"/><circle class="d" cx="139.39" cy="349.75" r="3.94"/><circle class="d" cx="150.68" cy="350.02" r="3.94"/><circle class="d" cx="139.39" cy="360.25" r="3.94"/><circle class="d" cx="150.68" cy="360.52" r="3.94"/><circle class="d" cx="161.97" cy="349.75" r="3.94"/><circle class="d" cx="173.26" cy="350.02" r="3.94"/><circle class="d" cx="161.97" cy="360.25" r="3.94"/><circle class="d" cx="173.26" cy="360.52" r="3.94"/><circle class="d" cx="105.53" cy="328.49" r="3.94"/><circle class="d" cx="116.82" cy="328.23" r="3.94"/><circle class="d" cx="128.11" cy="328.49" r="3.94"/><circle class="d" cx="116.82" cy="338.73" r="3.94"/><circle class="d" cx="128.11" cy="338.99" r="3.94"/><circle class="d" cx="139.39" cy="328.23" r="3.94"/><circle class="d" cx="150.68" cy="328.49" r="3.94"/><circle class="d" cx="139.39" cy="338.73" r="3.94"/><circle class="d" cx="150.68" cy="338.99" r="3.94"/><circle class="d" cx="161.97" cy="328.23" r="3.94"/><circle class="d" cx="173.26" cy="328.49" r="3.94"/><circle class="d" cx="161.97" cy="338.73" r="3.94"/><circle class="d" cx="173.26" cy="338.99" r="3.94"/><circle class="d" cx="94.24" cy="306.7" r="3.94"/><circle class="d" cx="105.53" cy="306.96" r="3.94"/><circle class="d" cx="105.53" cy="317.46" r="3.94"/><circle class="d" cx="116.82" cy="306.7" r="3.94"/><circle class="d" cx="128.11" cy="306.96" r="3.94"/><circle class="d" cx="116.82" cy="317.2" r="3.94"/><circle class="d" cx="128.11" cy="317.46" r="3.94"/><circle class="d" cx="139.39" cy="306.7" r="3.94"/><circle class="d" cx="150.68" cy="306.96" r="3.94"/><circle class="d" cx="139.39" cy="317.2" r="3.94"/><circle class="d" cx="150.68" cy="317.46" r="3.94"/><circle class="d" cx="161.97" cy="306.7" r="3.94"/><circle class="d" cx="173.26" cy="306.96" r="3.94"/><circle class="d" cx="161.97" cy="317.2" r="3.94"/><circle class="d" cx="173.26" cy="317.46" r="3.94"/><circle class="d" cx="94.24" cy="295.15" r="3.94"/><circle class="d" cx="105.53" cy="295.41" r="3.94"/><circle class="d" cx="116.82" cy="295.15" r="3.94"/><circle class="d" cx="128.11" cy="295.41" r="3.94"/><circle class="d" cx="139.39" cy="295.15" r="3.94"/><circle class="d" cx="150.68" cy="295.41" r="3.94"/><circle class="d" cx="161.97" cy="295.15" r="3.94"/><circle class="d" cx="173.26" cy="295.41" r="3.94"/><circle class="d" cx="343.11" cy="565.27" r="3.94"/><circle class="d" cx="354.39" cy="565.01" r="3.94"/><circle class="d" cx="309.24" cy="543.49" r="3.94"/><circle class="d" cx="320.53" cy="543.75" r="3.94"/><circle class="d" cx="320.53" cy="554.25" r="3.94"/><circle class="d" cx="331.82" cy="543.49" r="3.94"/><circle class="d" cx="343.11" cy="543.75" r="3.94"/><circle class="d" cx="331.82" cy="553.99" r="3.94"/><circle class="d" cx="343.11" cy="554.25" r="3.94"/><circle class="d" cx="354.39" cy="543.49" r="3.94"/><circle class="d" cx="354.39" cy="553.99" r="3.94"/><circle class="d" cx="264.09" cy="521.96" r="3.94"/><circle class="d" cx="275.38" cy="522.22" r="3.94"/><circle class="d" cx="286.67" cy="521.96" r="3.94"/><circle class="d" cx="297.95" cy="522.22" r="3.94"/><circle class="d" cx="286.67" cy="532.46" r="3.94"/><circle class="d" cx="297.95" cy="532.72" r="3.94"/><circle class="d" cx="309.24" cy="521.96" r="3.94"/><circle class="d" cx="320.53" cy="522.22" r="3.94"/><circle class="d" cx="309.24" cy="532.46" r="3.94"/><circle class="d" cx="320.53" cy="532.72" r="3.94"/><circle class="d" cx="331.82" cy="521.96" r="3.94"/><circle class="d" cx="343.11" cy="522.22" r="3.94"/><circle class="d" cx="331.82" cy="532.46" r="3.94"/><circle class="d" cx="343.11" cy="532.72" r="3.94"/><circle class="d" cx="354.39" cy="521.96" r="3.94"/><circle class="d" cx="365.68" cy="522.22" r="3.94"/><circle class="d" cx="354.39" cy="532.46" r="3.94"/><circle class="d" cx="365.68" cy="532.72" r="3.94"/><circle class="d" cx="230.23" cy="500.7" r="3.94"/><circle class="d" cx="241.51" cy="500.43" r="3.94"/><circle class="d" cx="252.8" cy="500.7" r="3.94"/><circle class="d" cx="241.51" cy="510.93" r="3.94"/><circle class="d" cx="252.8" cy="511.2" r="3.94"/><circle class="d" cx="264.09" cy="500.43" r="3.94"/><circle class="d" cx="275.38" cy="500.7" r="3.94"/><circle class="d" cx="264.09" cy="510.93" r="3.94"/><circle class="d" cx="275.38" cy="511.2" r="3.94"/><circle class="d" cx="286.67" cy="500.43" r="3.94"/><circle class="d" cx="297.95" cy="500.7" r="3.94"/><circle class="d" cx="286.67" cy="510.93" r="3.94"/><circle class="d" cx="297.95" cy="511.2" r="3.94"/><circle class="d" cx="309.24" cy="500.43" r="3.94"/><circle class="d" cx="320.53" cy="500.7" r="3.94"/><circle class="d" cx="309.24" cy="510.93" r="3.94"/><circle class="d" cx="320.53" cy="511.2" r="3.94"/><circle class="d" cx="331.82" cy="500.43" r="3.94"/><circle class="d" cx="343.11" cy="500.7" r="3.94"/><circle class="d" cx="331.82" cy="510.93" r="3.94"/><circle class="d" cx="343.11" cy="511.2" r="3.94"/><circle class="d" cx="354.39" cy="500.43" r="3.94"/><circle class="d" cx="365.68" cy="500.7" r="3.94"/><circle class="d" cx="354.39" cy="510.93" r="3.94"/><circle class="d" cx="365.68" cy="511.2" r="3.94"/><circle class="d" cx="196.36" cy="478.91" r="3.94"/><circle class="d" cx="207.65" cy="479.17" r="3.94"/><circle class="d" cx="207.65" cy="489.67" r="3.94"/><circle class="d" cx="218.94" cy="478.91" r="3.94"/><circle class="d" cx="230.23" cy="479.17" r="3.94"/><circle class="d" cx="218.94" cy="489.41" r="3.94"/><circle class="d" cx="230.23" cy="489.67" r="3.94"/><circle class="d" cx="241.51" cy="478.91" r="3.94"/><circle class="d" cx="252.8" cy="479.17" r="3.94"/><circle class="d" cx="241.51" cy="489.41" r="3.94"/><circle class="d" cx="252.8" cy="489.67" r="3.94"/><circle class="d" cx="264.09" cy="478.91" r="3.94"/><circle class="d" cx="275.38" cy="479.17" r="3.94"/><circle class="d" cx="264.09" cy="489.41" r="3.94"/><circle class="d" cx="275.38" cy="489.67" r="3.94"/><circle class="d" cx="286.67" cy="478.91" r="3.94"/><circle class="d" cx="297.95" cy="479.17" r="3.94"/><circle class="d" cx="286.67" cy="489.41" r="3.94"/><circle class="d" cx="297.95" cy="489.67" r="3.94"/><circle class="d" cx="309.24" cy="478.91" r="3.94"/><circle class="d" cx="320.53" cy="479.17" r="3.94"/><circle class="d" cx="309.24" cy="489.41" r="3.94"/><circle class="d" cx="320.53" cy="489.67" r="3.94"/><circle class="d" cx="331.82" cy="478.91" r="3.94"/><circle class="d" cx="343.11" cy="479.17" r="3.94"/><circle class="d" cx="331.82" cy="489.41" r="3.94"/><circle class="d" cx="343.11" cy="489.67" r="3.94"/><circle class="d" cx="354.39" cy="478.91" r="3.94"/><circle class="d" cx="365.68" cy="479.17" r="3.94"/><circle class="d" cx="354.39" cy="489.41" r="3.94"/><circle class="d" cx="365.68" cy="489.67" r="3.94"/><circle class="d" cx="196.36" cy="457.38" r="3.94"/><circle class="d" cx="207.65" cy="457.64" r="3.94"/><circle class="d" cx="196.36" cy="467.88" r="3.94"/><circle class="d" cx="207.65" cy="468.15" r="3.94"/><circle class="d" cx="218.94" cy="457.38" r="3.94"/><circle class="d" cx="230.23" cy="457.64" r="3.94"/><circle class="d" cx="218.94" cy="467.88" r="3.94"/><circle class="d" cx="230.23" cy="468.15" r="3.94"/><circle class="d" cx="241.51" cy="457.38" r="3.94"/><circle class="d" cx="252.8" cy="457.64" r="3.94"/><circle class="d" cx="241.51" cy="467.88" r="3.94"/><circle class="d" cx="252.8" cy="468.15" r="3.94"/><circle class="d" cx="264.09" cy="457.38" r="3.94"/><circle class="d" cx="275.38" cy="457.64" r="3.94"/><circle class="d" cx="264.09" cy="467.88" r="3.94"/><circle class="d" cx="275.38" cy="468.15" r="3.94"/><circle class="d" cx="286.67" cy="457.38" r="3.94"/><circle class="d" cx="297.95" cy="457.64" r="3.94"/><circle class="d" cx="286.67" cy="467.88" r="3.94"/><circle class="d" cx="297.95" cy="468.15" r="3.94"/><circle class="d" cx="309.24" cy="457.38" r="3.94"/><circle class="d" cx="320.53" cy="457.64" r="3.94"/><circle class="d" cx="309.24" cy="467.88" r="3.94"/><circle class="d" cx="320.53" cy="468.15" r="3.94"/><circle class="d" cx="331.82" cy="457.38" r="3.94"/><circle class="d" cx="343.11" cy="457.64" r="3.94"/><circle class="d" cx="331.82" cy="467.88" r="3.94"/><circle class="d" cx="343.11" cy="468.15" r="3.94"/><circle class="d" cx="354.39" cy="457.38" r="3.94"/><circle class="d" cx="365.68" cy="457.64" r="3.94"/><circle class="d" cx="354.39" cy="467.88" r="3.94"/><circle class="d" cx="365.68" cy="468.15" r="3.94"/><circle class="d" cx="196.36" cy="435.86" r="3.94"/><circle class="d" cx="207.65" cy="436.12" r="3.94"/><circle class="d" cx="196.36" cy="446.36" r="3.94"/><circle class="d" cx="207.65" cy="446.62" r="3.94"/><circle class="d" cx="218.94" cy="435.86" r="3.94"/><circle class="d" cx="230.23" cy="436.12" r="3.94"/><circle class="d" cx="218.94" cy="446.36" r="3.94"/><circle class="d" cx="230.23" cy="446.62" r="3.94"/><circle class="d" cx="241.51" cy="435.86" r="3.94"/><circle class="d" cx="252.8" cy="436.12" r="3.94"/><circle class="d" cx="241.51" cy="446.36" r="3.94"/><circle class="d" cx="252.8" cy="446.62" r="3.94"/><circle class="d" cx="264.09" cy="435.86" r="3.94"/><circle class="d" cx="275.38" cy="436.12" r="3.94"/><circle class="d" cx="264.09" cy="446.36" r="3.94"/><circle class="d" cx="275.38" cy="446.62" r="3.94"/><circle class="d" cx="286.67" cy="435.86" r="3.94"/><circle class="d" cx="297.95" cy="436.12" r="3.94"/><circle class="d" cx="286.67" cy="446.36" r="3.94"/><circle class="d" cx="297.95" cy="446.62" r="3.94"/><circle class="d" cx="309.24" cy="435.86" r="3.94"/><circle class="d" cx="320.53" cy="436.12" r="3.94"/><circle class="d" cx="309.24" cy="446.36" r="3.94"/><circle class="d" cx="320.53" cy="446.62" r="3.94"/><circle class="d" cx="331.82" cy="435.86" r="3.94"/><circle class="d" cx="343.11" cy="436.12" r="3.94"/><circle class="d" cx="331.82" cy="446.36" r="3.94"/><circle class="d" cx="343.11" cy="446.62" r="3.94"/><circle class="d" cx="354.39" cy="435.86" r="3.94"/><circle class="d" cx="365.68" cy="436.12" r="3.94"/><circle class="d" cx="354.39" cy="446.36" r="3.94"/><circle class="d" cx="365.68" cy="446.62" r="3.94"/><circle class="d" cx="196.36" cy="414.33" r="3.94"/><circle class="d" cx="207.65" cy="414.59" r="3.94"/><circle class="d" cx="196.36" cy="424.83" r="3.94"/><circle class="d" cx="207.65" cy="425.09" r="3.94"/><circle class="d" cx="218.94" cy="414.33" r="3.94"/><circle class="d" cx="230.23" cy="414.59" r="3.94"/><circle class="d" cx="218.94" cy="424.83" r="3.94"/><circle class="d" cx="230.23" cy="425.09" r="3.94"/><circle class="d" cx="241.51" cy="414.33" r="3.94"/><circle class="d" cx="252.8" cy="414.59" r="3.94"/><circle class="d" cx="241.51" cy="424.83" r="3.94"/><circle class="d" cx="252.8" cy="425.09" r="3.94"/><circle class="d" cx="264.09" cy="414.33" r="3.94"/><circle class="d" cx="275.38" cy="414.59" r="3.94"/><circle class="d" cx="264.09" cy="424.83" r="3.94"/><circle class="d" cx="275.38" cy="425.09" r="3.94"/><circle class="d" cx="286.67" cy="414.33" r="3.94"/><circle class="d" cx="297.95" cy="414.59" r="3.94"/><circle class="d" cx="286.67" cy="424.83" r="3.94"/><circle class="d" cx="297.95" cy="425.09" r="3.94"/><circle class="d" cx="309.24" cy="414.33" r="3.94"/><circle class="d" cx="320.53" cy="414.59" r="3.94"/><circle class="d" cx="309.24" cy="424.83" r="3.94"/><circle class="d" cx="320.53" cy="425.09" r="3.94"/><circle class="d" cx="331.82" cy="414.33" r="3.94"/><circle class="d" cx="343.11" cy="414.59" r="3.94"/><circle class="d" cx="331.82" cy="424.83" r="3.94"/><circle class="d" cx="343.11" cy="425.09" r="3.94"/><circle class="d" cx="354.39" cy="414.33" r="3.94"/><circle class="d" cx="365.68" cy="414.59" r="3.94"/><circle class="d" cx="354.39" cy="424.83" r="3.94"/><circle class="d" cx="365.68" cy="425.09" r="3.94"/><circle class="d" cx="196.36" cy="392.8" r="3.94"/><circle class="d" cx="207.65" cy="393.07" r="3.94"/><circle class="d" cx="196.36" cy="403.3" r="3.94"/><circle class="d" cx="207.65" cy="403.57" r="3.94"/><circle class="d" cx="218.94" cy="392.8" r="3.94"/><circle class="d" cx="230.23" cy="393.07" r="3.94"/><circle class="d" cx="218.94" cy="403.3" r="3.94"/><circle class="d" cx="230.23" cy="403.57" r="3.94"/><circle class="d" cx="241.51" cy="392.8" r="3.94"/><circle class="d" cx="252.8" cy="393.07" r="3.94"/><circle class="d" cx="241.51" cy="403.3" r="3.94"/><circle class="d" cx="252.8" cy="403.57" r="3.94"/><circle class="d" cx="264.09" cy="392.8" r="3.94"/><circle class="d" cx="275.38" cy="393.07" r="3.94"/><circle class="d" cx="264.09" cy="403.3" r="3.94"/><circle class="d" cx="275.38" cy="403.57" r="3.94"/><circle class="d" cx="286.67" cy="392.8" r="3.94"/><circle class="d" cx="297.95" cy="393.07" r="3.94"/><circle class="d" cx="286.67" cy="403.3" r="3.94"/><circle class="d" cx="297.95" cy="403.57" r="3.94"/><circle class="d" cx="309.24" cy="392.8" r="3.94"/><circle class="d" cx="320.53" cy="393.07" r="3.94"/><circle class="d" cx="309.24" cy="403.3" r="3.94"/><circle class="d" cx="320.53" cy="403.57" r="3.94"/><circle class="d" cx="331.82" cy="392.8" r="3.94"/><circle class="d" cx="343.11" cy="393.07" r="3.94"/><circle class="d" cx="331.82" cy="403.3" r="3.94"/><circle class="d" cx="343.11" cy="403.57" r="3.94"/><circle class="d" cx="354.39" cy="392.8" r="3.94"/><circle class="d" cx="365.68" cy="393.07" r="3.94"/><circle class="d" cx="354.39" cy="403.3" r="3.94"/><circle class="d" cx="365.68" cy="403.57" r="3.94"/><circle class="d" cx="196.36" cy="371.28" r="3.94"/><circle class="d" cx="207.65" cy="371.54" r="3.94"/><circle class="d" cx="196.36" cy="381.78" r="3.94"/><circle class="d" cx="207.65" cy="382.04" r="3.94"/><circle class="d" cx="218.94" cy="371.28" r="3.94"/><circle class="d" cx="230.23" cy="371.54" r="3.94"/><circle class="d" cx="218.94" cy="381.78" r="3.94"/><circle class="d" cx="230.23" cy="382.04" r="3.94"/><circle class="d" cx="241.51" cy="371.28" r="3.94"/><circle class="d" cx="252.8" cy="371.54" r="3.94"/><circle class="d" cx="241.51" cy="381.78" r="3.94"/><circle class="d" cx="252.8" cy="382.04" r="3.94"/><circle class="d" cx="264.09" cy="371.28" r="3.94"/><circle class="d" cx="275.38" cy="371.54" r="3.94"/><circle class="d" cx="264.09" cy="381.78" r="3.94"/><circle class="d" cx="275.38" cy="382.04" r="3.94"/><circle class="d" cx="286.67" cy="371.28" r="3.94"/><circle class="d" cx="297.95" cy="371.54" r="3.94"/><circle class="d" cx="286.67" cy="381.78" r="3.94"/><circle class="d" cx="297.95" cy="382.04" r="3.94"/><circle class="d" cx="309.24" cy="371.28" r="3.94"/><circle class="d" cx="320.53" cy="371.54" r="3.94"/><circle class="d" cx="309.24" cy="381.78" r="3.94"/><circle class="d" cx="320.53" cy="382.04" r="3.94"/><circle class="d" cx="331.82" cy="371.28" r="3.94"/><circle class="d" cx="343.11" cy="371.54" r="3.94"/><circle class="d" cx="331.82" cy="381.78" r="3.94"/><circle class="d" cx="343.11" cy="382.04" r="3.94"/><circle class="d" cx="354.39" cy="371.28" r="3.94"/><circle class="d" cx="365.68" cy="371.54" r="3.94"/><circle class="d" cx="354.39" cy="381.78" r="3.94"/><circle class="d" cx="365.68" cy="382.04" r="3.94"/><circle class="d" cx="196.36" cy="349.75" r="3.94"/><circle class="d" cx="207.65" cy="350.02" r="3.94"/><circle class="d" cx="196.36" cy="360.25" r="3.94"/><circle class="d" cx="207.65" cy="360.52" r="3.94"/><circle class="d" cx="218.94" cy="349.75" r="3.94"/><circle class="d" cx="230.23" cy="350.02" r="3.94"/><circle class="d" cx="218.94" cy="360.25" r="3.94"/><circle class="d" cx="230.23" cy="360.52" r="3.94"/><circle class="d" cx="241.51" cy="349.75" r="3.94"/><circle class="d" cx="252.8" cy="350.02" r="3.94"/><circle class="d" cx="241.51" cy="360.25" r="3.94"/><circle class="d" cx="252.8" cy="360.52" r="3.94"/><circle class="d" cx="264.09" cy="349.75" r="3.94"/><circle class="d" cx="275.38" cy="350.02" r="3.94"/><circle class="d" cx="264.09" cy="360.25" r="3.94"/><circle class="d" cx="275.38" cy="360.52" r="3.94"/><circle class="d" cx="286.67" cy="349.75" r="3.94"/><circle class="d" cx="297.95" cy="350.02" r="3.94"/><circle class="d" cx="286.67" cy="360.25" r="3.94"/><circle class="d" cx="297.95" cy="360.52" r="3.94"/><circle class="d" cx="309.24" cy="349.75" r="3.94"/><circle class="d" cx="320.53" cy="350.02" r="3.94"/><circle class="d" cx="309.24" cy="360.25" r="3.94"/><circle class="d" cx="320.53" cy="360.52" r="3.94"/><circle class="d" cx="331.82" cy="349.75" r="3.94"/><circle class="d" cx="343.11" cy="350.02" r="3.94"/><circle class="d" cx="331.82" cy="360.25" r="3.94"/><circle class="d" cx="343.11" cy="360.52" r="3.94"/><circle class="d" cx="354.39" cy="349.75" r="3.94"/><circle class="d" cx="365.68" cy="350.02" r="3.94"/><circle class="d" cx="354.39" cy="360.25" r="3.94"/><circle class="d" cx="365.68" cy="360.52" r="3.94"/><circle class="d" cx="196.36" cy="328.23" r="3.94"/><circle class="d" cx="207.65" cy="328.49" r="3.94"/><circle class="d" cx="196.36" cy="338.73" r="3.94"/><circle class="d" cx="207.65" cy="338.99" r="3.94"/><circle class="d" cx="218.94" cy="328.23" r="3.94"/><circle class="d" cx="230.23" cy="328.49" r="3.94"/><circle class="d" cx="218.94" cy="338.73" r="3.94"/><circle class="d" cx="230.23" cy="338.99" r="3.94"/><circle class="d" cx="241.51" cy="328.23" r="3.94"/><circle class="d" cx="252.8" cy="328.49" r="3.94"/><circle class="d" cx="241.51" cy="338.73" r="3.94"/><circle class="d" cx="252.8" cy="338.99" r="3.94"/><circle class="d" cx="264.09" cy="328.23" r="3.94"/><circle class="d" cx="275.38" cy="328.49" r="3.94"/><circle class="d" cx="264.09" cy="338.73" r="3.94"/><circle class="d" cx="275.38" cy="338.99" r="3.94"/><circle class="d" cx="286.67" cy="328.23" r="3.94"/><circle class="d" cx="297.95" cy="328.49" r="3.94"/><circle class="d" cx="286.67" cy="338.73" r="3.94"/><circle class="d" cx="297.95" cy="338.99" r="3.94"/><circle class="d" cx="309.24" cy="328.23" r="3.94"/><circle class="d" cx="320.53" cy="328.49" r="3.94"/><circle class="d" cx="309.24" cy="338.73" r="3.94"/><circle class="d" cx="320.53" cy="338.99" r="3.94"/><circle class="d" cx="331.82" cy="328.23" r="3.94"/><circle class="d" cx="331.82" cy="338.73" r="3.94"/><circle class="d" cx="354.39" cy="338.73" r="3.94"/><circle class="d" cx="365.68" cy="338.99" r="3.94"/><circle class="d" cx="377.02" cy="521.96" r="3.94"/><circle class="d" cx="377.02" cy="500.43" r="3.94"/><circle class="d" cx="377.02" cy="510.93" r="3.94"/><circle class="d" cx="377.02" cy="478.91" r="3.94"/><circle class="d" cx="377.02" cy="467.88" r="3.94"/><circle class="d" cx="377.02" cy="435.86" r="3.94"/><circle class="d" cx="377.02" cy="446.36" r="3.94"/><circle class="d" cx="377.02" cy="414.33" r="3.94"/><circle class="d" cx="377.02" cy="424.83" r="3.94"/><circle class="d" cx="377.02" cy="392.8" r="3.94"/><circle class="d" cx="388.31" cy="393.07" r="3.94"/><circle class="d" cx="377.02" cy="403.3" r="3.94"/><circle class="d" cx="388.31" cy="403.57" r="3.94"/><circle class="d" cx="377.02" cy="371.28" r="3.94"/><circle class="d" cx="377.02" cy="381.78" r="3.94"/><circle class="d" cx="388.31" cy="382.04" r="3.94"/><circle class="d" cx="377.02" cy="349.75" r="3.94"/><circle class="d" cx="377.02" cy="360.25" r="3.94"/><circle class="d" cx="196.36" cy="306.7" r="3.94"/><circle class="d" cx="207.65" cy="306.96" r="3.94"/><circle class="d" cx="196.36" cy="317.2" r="3.94"/><circle class="d" cx="185.07" cy="457.64" r="3.94"/><circle class="d" cx="185.07" cy="468.15" r="3.94"/><circle class="d" cx="185.07" cy="436.12" r="3.94"/><circle class="d" cx="185.07" cy="446.62" r="3.94"/><circle class="d" cx="185.07" cy="414.59" r="3.94"/><circle class="d" cx="185.07" cy="425.09" r="3.94"/><circle class="d" cx="185.07" cy="393.07" r="3.94"/><circle class="d" cx="185.07" cy="403.57" r="3.94"/><circle class="d" cx="185.07" cy="371.54" r="3.94"/><circle class="d" cx="185.07" cy="382.04" r="3.94"/><circle class="d" cx="185.07" cy="350.02" r="3.94"/><circle class="d" cx="185.07" cy="360.52" r="3.94"/><circle class="d" cx="185.07" cy="328.49" r="3.94"/><circle class="d" cx="185.07" cy="338.99" r="3.94"/><circle class="d" cx="185.07" cy="306.96" r="3.94"/><circle class="d" cx="185.07" cy="317.46" r="3.94"/><circle class="d" cx="207.65" cy="317.46" r="3.94"/><circle class="d" cx="218.94" cy="306.7" r="3.94"/><circle class="d" cx="230.23" cy="306.96" r="3.94"/><circle class="d" cx="218.94" cy="317.2" r="3.94"/><circle class="d" cx="230.23" cy="317.46" r="3.94"/><circle class="d" cx="241.51" cy="306.7" r="3.94"/><circle class="d" cx="252.8" cy="306.96" r="3.94"/><circle class="d" cx="241.51" cy="317.2" r="3.94"/><circle class="d" cx="252.8" cy="317.46" r="3.94"/><circle class="d" cx="264.09" cy="306.7" r="3.94"/><circle class="d" cx="275.38" cy="306.96" r="3.94"/><circle class="d" cx="264.09" cy="317.2" r="3.94"/><circle class="d" cx="275.38" cy="317.46" r="3.94"/><circle class="d" cx="286.67" cy="306.7" r="3.94"/><circle class="d" cx="286.67" cy="317.2" r="3.94"/><circle class="d" cx="297.95" cy="317.46" r="3.94"/><circle class="d" cx="309.24" cy="306.7" r="3.94"/><circle class="d" cx="320.53" cy="306.96" r="3.94"/><circle class="d" cx="309.24" cy="317.2" r="3.94"/><circle class="d" cx="320.53" cy="317.46" r="3.94"/><circle class="d" cx="331.82" cy="306.7" r="3.94"/><circle class="d" cx="331.82" cy="317.2" r="3.94"/><circle class="d" cx="196.36" cy="295.15" r="3.94"/><circle class="d" cx="207.65" cy="295.41" r="3.94"/><circle class="d" cx="185.07" cy="295.41" r="3.94"/><circle class="d" cx="218.94" cy="295.15" r="3.94"/><circle class="d" cx="230.23" cy="295.41" r="3.94"/><circle class="d" cx="241.51" cy="295.15" r="3.94"/><circle class="d" cx="252.8" cy="295.41" r="3.94"/><circle class="d" cx="264.09" cy="295.15" r="3.94"/><circle class="d" cx="275.38" cy="295.41" r="3.94"/><circle class="d" cx="331.82" cy="295.15" r="3.94"/><circle class="d" cx="184.55" cy="25.2" r="3.94"/><circle class="d" cx="195.83" cy="25.46" r="3.94"/><circle class="d" cx="218.94" cy="273.01" r="3.94"/><circle class="d" cx="230.23" cy="273.27" r="3.94"/><circle class="d" cx="218.94" cy="283.51" r="3.94"/><circle class="d" cx="230.23" cy="283.77" r="3.94"/><circle class="d" cx="241.51" cy="273.01" r="3.94"/><circle class="d" cx="252.8" cy="273.27" r="3.94"/><circle class="d" cx="241.51" cy="283.51" r="3.94"/><circle class="d" cx="252.8" cy="283.77" r="3.94"/><circle class="d" cx="264.09" cy="283.51" r="3.94"/><circle class="d" cx="218.94" cy="251.49" r="3.94"/><circle class="d" cx="230.23" cy="251.75" r="3.94"/><circle class="d" cx="218.94" cy="261.99" r="3.94"/><circle class="d" cx="230.23" cy="262.25" r="3.94"/><circle class="d" cx="241.51" cy="251.49" r="3.94"/><circle class="d" cx="241.51" cy="261.99" r="3.94"/><circle class="d" cx="218.94" cy="229.96" r="3.94"/><circle class="d" cx="230.23" cy="230.22" r="3.94"/><circle class="d" cx="218.94" cy="240.46" r="3.94"/><circle class="d" cx="230.23" cy="240.72" r="3.94"/><circle class="d" cx="241.51" cy="240.46" r="3.94"/><circle class="d" cx="218.94" cy="208.43" r="3.94"/><circle class="d" cx="230.23" cy="208.7" r="3.94"/><circle class="d" cx="218.94" cy="218.93" r="3.94"/><circle class="d" cx="230.23" cy="219.2" r="3.94"/><circle class="d" cx="241.51" cy="208.43" r="3.94"/><circle class="d" cx="252.8" cy="208.7" r="3.94"/><circle class="d" cx="241.51" cy="218.93" r="3.94"/><circle class="d" cx="218.94" cy="186.91" r="3.94"/><circle class="d" cx="230.23" cy="187.17" r="3.94"/><circle class="d" cx="218.94" cy="197.41" r="3.94"/><circle class="d" cx="230.23" cy="197.67" r="3.94"/><circle class="d" cx="241.51" cy="186.91" r="3.94"/><circle class="d" cx="252.8" cy="187.17" r="3.94"/><circle class="d" cx="241.51" cy="197.41" r="3.94"/><circle class="d" cx="252.8" cy="197.67" r="3.94"/><circle class="d" cx="218.94" cy="165.38" r="3.94"/><circle class="d" cx="230.23" cy="165.64" r="3.94"/><circle class="d" cx="218.94" cy="175.88" r="3.94"/><circle class="d" cx="230.23" cy="176.15" r="3.94"/><circle class="d" cx="241.51" cy="165.38" r="3.94"/><circle class="d" cx="252.8" cy="165.64" r="3.94"/><circle class="d" cx="241.51" cy="175.88" r="3.94"/><circle class="d" cx="252.8" cy="176.15" r="3.94"/><circle class="d" cx="264.09" cy="165.38" r="3.94"/><circle class="d" cx="264.09" cy="175.88" r="3.94"/><circle class="d" cx="218.94" cy="143.86" r="3.94"/><circle class="d" cx="230.23" cy="144.12" r="3.94"/><circle class="d" cx="218.94" cy="154.36" r="3.94"/><circle class="d" cx="230.23" cy="154.62" r="3.94"/><circle class="d" cx="241.51" cy="143.86" r="3.94"/><circle class="d" cx="252.8" cy="144.12" r="3.94"/><circle class="d" cx="241.51" cy="154.36" r="3.94"/><circle class="d" cx="252.8" cy="154.62" r="3.94"/><circle class="d" cx="264.09" cy="143.86" r="3.94"/><circle class="d" cx="275.38" cy="144.12" r="3.94"/><circle class="d" cx="264.09" cy="154.36" r="3.94"/><circle class="d" cx="275.38" cy="154.62" r="3.94"/><circle class="d" cx="286.67" cy="143.86" r="3.94"/><circle class="d" cx="297.95" cy="144.12" r="3.94"/><circle class="d" cx="286.67" cy="154.36" r="3.94"/><circle class="d" cx="309.24" cy="143.86" r="3.94"/><circle class="d" cx="320.53" cy="144.12" r="3.94"/><circle class="d" cx="218.94" cy="122.33" r="3.94"/><circle class="d" cx="230.23" cy="122.59" r="3.94"/><circle class="d" cx="218.94" cy="132.83" r="3.94"/><circle class="d" cx="230.23" cy="133.09" r="3.94"/><circle class="d" cx="241.51" cy="122.33" r="3.94"/><circle class="d" cx="252.8" cy="122.59" r="3.94"/><circle class="d" cx="241.51" cy="132.83" r="3.94"/><circle class="d" cx="252.8" cy="133.09" r="3.94"/><circle class="d" cx="264.09" cy="122.33" r="3.94"/><circle class="d" cx="275.38" cy="122.59" r="3.94"/><circle class="d" cx="264.09" cy="132.83" r="3.94"/><circle class="d" cx="275.38" cy="133.09" r="3.94"/><circle class="d" cx="286.67" cy="122.33" r="3.94"/><circle class="d" cx="297.95" cy="122.59" r="3.94"/><circle class="d" cx="286.67" cy="132.83" r="3.94"/><circle class="d" cx="297.95" cy="133.09" r="3.94"/><circle class="d" cx="309.24" cy="122.33" r="3.94"/><circle class="d" cx="320.53" cy="122.59" r="3.94"/><circle class="d" cx="309.24" cy="132.83" r="3.94"/><circle class="d" cx="320.53" cy="133.09" r="3.94"/><circle class="d" cx="331.82" cy="122.33" r="3.94"/><circle class="d" cx="343.11" cy="122.59" r="3.94"/><circle class="d" cx="331.82" cy="132.83" r="3.94"/><circle class="d" cx="343.11" cy="133.09" r="3.94"/><circle class="d" cx="354.39" cy="132.83" r="3.94"/><circle class="d" cx="218.94" cy="100.8" r="3.94"/><circle class="d" cx="230.23" cy="101.07" r="3.94"/><circle class="d" cx="218.94" cy="111.3" r="3.94"/><circle class="d" cx="230.23" cy="111.57" r="3.94"/><circle class="d" cx="241.51" cy="100.8" r="3.94"/><circle class="d" cx="252.8" cy="101.07" r="3.94"/><circle class="d" cx="241.51" cy="111.3" r="3.94"/><circle class="d" cx="252.8" cy="111.57" r="3.94"/><circle class="d" cx="264.09" cy="100.8" r="3.94"/><circle class="d" cx="275.38" cy="101.07" r="3.94"/><circle class="d" cx="264.09" cy="111.3" r="3.94"/><circle class="d" cx="275.38" cy="111.57" r="3.94"/><circle class="d" cx="286.67" cy="100.8" r="3.94"/><circle class="d" cx="297.95" cy="101.07" r="3.94"/><circle class="d" cx="286.67" cy="111.3" r="3.94"/><circle class="d" cx="297.95" cy="111.57" r="3.94"/><circle class="d" cx="309.24" cy="100.8" r="3.94"/><circle class="d" cx="320.53" cy="101.07" r="3.94"/><circle class="d" cx="309.24" cy="111.3" r="3.94"/><circle class="d" cx="320.53" cy="111.57" r="3.94"/><circle class="d" cx="331.82" cy="100.8" r="3.94"/><circle class="d" cx="343.11" cy="101.07" r="3.94"/><circle class="d" cx="331.82" cy="111.3" r="3.94"/><circle class="d" cx="218.94" cy="79.28" r="3.94"/><circle class="d" cx="230.23" cy="79.54" r="3.94"/><circle class="d" cx="218.94" cy="89.78" r="3.94"/><circle class="d" cx="230.23" cy="90.04" r="3.94"/><circle class="d" cx="241.51" cy="79.28" r="3.94"/><circle class="d" cx="252.8" cy="79.54" r="3.94"/><circle class="d" cx="241.51" cy="89.78" r="3.94"/><circle class="d" cx="252.8" cy="90.04" r="3.94"/><circle class="d" cx="264.09" cy="79.28" r="3.94"/><circle class="d" cx="264.09" cy="89.78" r="3.94"/><circle class="d" cx="286.67" cy="79.28" r="3.94"/><circle class="d" cx="297.95" cy="79.54" r="3.94"/><circle class="d" cx="286.67" cy="89.78" r="3.94"/><circle class="d" cx="275.38" cy="89.78" r="3.94"/><circle class="d" cx="297.95" cy="90.04" r="3.94"/><circle class="d" cx="309.24" cy="79.28" r="3.94"/><circle class="d" cx="320.53" cy="79.54" r="3.94"/><circle class="d" cx="309.24" cy="89.78" r="3.94"/><circle class="d" cx="320.53" cy="90.04" r="3.94"/><circle class="d" cx="331.82" cy="79.28" r="3.94"/><circle class="d" cx="331.82" cy="89.78" r="3.94"/><circle class="d" cx="343.11" cy="90.04" r="3.94"/><circle class="d" cx="218.94" cy="57.75" r="3.94"/><circle class="d" cx="230.23" cy="58.02" r="3.94"/><circle class="d" cx="218.94" cy="68.25" r="3.94"/><circle class="d" cx="230.23" cy="68.52" r="3.94"/><circle class="d" cx="241.51" cy="57.75" r="3.94"/><circle class="d" cx="241.51" cy="68.25" r="3.94"/><circle class="d" cx="252.8" cy="68.52" r="3.94"/><circle class="d" cx="218.94" cy="36.23" r="3.94"/><circle class="d" cx="230.23" cy="36.49" r="3.94"/><circle class="d" cx="218.94" cy="46.73" r="3.94"/><circle class="d" cx="230.23" cy="46.99" r="3.94"/><circle class="d" cx="241.51" cy="46.73" r="3.94"/><circle class="d" cx="218.94" cy="25.2" r="3.94"/><circle class="d" cx="207.65" cy="273.27" r="3.94"/><circle class="d" cx="207.65" cy="283.77" r="3.94"/><circle class="d" cx="207.65" cy="251.75" r="3.94"/><circle class="d" cx="207.65" cy="262.25" r="3.94"/><circle class="d" cx="207.65" cy="230.22" r="3.94"/><circle class="d" cx="207.65" cy="240.72" r="3.94"/><circle class="d" cx="207.65" cy="208.7" r="3.94"/><circle class="d" cx="207.65" cy="219.2" r="3.94"/><circle class="d" cx="207.65" cy="187.17" r="3.94"/><circle class="d" cx="207.65" cy="197.67" r="3.94"/><circle class="d" cx="207.65" cy="165.64" r="3.94"/><circle class="d" cx="207.65" cy="176.15" r="3.94"/><circle class="d" cx="207.65" cy="144.12" r="3.94"/><circle class="d" cx="207.65" cy="154.62" r="3.94"/><circle class="d" cx="207.65" cy="122.59" r="3.94"/><circle class="d" cx="207.65" cy="133.09" r="3.94"/><circle class="d" cx="207.65" cy="101.07" r="3.94"/><circle class="d" cx="207.65" cy="111.57" r="3.94"/><circle class="d" cx="207.65" cy="79.54" r="3.94"/><circle class="d" cx="207.65" cy="90.04" r="3.94"/><circle class="d" cx="207.65" cy="58.02" r="3.94"/><circle class="d" cx="207.65" cy="68.52" r="3.94"/><circle class="d" cx="207.65" cy="36.49" r="3.94"/><circle class="d" cx="207.65" cy="46.99" r="3.94"/><circle class="d" cx="207.65" cy="14.96" r="3.94"/><circle class="d" cx="207.65" cy="25.46" r="3.94"/></g></g></svg>