<?xml version="1.0" encoding="utf-8"?>
<!-- Generator: Adobe Illustrator 26.1.0, SVG Export Plug-In . SVG Version: 6.00 Build 0)  -->
<svg version="1.1" id="Capa_1" xmlns="http://www.w3.org/2000/svg" xmlns:xlink="http://www.w3.org/1999/xlink" x="0px" y="0px"
	 viewBox="0 0 1109 1034" style="enable-background:new 0 0 1109 1034;" xml:space="preserve">
<style type="text/css">
	.st0{opacity:0.3;fill:#DADAE0;enable-background:new    ;}
	.st1{fill:#484867;}
	.st2{fill:#FDFDFD;}
	.st3{opacity:0.5;fill:#D1D1E6;enable-background:new    ;}
	.st4{opacity:0.2;fill:url(#SVGID_1_);enable-background:new    ;}
	.st5{opacity:0.2;fill:url(#SVGID_00000165230104154977878170000015541935287837033625_);enable-background:new    ;}
	.st6{opacity:0.2;fill:url(#SVGID_00000082335580257646497950000010690061631009722807_);enable-background:new    ;}
	.st7{opacity:0.2;fill:url(#SVGID_00000034788206884668659390000017774156310364967339_);enable-background:new    ;}
	.st8{fill:#E64054;}
	.st9{fill:#F4B799;}
	.st10{fill:#37474F;}
	.st11{fill:#6F6FA5;}
	.st12{fill:#D0D1D8;}
	.st13{fill:#FFCE43;}
	.st14{fill:#FFDC85;}
	.st15{fill:#EAEBF4;}
	.st16{opacity:0.3;}
	.st17{opacity:0.3;enable-background:new    ;}
	.st18{fill:#AF2E23;}
	.st19{fill:#FFFFFF;}
	.st20{opacity:0.1;enable-background:new    ;}
	.st21{fill:#FAA284;}
	.st22{fill:#DBDBDB;}
	.st23{fill:#E8E8E8;}
	.st24{fill:#502F26;}
	.st25{opacity:0.6;enable-background:new    ;}
	.st26{fill:#EA9918;}
	.st27{fill:#FFBB4D;}
	.st28{opacity:0.5;enable-background:new    ;}
	.st29{fill:#E5AE13;}
	.st30{fill:#EDEDED;}
	.st31{fill:#0AAD60;}
	.st32{opacity:0.2;fill:#FFFFFF;enable-background:new    ;}
	.st33{opacity:0.5;}
	.st34{display:none;}
	.st35{display:inline;fill:#E1062B;}
	.st36{fill:#FDFDFD;enable-background:new    ;}
	.st37{font-family:'Montserrat-Bold';}
	.st38{font-size:24px;}
	.st39{display:inline;enable-background:new    ;}
	.st40{fill:#E2032B;}
	.st41{fill:#E2022A;}
	.st42{fill:#1F2933;}
	.st43{fill:#DC1035;}
</style>
<path class="st0" d="M554,1033c170.9,0,309.4-16.4,309.4-36.6c0-20.2-138.5-36.6-309.4-36.6s-309.4,16.4-309.4,36.6
	S383.1,1033,554,1033z"/>
<path class="st1" d="M794,84.4v856.2c0,34.6-28,62.7-62.7,62.7H376.6c-34.6,0-62.7-28.1-62.7-62.7V84.4c0-21.7,11.1-40.9,27.9-52.1
	c10-6.7,21.9-10.5,34.8-10.5h354.8C766,21.7,794,49.8,794,84.4z"/>
<path class="st2" d="M723.6,983.1H384.4c-26.3,0-47.7-21.3-47.7-47.7V92c0-26.3,21.3-47.7,47.7-47.7h339.2
	c26.3,0,47.7,21.3,47.7,47.7v843.4C771.3,961.7,749.9,983.1,723.6,983.1z"/>
<path class="st1" d="M634,74H474c-7.1,0-12.8-5.7-12.8-12.8V34h185.5v27.2C646.7,68.3,641,74,634,74z"/>
<path class="st3" d="M582.5,61.5h-76c-3,0-5.5-2.5-5.5-5.5s2.5-5.5,5.5-5.5h76c3,0,5.5,2.5,5.5,5.5C588,59.1,585.5,61.5,582.5,61.5z
	"/>
<path class="st3" d="M601.5,61.5c3,0,5.5-2.5,5.5-5.5s-2.5-5.5-5.5-5.5S596,53,596,56C596,59.1,598.4,61.5,601.5,61.5z"/>
<linearGradient id="SVGID_1_" gradientUnits="userSpaceOnUse" x1="392.7" y1="499.15" x2="715.3" y2="499.15" gradientTransform="matrix(1 0 0 1 0 -328)">
	<stop  offset="0" style="stop-color:#37355E;stop-opacity:0.8"/>
	<stop  offset="1" style="stop-color:#D1D1E6"/>
</linearGradient>
<path class="st4" d="M715.3,145.5H392.7v51.3h322.6L715.3,145.5L715.3,145.5z"/>
<linearGradient id="SVGID_00000081619808673136326840000007496490766204797842_" gradientUnits="userSpaceOnUse" x1="392.7" y1="556.05" x2="715.3" y2="556.05" gradientTransform="matrix(1 0 0 1 0 -328)">
	<stop  offset="0" style="stop-color:#37355E;stop-opacity:0.8"/>
	<stop  offset="1" style="stop-color:#D1D1E6"/>
</linearGradient>
<path style="opacity:0.2;fill:url(#SVGID_00000081619808673136326840000007496490766204797842_);enable-background:new    ;" d="
	M715.3,215.2H392.7v25.7h322.6L715.3,215.2L715.3,215.2z"/>
<linearGradient id="SVGID_00000152231150322998472030000008838804424310997141_" gradientUnits="userSpaceOnUse" x1="392.7" y1="604.75" x2="715.3" y2="604.75" gradientTransform="matrix(1 0 0 1 0 -328)">
	<stop  offset="0" style="stop-color:#37355E;stop-opacity:0.8"/>
	<stop  offset="1" style="stop-color:#D1D1E6"/>
</linearGradient>
<path style="opacity:0.2;fill:url(#SVGID_00000152231150322998472030000008838804424310997141_);enable-background:new    ;" d="
	M715.3,263.9H392.7v25.7h322.6L715.3,263.9L715.3,263.9z"/>
<linearGradient id="SVGID_00000080206280427466332050000009422325426232485796_" gradientUnits="userSpaceOnUse" x1="392.7" y1="1214.4" x2="715.3" y2="1214.4" gradientTransform="matrix(1 0 0 1 0 -328)">
	<stop  offset="0" style="stop-color:#37355E;stop-opacity:0.8"/>
	<stop  offset="1" style="stop-color:#D1D1E6"/>
</linearGradient>
<path style="opacity:0.2;fill:url(#SVGID_00000080206280427466332050000009422325426232485796_);enable-background:new    ;" d="
	M715.3,865.9H392.7v41h322.6L715.3,865.9L715.3,865.9z"/>
<path class="st8" d="M142.7,251.1c0,0,34.4-13.5,46.7,30.9c12.3,44.4,24.2,53.5,35.7,60.7c11.5,7.1,12.5,65.3-84.8,65.2
	c-97.8-0.1-103.2-43-78.6-70.7s32.9-56.7,34.1-67.8C96.9,258.3,113.8,239.3,142.7,251.1z"/>
<path class="st9" d="M201.2,404.1c-0.3-0.3-0.5-0.5-0.5-0.6c-3.4-3.2-7.9-5-12.6-4.8c-4.7,0.1-9.1,2.1-12.3,5.5
	c-6.3,6.6-6.4,17.2-0.3,23.9c0.3,0.3,0.6,0.7,1,1l66.1,68.3l0.1,0.1c6.1,5.6,16.2,5.2,21.9-0.9c5.4-5.8,6-15,0.7-20.9
	c0-0.2-0.8-0.3-1-0.5C261.9,472.7,206.4,409.9,201.2,404.1z"/>
<path class="st9" d="M264,496.6c-0.2,0.2-0.7,0.6-0.7,0.6l-0.1,0.1c-6.3,5.5-15.9,4.9-21.5-1.3c-5.6-6.2-5-16,1-21.8
	c1.4-1.8,18.7-17.6,61.8-53.1l12.6,15.5C304.3,452.8,281.6,483.4,264,496.6z"/>
<path class="st10" d="M148.1,765c0-0.1,0-0.8,0-0.8c-1.6-46.7-0.4-155.6-0.4-155.8c-0.5-17,12.9-31.2,29.9-31.6
	c17-0.5,31,12.7,31.5,29.7c0,0.2,0,0.5,0,0.5c-4.9,49.9-10.3,88-22.2,161.8l-0.1,0.7c-1.3,9.2-9.1,16.6-18.8,16.8
	c-10.7,0.3-19.7-8.1-20-18.9C148,766.5,148,765.8,148.1,765z"/>
<path class="st9" d="M176.1,924.6l-22,0.2c-0.7-7.1-1.9-26-3.2-35.7h26.5C176.8,898.9,176.4,917.2,176.1,924.6z"/>
<path class="st10" d="M148,765.2c0,0,0.2-0.7,0.2-1c1.3-9.3,9.1-16.5,18.8-16.8c10.7-0.3,19.7,8.2,20,18.9c0,1.1-0.4,4.9-0.5,5.6
	c-2.7,14.1-6.9,73.9-9.1,117.2h-26.5c-1.7-13.3-3.5-24.9-4.5-30.4C135.2,797.1,147.7,767.2,148,765.2z"/>
<path class="st11" d="M177.5,880.8c0,0,2.4,0.5,1.7,4.1c-0.6,3.6,0.7,6.4-0.8,7.8c-1.5,1.4-13.8,4.9-28.3,0c0,0-2.1-1.1-1-6.3
	c0.5-2.1-2-4.5,0.4-6.8C149.5,879.5,162.7,885.1,177.5,880.8z"/>
<path class="st10" d="M74.2,762.1c0-0.1,0.1-0.8,0.1-0.8c0.8-46.7,7.4-155.4,7.4-155.6c0.4-17,14.5-30.5,31.5-30.1
	s30.4,14.6,30,31.5c0,0.2,0,0.6,0,0.6l0,0c-7.4,49.6-14.9,87.2-30.5,160.3l-0.1,0.6c-1.8,9.1-9.9,16-19.6,15.8
	c-10.7-0.3-19.3-9.1-19-19.9C74,763.7,74.1,762.9,74.2,762.1z"/>
<path class="st10" d="M74.1,762.4c0,0,0.2-0.7,0.3-1c1.7-9.2,9.9-16,19.6-15.8c10.8,0.3,19.3,9.2,19,19.9c0,1.1-0.7,4.9-0.8,5.5
	c-3.5,14.1-10.6,75.8-14.9,118.9l-26.5-2.7c-1-13.4-2.2-25.8-3-31.4C59.6,793.6,73.6,764.3,74.1,762.4z"/>
<path class="st9" d="M93.9,924.1l-22.4,1.3c-0.3-7,0.1-29.2-0.8-38.2l26.5,2.7C96.2,899.6,94.5,917,93.9,924.1z"/>
<path class="st11" d="M98.1,880.9c0,0,2.4,0.6,1.5,4.2c-0.9,3.6,0.3,6.4-1.2,7.7c-1.6,1.3-14.1,4.1-28.3-1.7c0,0-2.1-1.2-0.6-6.4
	c0.6-2.1-1.7-4.6,0.8-6.8C70.3,878.1,83.1,884.4,98.1,880.9z"/>
<path class="st9" d="M180.9,926.2c0,0-3-4.8-15.1-4.8s-13.1,4.9-13.1,4.9v6.2h28.1L180.9,926.2z"/>
<path class="st12" d="M227.9,950.2h-81.4v6.2h81.4V950.2z"/>
<path class="st13" d="M227.3,950.2c0,0,3.8-14.5-23.3-12.2l-23-16.1c0,0-1.8-1.5-3.5,0c-1.7,1.6-7.7,7.3-15.1,6.4
	c-7.4-1-7.5-5.7-10.1-5.3s-6.9,12.2-6.2,27.2L227.3,950.2L227.3,950.2z"/>
<path class="st14" d="M204,937.8c27-2.3,23.3,12.4,23.3,12.4h-25.5C201.7,941.4,204,937.8,204,937.8z"/>
<path class="st15" d="M194.2,939.8c0.3,0,0.6-0.2,0.8-0.5c1.8-2.8,4.1-4.2,4.1-4.2c0.5-0.3,0.6-0.9,0.4-1.3
	c-0.3-0.5-0.9-0.6-1.3-0.4c-0.1,0.1-2.8,1.6-4.8,4.9c-0.3,0.5-0.1,1,0.3,1.3C193.9,939.8,194,939.8,194.2,939.8z"/>
<path class="st15" d="M190.3,937c0.3,0,0.6-0.2,0.8-0.5c1.8-2.8,4.1-4.2,4.1-4.2c0.5-0.3,0.6-0.9,0.4-1.3c-0.3-0.5-0.9-0.6-1.3-0.4
	c-0.1,0.1-2.8,1.6-4.8,4.9c-0.3,0.5-0.1,1,0.3,1.3C189.9,937,190.1,937,190.3,937z"/>
<path class="st15" d="M186.3,934.2c0.3,0,0.6-0.2,0.8-0.5c1.8-2.8,4.1-4.2,4.1-4.2c0.5-0.3,0.6-0.9,0.4-1.3
	c-0.3-0.5-0.9-0.6-1.3-0.4c-0.1,0.1-2.8,1.6-4.8,4.9c-0.3,0.5-0.1,1.1,0.3,1.3C186,934.2,186.2,934.2,186.3,934.2z"/>
<path class="st15" d="M182.4,931.4c0.3,0,0.6-0.2,0.8-0.5c1.8-2.8,4.1-4.2,4.1-4.2c0.5-0.3,0.6-0.9,0.4-1.3
	c-0.3-0.5-0.9-0.6-1.3-0.4c-0.1,0.1-2.8,1.6-4.8,4.9c-0.3,0.5-0.1,1.1,0.3,1.3C182,931.4,182.2,931.4,182.4,931.4z"/>
<path class="st9" d="M98.5,926.2c0,0-2.9-4.8-15-4.8s-13.1,4.9-13.1,4.9v6.2h28L98.5,926.2z"/>
<path class="st12" d="M118.2,950.2H66.8v6.2h51.3L118.2,950.2L118.2,950.2z"/>
<path class="st13" d="M117.3,950.2c0,0,2.3-10-7.8-12.2l-12.4-16.2c0,0-4.6-4.3-11.6,0.1c-1.6,1-5.4,7.4-10,6.4
	c-4.7-1-3.2-5.7-4.9-5.4c-1.7,0.4-4.4,10.5-3.9,27.4L117.3,950.2L117.3,950.2z"/>
<path class="st14" d="M109.4,937.8c10.1,2.3,7.8,12.5,7.8,12.5H90.6C91.3,935.2,109.4,937.8,109.4,937.8z"/>
<path class="st15" d="M95.7,936.9c0.1,0,0.3,0,0.4-0.1c6.1-2.7,10.1-1.5,10.2-1.5c0.5,0.2,1.1-0.1,1.2-0.6c0.2-0.5-0.1-1.1-0.6-1.2
	c-0.2-0.1-4.7-1.5-11.6,1.6c-0.5,0.2-0.7,0.8-0.5,1.3C94.9,936.7,95.3,936.9,95.7,936.9z"/>
<path class="st15" d="M93.2,933.5c0.1,0,0.3,0,0.4-0.1c6.1-2.7,10.1-1.5,10.2-1.5c0.5,0.2,1.1-0.1,1.2-0.6c0.2-0.5-0.1-1.1-0.6-1.2
	c-0.2-0.1-4.7-1.5-11.6,1.6c-0.5,0.2-0.7,0.8-0.5,1.3C92.5,933.3,92.9,933.5,93.2,933.5z"/>
<path class="st15" d="M91.3,930.8c0.1,0,0.3,0,0.4-0.1c6.1-2.9,10.1-1.8,10.1-1.8c0.5,0.1,1.1-0.1,1.2-0.7c0.2-0.5-0.1-1.1-0.7-1.2
	c-0.2-0.1-4.8-1.3-11.5,1.9c-0.5,0.2-0.7,0.8-0.5,1.3C90.6,930.6,90.9,930.8,91.3,930.8z"/>
<path class="st15" d="M88.9,927.5c0.1,0,0.3,0,0.4-0.1c6-3,10-2,10.1-1.9c0.5,0.1,1.1-0.2,1.2-0.7s-0.2-1.1-0.7-1.2
	c-0.2-0.1-4.8-1.3-11.5,2.1c-0.5,0.2-0.7,0.8-0.4,1.3C88.2,927.2,88.5,927.5,88.9,927.5z"/>
<path class="st10" d="M81.4,605.2c0-1.1,0.2-3.3,0.3-4.1c0.1-1,0.3-2,0.5-2.9c6.4-35.1,24.8-65.6,24.8-65.6l77.9,0.4
	c0,0,20.8,23.9,24.1,64.8c0.2,1.6,0,8.6,0,8.6c-0.5,15.7-12.2,27.7-27.2,29.3l-70.2,0.1C95,635.3,81.6,621.9,81.4,605.2z"/>
<g class="st16">
	<g class="st16">
		<path class="st17" d="M144.5,634.6c0.3,0,0.7-0.2,0.8-0.5c0-0.1,3.9-9.1,8.6-28.2c4.7-19.2,0.2-62.1,0-63.9
			c-0.1-0.5-0.5-0.8-1-0.8c-0.5,0.1-0.8,0.5-0.8,1c0,0.4,4.7,44.4,0,63.3c-4.6,18.9-8.5,27.8-8.5,27.9c-0.2,0.4,0,1,0.5,1.2
			C144.3,634.6,144.4,634.6,144.5,634.6z"/>
	</g>
	<g class="st16">
		<path class="st17" d="M152.5,618.5h0.1c8.9-1.3,12-11.9,12.2-12.4c5.8-17.9,0.1-63.3-0.2-65.2c-0.1-0.5-0.5-0.8-1-0.8
			c-0.5,0.1-0.8,0.5-0.8,1c0.1,0.5,6,46.9,0.3,64.4c0,0.1-3,10-10.7,11.1c-0.5,0.1-0.8,0.5-0.7,1
			C151.7,618.2,152.1,618.5,152.5,618.5z"/>
	</g>
	<g class="st16">
		<path class="st17" d="M149.8,555.6c25.6,0,40.9-7.9,41.1-8c0.4-0.2,0.6-0.8,0.4-1.2c-0.2-0.4-0.8-0.6-1.2-0.4
			c-0.3,0.2-33.9,17.5-85.6-0.1c-0.5-0.2-1,0.1-1.1,0.6c-0.2,0.5,0.1,1,0.6,1.1C121.5,553.6,137,555.6,149.8,555.6z"/>
	</g>
	<path class="st17" d="M159.5,550.9c2,0,3.7-1.6,3.7-3.7c0-2-1.6-3.7-3.7-3.7s-3.7,1.6-3.7,3.7C155.8,549.2,157.5,550.9,159.5,550.9
		z"/>
	<path class="st17" d="M123,554.7c0,0-0.2,25.2-26.2,24.6c0,0,4.5-18.8,10.3-28.4C107.1,550.9,118.1,554.5,123,554.7z"/>
	<path class="st17" d="M188.4,550.8c0,0,2.8,14.2,14,17.7c0,0-4.5-14-8.3-20.5C194,547.9,191.5,549.4,188.4,550.8z"/>
	<g class="st16">
		<path class="st17" d="M97.7,585.6c9.4,0,16.9-2.6,22.3-7.9c9.5-9,9.4-22.5,9.4-23s-0.4-0.9-0.9-0.9l0,0c-0.5,0-0.9,0.4-0.9,0.9
			c0,0.1,0.1,13.2-8.8,21.7c-5.7,5.4-13.8,7.9-24.1,7.3c-0.5,0-0.9,0.3-0.9,0.8s0.3,0.9,0.8,0.9C95.7,585.6,96.7,585.6,97.7,585.6z"
			/>
	</g>
	<g class="st16">
		<path class="st17" d="M203.4,574c0.4,0,0.8-0.3,0.9-0.7c0.1-0.5-0.2-1-0.6-1.1c-16.1-4.1-18.5-20.4-18.5-20.6
			c-0.1-0.5-0.5-0.8-1-0.8c-0.5,0.1-0.8,0.5-0.8,1c0,0.2,2.6,17.7,19.8,22.1C203.3,574,203.4,574,203.4,574z"/>
	</g>
	<g class="st16">
		<g class="st16">
			<path class="st17" d="M140.2,633c0.2,0,0.3,0,0.5-0.1c0.4-0.3,0.5-0.8,0.3-1.2c-0.1-0.1-8.1-12.5-19.8-20.8
				c-0.4-0.3-0.9-0.2-1.2,0.2c-0.3,0.4-0.2,1,0.2,1.2c11.4,8.1,19.3,20.2,19.4,20.3C139.6,632.8,139.9,633,140.2,633z"/>
		</g>
		<g class="st16">
			<path class="st17" d="M135,631.2c0.3,0,0.5-0.1,0.7-0.3c0.3-0.4,0.3-0.9-0.1-1.2c-0.2-0.1-15.4-12.5-34.9-16
				c-0.5-0.1-0.9,0.2-1,0.7s0.2,0.9,0.7,1c19,3.5,34,15.5,34.1,15.6C134.6,631.1,134.8,631.2,135,631.2z"/>
		</g>
		<g class="st16">
			<path class="st17" d="M135.8,634.6c0.4,0,0.8-0.3,0.9-0.7c0.1-0.5-0.2-0.9-0.7-1c-0.8-0.2-19.3-3.8-29.1-1.7
				c-0.5,0.1-0.8,0.6-0.7,1.1c0.1,0.5,0.6,0.8,1.1,0.7c9.4-2,28.2,1.6,28.4,1.7C135.7,634.6,135.8,634.6,135.8,634.6z"/>
		</g>
	</g>
	<g class="st16">
		<g class="st16">
			<path class="st17" d="M155.3,633c0.3,0,0.6-0.1,0.7-0.4c0.1-0.1,7.9-12.2,19.4-20.3c0.4-0.3,0.5-0.8,0.2-1.2s-0.8-0.5-1.2-0.2
				c-11.7,8.3-19.8,20.7-19.8,20.8c-0.3,0.4-0.1,1,0.3,1.2C155,632.9,155.1,633,155.3,633z"/>
		</g>
		<g class="st16">
			<path class="st17" d="M160.5,631.2c0.2,0,0.4-0.1,0.6-0.2c0.1-0.1,15.1-12.2,34.1-15.6c0.5-0.1,0.8-0.5,0.7-1s-0.6-0.8-1-0.7
				c-19.5,3.5-34.8,15.9-34.9,16c-0.4,0.3-0.4,0.9-0.1,1.2C160,631.1,160.3,631.2,160.5,631.2z"/>
		</g>
		<g class="st16">
			<path class="st17" d="M159.7,634.6c0.1,0,0.1,0,0.2,0c0.2,0,19-3.7,28.4-1.7c0.5,0.1,0.9-0.2,1.1-0.7c0.1-0.5-0.2-0.9-0.7-1.1
				c-9.8-2.1-28.3,1.5-29.1,1.7c-0.5,0.1-0.8,0.6-0.7,1C158.9,634.3,159.2,634.6,159.7,634.6z"/>
		</g>
	</g>
</g>
<path class="st9" d="M153.4,382l0.1,21.9l-26.8,0.1l-0.1-28.5C137.8,382.8,148.9,382.6,153.4,382z"/>
<path class="st9" d="M126.6,375.5l-0.1-21.9l26.8-0.1l0.1,28.5C148.9,382.6,137.8,382.8,126.6,375.5z"/>
<path class="st17" d="M126.4,375.5l-0.1-21.9l26.8-0.1l0.1,28.5C148.7,382.6,137.6,382.8,126.4,375.5z"/>
<path class="st9" d="M143.9,399.7c-9.6,0.2-17.4-5.6-19.8-8.5c5.2-0.9,13-2.8,17.5-2.8c4.3,0,10.7,1.4,15.1,2.2
	C156.5,392.7,154.2,399.5,143.9,399.7z"/>
<path class="st18" d="M73.9,410.5c0-10.4,14.7-12.5,14.7-12.5c7.6-1.4,20-3.3,28.1-5.2c0,0,3.8-0.9,8.8-1.7
	c2.4,2.9,8.7,7.8,18.3,7.5c10.3-0.2,11.7-5.9,11.9-8c4.7,0.8,8.3,1.7,8.3,1.7c14.4,3,25.9,5.8,25.9,5.8s15.1,2.1,15.1,12.5
	c0,4.7-9.8,11.6-14.2,14v1.1c14.2,11.1,16,19.4,16,28.8c0,19.8-16.7,24.6-16.7,24.6l-4.9,54c-30.9,16.2-78-0.4-78-0.4
	c-5.1-34.9-13.1-57.3-16.8-79.5c-1.5-9.3-2.2-19.7-2.3-28.9C83.2,421.5,73.9,415,73.9,410.5z"/>
<path class="st18" d="M202.4,558.2c0,0,2.9,8.3,4.1,15.8c0,0-41.3,19.1-119.3,0l5.2-15.8H202.4z"/>
<path class="st19" d="M145.4,405.9c-16.5,0.4-26.3-7.2-29.7-12.9c0.3-0.1,0.6-0.1,0.9-0.2c0,0,3.8-0.9,8.8-1.7
	c2.4,2.9,8.7,7.8,18.3,7.5c10.3-0.2,11.7-5.9,11.9-8c4.3,0.8,7.7,1.5,8.2,1.7C162.9,397,159.1,405.5,145.4,405.9z"/>
<path class="st20" d="M201.9,462.9c0,0-3.5,3-11.1,3.6c-15.4,1.3-40.6,4.1-62.8,0.5c-9.3-1.5-16.2-6.2-23.2-11.7
	c0,0,4.2,23.9,33.4,23.4C167.4,478.3,200.1,481.9,201.9,462.9z"/>
<path class="st9" d="M70.7,591.5c0,0,11.5,8.2,12.5,12.4s4.2,13.9,4.2,16c0,5,2.5,11.5,1.1,12c-1.3,0.5-3.9,1.7-7-8l0.9,11.3
	c0,0,0.6,4.1-2.6,4.5c-3.5,0.4-3.8-2.8-3.8-2.8l-1.4-4.1c0,0-0.6,2.1-3.3,2c-2.8-0.1-3.7-5-3.7-5s-1.2,2.3-3.7,1.8
	c-2.5-0.5-3.2-2.6-3.2-2.6s-1.5,1-2.8,0.5c-2-0.8-3.3-5.3-3.3-5.3s-2.3-12.9,0.5-28C55.1,596,58.8,581.2,70.7,591.5z"/>
<path class="st17" d="M57.9,629.3c1.2,0.5,2.8-0.5,2.8-0.5s0.7,2.1,3.2,2.6s3.7-1.8,3.7-1.8s0.9,4.8,3.7,5c2.7,0.1,3.3-2,3.3-2
	l1.4,4.1c0,0,0.4,3.2,3.7,2.9c3.2-0.3,2.8-4.5,2.8-4.5L81.6,624c0-0.1-1.4-9.5-2-9.8l1,11.2c0,0-1.7,4.9-5.8,3c0,0-3.4,2.7-6.9-0.4
	c0,0-4.8,1.9-7.1-1.3c0,0-4.2,1.7-6.1-3.1c0,0.3,0.1,0.5,0.1,0.5S56,628.5,57.9,629.3z"/>
<path class="st9" d="M47.5,514.2c0-0.2,0-0.9,0-0.9v-0.2c0.1-8.3,7-15.1,15.3-15.1c8.4,0,15.3,7,15.6,15.3c0.4,2.3-0.5,26.1-3,81.8
	l-20.6,3.3C51.3,578.1,45.6,536.1,47.5,514.2z"/>
<path class="st9" d="M62.3,528.6c7.1,0,13.4-5,15-12c6.3-21.3,26.9-90.2,27.2-91.5c1.9-9.6-4.3-18.9-13.9-20.8
	c-1.1-0.2-2.3-0.3-3.5-0.3c-8.4,0-15.6,6-17.3,14.2l-22.6,92.3v0.1c-1.5,8.2,4,16.1,12.1,17.7C60.3,528.5,61.3,528.6,62.3,528.6z"/>
<path class="st18" d="M97.9,487.1c0,0,0.8,57.5-10.7,87l116.1-12.9c0,0-13.7-37.4-14-74.2L97.9,487.1z"/>
<path class="st18" d="M89.7,397.8c0,0-32.8,1.9-34,58.2l44.1,5.8C99.8,461.8,126.5,411.5,89.7,397.8z"/>
<path class="st18" d="M176.3,405.6c0,0-16.5,28.4,29.7,60.5l25.9-29.8C232,436.3,208.1,382.5,176.3,405.6z"/>
<path class="st9" d="M102.7,327c5,0,9.1-4.1,9.1-9.1s-4.1-9.1-9.1-9.1s-9.1,4.1-9.1,9.1S97.7,327,102.7,327z"/>
<path class="st9" d="M178.8,327c5,0,9.1-4.1,9.1-9.1s-4.1-9.1-9.1-9.1s-9.1,4.1-9.1,9.1S173.8,327,178.8,327z"/>
<path class="st9" d="M165.5,276.3c-19.1-21.3-54.6-11.4-60.6,16.5c-2.7,12.6-4.4,28.2-1.6,43.7c6.3,35.1,28.9,49.4,53.6,37.2
	c24.6-12.2,25.7-62.3,17-84.1C171.8,284.7,169,280.2,165.5,276.3z"/>
<path class="st9" d="M300.7,426.5c0,0-0.6-7.4,1.4-13c0.8-2.1,0.7-9.9-1.4-14.1c-2-4-3.8-4.9-2.7-5.9c2.7-2.6,7-3,13.2,12.2l9.8-6.1
	c0,0,3.5-2.1,5.6,0.3c1.9,2.2,0,4.2,0,4.2s3.2-1,4.8,1.1c1.6,2.3-0.2,4.8-0.2,4.8s1.6-0.1,3,2.3c1.1,2,0,4.1,0,4.1s1,1.1,1.4,2.4
	c0.6,2-0.7,4.7-0.7,4.7s-6.5,8.1-19.9,15.4C314.8,439.1,298.1,444.2,300.7,426.5z"/>
<path class="st17" d="M311.2,406.5l9.8-5.8c0,0-5.5,4.8-7.1,6.6c-1.6,1.8,0,3.9,0,3.9s0,0.1,0.1,0.2l0,0c1.1,1.5,3.6-0.1,3.6-0.1
	l8.9-7c0,0-6.3,5.4-8.7,7.4c-2.4,2-1.4,3.7-1.4,3.7l0,0c0.2,0.3,0.4,0.7,0.6,1c1.4,1.7,3.7,0.5,3.7,0.5l10.4-6.6c0,0-7.7,5.7-10,7.1
	s-1,3.6-1,3.7s0.1,0.1,0.1,0.2c1.3,1.8,3.4,1.2,3.4,1.2l10.4-5.8c0,0-8.5,5.2-9.9,6.2c-1.5,1-0.8,2.6-0.8,2.6
	c0.3,0.4,0.5,0.7,0.7,0.9c1.6,2.1,10.3-3.2,10.3-3.2c-1.1,1.8-7.2,6.3-7.2,6.3c-7.8-6.7-15.3-4-15.3-4
	C316.8,416.9,311.2,406.5,311.2,406.5z"/>
<path class="st8" d="M180.8,303.8c0,0-39.1-19.8-41-42.1C139.8,261.7,182.7,252,180.8,303.8z"/>
<path class="st8" d="M148.8,264.2c0,0-4,19.6-23.8,26c0,0,2-5.1,2-10.3c0,0-7.3,17-26.1,17.6C100.9,297.6,97.9,253,148.8,264.2z"/>
<path class="st0" d="M143.2,971.1c79.1,0,143.2-7.6,143.2-16.9c0-9.4-64.1-16.9-143.2-16.9C64.1,937.3,0,944.8,0,954.2
	C0,963.5,64.1,971.1,143.2,971.1z"/>
<path class="st0" d="M948.3,972.5c79.1,0,143.2-7.6,143.2-16.9c0-9.4-64.1-16.9-143.2-16.9s-143.2,7.6-143.2,16.9
	S869.2,972.5,948.3,972.5z"/>
<path class="st21" d="M941.5,898.3h-25.2v28.6h25.2V898.3z"/>
<path class="st10" d="M945.8,777.3c-0.3-13-10.7-21.7-21.7-21.7c-11.5,0-21.7,9.4-21.7,21.7c-0.2,6,12.9,133.7,12.9,133.7
	c12.7,0,12.3-1,27.5-0.9L945.8,777.3z"/>
<path class="st10" d="M942.9,614.2c0-13-10.6-23.6-23.6-23.6s-23.6,10.6-23.6,23.6c0,0.3,6.5,157.1,6.8,163.1
	c0.3,13.7,11.4,21.7,21.7,21.7c11.2,0,22.2-9.3,21.7-22.5L942.9,614.2z"/>
<path class="st21" d="M911.9,924.3c0,0,3.5-5.4,17.2-5.4s15,5.7,15,5.7v6.7H912L911.9,924.3z"/>
<path class="st22" d="M951.1,952.1h-92v6.9h92V952.1z"/>
<path class="st13" d="M859.4,952.1c0,0-4.3-16.6,26.3-14l26-18.3c0,0,2-1.8,4,0c1.9,1.8,8.7,8.2,17,7.2c8.3-1.1,8.5-6.2,11.5-5.8
	c2.9,0.4,7.8,13.6,7,31L859.4,952.1L859.4,952.1z"/>
<path class="st14" d="M885.7,938.1c-30.5-2.5-26.3,14-26.3,14h28.8C888.3,941.7,885.7,938.1,885.7,938.1z"/>
<path class="st23" d="M901.2,936.7c-0.4,0-0.7-0.2-0.9-0.5c-2-3.2-4.6-4.7-4.7-4.7c-0.5-0.3-0.7-1-0.4-1.5s1-0.7,1.5-0.4
	c0.1,0.1,3.2,1.8,5.4,5.5c0.3,0.5,0.2,1.2-0.4,1.5C901.6,936.7,901.4,936.7,901.2,936.7z"/>
<path class="st23" d="M905.7,933.6c-0.4,0-0.7-0.2-0.9-0.5c-2-3.2-4.6-4.7-4.7-4.7c-0.5-0.3-0.7-1-0.4-1.5s1-0.7,1.5-0.4
	c0.1,0.1,3.2,1.8,5.4,5.5c0.3,0.5,0.2,1.2-0.4,1.5C906.1,933.5,905.9,933.6,905.7,933.6z"/>
<path class="st23" d="M910.1,930.4c-0.4,0-0.7-0.2-0.9-0.5c-2-3.2-4.6-4.7-4.7-4.7c-0.5-0.3-0.7-1-0.4-1.5s1-0.7,1.5-0.4
	c0.1,0.1,3.2,1.8,5.4,5.5c0.3,0.5,0.2,1.2-0.4,1.5C910.5,930.4,910.3,930.4,910.1,930.4z"/>
<path class="st21" d="M1016.7,897.7l-25.2,0.7l0.8,28.6l25.2-0.7L1016.7,897.7z"/>
<path class="st10" d="M1017.5,776.6c-0.7-13-11.3-21.4-22.3-21c-11.5,0.3-21.4,10-21,22.3c0,6,17.4,133,17.4,133
	c12-1.1,11.8-1.1,26-2.6L1017.5,776.6z"/>
<path class="st10" d="M1009.9,613.6c-0.4-13-11.2-23.3-24.3-22.9c-13,0.4-23.3,11.2-22.9,24.3c0,0.3,11,156.9,11.4,162.9
	c0.7,13.7,12,21.3,22.3,21c11.2-0.3,21.9-9.9,21-23.1L1009.9,613.6z"/>
<path class="st21" d="M986.5,924.3c0,0,3.5-5.4,17.2-5.4s15,5.7,15,5.7v6.7h-32.1L986.5,924.3z"/>
<path class="st23" d="M1026.6,952.1h-85v6.9h85V952.1z"/>
<path class="st13" d="M951,952.1c0,0-1.6-14,16.1-14.4l21.4-18.8c0,0,3.9-2.9,8.9,0c3.8,2.2,4.3,8.4,11.2,7.3c6.8-1.1,7-6.3,9.4-5.9
	c2.4,0.4,9.2,12.7,8.5,31.7L951,952.1L951,952.1z"/>
<path class="st14" d="M957.6,937.8c-17.7,0.4-16.1,14.3-16.1,14.3h29.6C971.2,938.2,957.6,937.8,957.6,937.8z"/>
<path class="st19" d="M985.1,936c-0.3,0-0.6-0.1-0.8-0.4c-3.9-4.2-9.4-4.3-9.4-4.3c-0.6,0-1.1-0.3-1.1-0.9c0-0.6,0.5-0.9,1.1-0.9
	l0,0c0.3,0,6.5-0.1,11,4.8c0.4,0.4,0.4,1.1-0.1,1.5C985.6,936,985.3,936,985.1,936z"/>
<path class="st19" d="M989.5,932.1c-0.3,0-0.6-0.1-0.8-0.4c-3.9-4.2-9.4-4.3-9.4-4.3c-0.6,0-1.1-0.5-1.1-1.2c0-0.6,0.5-1.1,1.1-1.1
	l0,0c0.3,0,6.5,0.2,11,5c0.4,0.5,0.4,1.2-0.1,1.6C990.1,932,989.8,932.1,989.5,932.1z"/>
<path class="st19" d="M994,928.2c-0.3,0-0.6-0.1-0.8-0.4c-3.9-4.2-9.4-4.3-9.4-4.3c-0.6,0-1.1-0.3-1.1-0.9c0-0.6,0.5-0.9,1.1-0.9
	l0,0c0.3,0,6.5-0.1,11,4.8c0.4,0.4,0.4,1.1-0.1,1.5C994.5,928.2,994.3,928.2,994,928.2z"/>
<path class="st10" d="M1010.1,577.3H895.5l0.4,40.5c0.3,14.7,12.3,26.6,27,27.2l60.2,0.4c15-0.4,27-12.9,27-28
	C1010.1,616.6,1010.1,577.3,1010.1,577.3z"/>
<path class="st11" d="M1020.8,909.2c-0.9,0-34.3,1.8-34.3,1.8l-2.3-18.4h38.1L1020.8,909.2z"/>
<path class="st11" d="M946.5,910.9c-0.9,0-34.3,1.8-34.3,1.8l-2.3-18.4H948L946.5,910.9z"/>
<g class="st16">
	<g class="st16">
		<path class="st17" d="M956.5,644c-0.3,0-0.6-0.2-0.7-0.4c0-0.1-3.3-7.6-7.2-23.5c-3.9-16-0.2-51.8,0-53.3c0-0.4,0.4-0.7,0.8-0.7
			c0.4,0,0.7,0.4,0.7,0.8c0,0.4-3.9,37,0,52.8s7.1,23.2,7.1,23.3c0.2,0.4,0,0.8-0.4,1C956.7,644,956.6,644,956.5,644z"/>
	</g>
	<g class="st16">
		<path class="st17" d="M949.9,630.5L949.9,630.5c-7.5-1.1-10.1-9.9-10.2-10.3c-4.9-14.9,0-52.8,0.2-54.4c0.1-0.4,0.4-0.7,0.8-0.6
			c0.4,0.1,0.7,0.4,0.6,0.8c-0.1,0.4-5,39.1-0.2,53.7c0,0.1,2.5,8.3,8.9,9.3c0.4,0.1,0.7,0.4,0.6,0.8
			C950.6,630.2,950.3,630.5,949.9,630.5z"/>
	</g>
	<g class="st16">
		<path class="st17" d="M952.1,578c-21.4,0-34.1-6.6-34.3-6.7c-0.4-0.2-0.5-0.6-0.3-1s0.6-0.5,1-0.3c0.3,0.1,28.3,14.6,71.4,0
			c0.4-0.1,0.8,0.1,0.9,0.5c0.1,0.4-0.1,0.8-0.5,0.9C975.8,576.4,962.9,578,952.1,578z"/>
	</g>
	<path class="st17" d="M944.1,574.1c1.7,0,3-1.4,3-3s-1.4-3-3-3c-1.7,0-3,1.4-3,3S942.4,574.1,944.1,574.1z"/>
	<path class="st17" d="M974.5,577.4c0,0,0.2,21.1,21.9,20.5c0,0-3.8-15.7-8.6-23.7C987.8,574.1,978.6,577.2,974.5,577.4z"/>
	<path class="st17" d="M920,574c0,0-2.3,11.8-11.7,14.8c0,0,3.8-11.7,7-17.1C915.3,571.7,917.4,572.9,920,574z"/>
	<g class="st16">
		<path class="st17" d="M995.6,603.1c-7.8,0-14.1-2.2-18.6-6.6c-7.9-7.5-7.8-18.7-7.8-19.2c0-0.4,0.3-0.8,0.7-0.8l0,0
			c0.4,0,0.7,0.4,0.7,0.8c0,0.1-0.1,11,7.4,18.1c4.7,4.5,11.5,6.6,20.1,6.1c0.4,0,0.8,0.3,0.8,0.7s-0.3,0.8-0.7,0.8
			C997.3,603.1,996.4,603.1,995.6,603.1z"/>
	</g>
	<g class="st16">
		<path class="st17" d="M907.4,593.4c-0.3,0-0.6-0.2-0.7-0.6c-0.1-0.4,0.1-0.8,0.5-0.9c13.4-3.4,15.4-17.1,15.4-17.2
			c0.1-0.4,0.4-0.7,0.8-0.6c0.4,0.1,0.7,0.4,0.6,0.8C924,575,921.8,589.6,907.4,593.4C907.5,593.4,907.5,593.4,907.4,593.4z"/>
	</g>
	<g class="st16">
		<g class="st16">
			<path class="st17" d="M960.2,642.6c-0.1,0-0.3,0-0.4-0.1c-0.3-0.2-0.4-0.7-0.2-1c0.1-0.1,6.8-10.4,16.5-17.4
				c0.3-0.2,0.8-0.2,1,0.2c0.2,0.3,0.2,0.8-0.2,1c-9.5,6.8-16.1,16.9-16.2,17C960.7,642.5,960.4,642.6,960.2,642.6z"/>
		</g>
		<g class="st16">
			<path class="st17" d="M964.5,641.1c-0.2,0-0.4-0.1-0.6-0.3c-0.3-0.3-0.2-0.8,0.1-1c0.1-0.1,12.9-10.4,29.1-13.4
				c0.4-0.1,0.8,0.2,0.9,0.6c0.1,0.4-0.2,0.8-0.6,0.9c-15.9,2.9-28.3,12.9-28.5,13C964.9,641.1,964.7,641.1,964.5,641.1z"/>
		</g>
		<g class="st16">
			<path class="st17" d="M963.8,644c-0.3,0-0.7-0.2-0.7-0.6c-0.1-0.4,0.2-0.8,0.6-0.9c0.7-0.1,16.1-3.1,24.3-1.4
				c0.4,0.1,0.7,0.5,0.6,0.9c-0.1,0.4-0.5,0.7-0.9,0.6c-7.9-1.7-23.5,1.4-23.7,1.4C963.9,644,963.8,644,963.8,644z"/>
		</g>
	</g>
	<g class="st16">
		<g class="st16">
			<path class="st17" d="M947.6,642.6c-0.2,0-0.5-0.1-0.6-0.3c-0.1-0.1-6.6-10.2-16.2-17c-0.3-0.2-0.4-0.7-0.2-1s0.7-0.4,1-0.2
				c9.8,6.9,16.5,17.3,16.5,17.4c0.2,0.3,0.1,0.8-0.2,1C947.8,642.6,947.7,642.6,947.6,642.6z"/>
		</g>
		<g class="st16">
			<path class="st17" d="M943.2,641.1c-0.2,0-0.3-0.1-0.5-0.2c-0.1-0.1-12.6-10.2-28.5-13c-0.4-0.1-0.7-0.5-0.6-0.9
				c0.1-0.4,0.5-0.7,0.9-0.6c16.2,3,29,13.3,29.1,13.4c0.3,0.3,0.4,0.7,0.1,1C943.6,641,943.4,641.1,943.2,641.1z"/>
		</g>
		<g class="st16">
			<path class="st17" d="M943.9,644L943.9,644c-0.3,0-15.9-3.1-23.8-1.4c-0.4,0.1-0.8-0.2-0.9-0.6c-0.1-0.4,0.2-0.8,0.6-0.9
				c8.2-1.7,23.6,1.3,24.3,1.4c0.4,0.1,0.7,0.5,0.6,0.9C944.6,643.8,944.3,644,943.9,644z"/>
		</g>
	</g>
</g>
<path class="st24" d="M991.6,252.9c5.2,4,8.5,10,10.2,16.4c2.2,8.5,1.7,17.5-0.4,26c-2.1,8.5-5.8,16.5-10,24.3
	c-0.8,1.4-1.6,2.9-3,3.8c-1.2,0.8-2.7,1-4.2,1.2c-17.4,2.2-35,4.3-52.4,2c-4-0.5-8.2-1.4-11.1-4.2c-3.8-3.6-4.3-9.4-4.5-14.6
	c-0.2-4.6-0.3-9.2-0.3-13.9c0-10.3-15.3-13.1-12.1-22.9c1.2-3.8,18.6-15.2,21.5-18c2.2-2.1,4.9-3.5,7.6-4.6c9.2-3.8,19.5-5,29.4-3.4
	c5,0.8,9.2,4.4,14.1,4C982.1,248.6,987.1,249.5,991.6,252.9z"/>
<path class="st9" d="M975.4,348.2h-35.6v41.6h35.6V348.2z"/>
<path class="st17" d="M975.4,366v-17.8h-35.6V376C945,376.7,965.8,378.2,975.4,366z"/>
<path class="st9" d="M934.9,384.8c0,0,20.9-4.9,45.9,0c0,0-6.3,14.3-25,14.3S934.9,384.8,934.9,384.8z"/>
<path class="st18" d="M1048.2,413c-3.6-12.9-15-14.9-15-14.9s-30-8.3-54.7-13.7c0,0-5.4,14.3-25.5,14c-17.4-0.3-15.8-14-15.8-14
	c-11.2,1.8-39.6,8.4-50.8,13.6c0,0-11.8,3.9-12.9,17.4c0,0-0.2,6.1,12.6,14.4c0.8,14.2,2.6,33.8,6.5,60.2
	c4.5,30.8,2.8,46.9,2.7,89.5c0,0,36.5,15.3,116.9-0.1c0,0-2.9-44.8,1.1-78.7c3.2-27.3,14.1-53.9,15.8-68.5l0,0
	C1051.7,422.7,1048.2,413,1048.2,413z"/>
<path class="st9" d="M1040.3,409.2c-5.5-7-15.7-8.2-22.6-2.7c-7,5.5-8.2,15.6-2.7,22.6c0.9,1.1,69.9,73.5,69.9,73.5
	c4.7,5.8,13.1,6.7,19,2.1s6.9-13.1,2.4-19L1040.3,409.2z"/>
<path class="st9" d="M1104.5,504.1c5.4-5.1,5.6-13.6,0.6-19.1c-5.1-5.5-13.8-6-19.3-1c0,0-20.6,13.5-72.5,67.3l11.8,12.8
	c0,0,55.5-33.9,78.6-59.3C1103.9,504.5,1104.5,504.1,1104.5,504.1z"/>
<path class="st18" d="M1087,455.4l-42.9-49.7c-7.2-9-20.4-10.6-29.5-3.4s-10.7,20.4-3.5,29.5c0.6,0.8,22.5,23.7,46.8,49.2
	C1065.4,475.5,1077.7,465.7,1087,455.4z"/>
<path class="st9" d="M1030.2,551c-2.7-7.8-6.9-6.6-6.9-6.6l-6,0.3c-5.2-2.6-8-6.7-10.6-7.6c-4.8-1.5-6.4-6.2-7.4-5.8
	c-2.2,0.8-2.8,2.9-1.8,4.8c1.4,2.7,4.6,5.2,4.6,5.2c-2.1-0.8-10.8-3.4-13.9-3.8c-2.7-0.3-10.4,4.3-11.3,4.8
	c-1.2,0.6-2.8,1.8-2.3,2.9c0.9,1.9,3.1,1.8,4.8,1.3c1.9-0.5,6-3.5,7.5-3.1c0.9,0.2,6.2,1.8,6.7,2c0,0-6.6,2.6-9.4,3.6
	c-3.3,1.2-10.1,4-10.1,4c-5.4,3.4,1.3,5.5,1.3,5.5c-0.4,0.3-1.8,1.5-1.3,2.6c0.8,1.9,3.6,1.9,4.3,1.9c2.2-0.1,8.8-2.2,9-2.2l9.6,0.3
	c-2.9,2.2-4.6,3.5-8.2,6c-0.6,0.4-4.5,2.8-4.7,3.4c-0.3,0.7,0,1.4,0.6,1.7c1.4,0.7,3,0.6,4.6,0.1c0.7-0.2,3.7-1.6,5.3-2.5
	c6.2-3.6,9.7-4.8,15.4-0.6c8.2,6,17.2-6.2,17.2-6.2S1032.9,558.8,1030.2,551z"/>
<path class="st17" d="M1002.2,541.2l4.4,1.6C1006.5,542.8,1007,541.8,1002.2,541.2z"/>
<path class="st17" d="M975.3,558.3c0,0,9-3.2,11.1-3.7c2.1-0.6,12.2-0.4,11.4-2.6C997.7,552,994.7,549.4,975.3,558.3z"/>
<path class="st17" d="M993.6,545.3c0,0,5.1-0.7,3.9-1.2C996.2,543.5,994.6,544.9,993.6,545.3z"/>
<path class="st9" d="M880,409.3c5.5-7,15.7-8.2,22.6-2.6c7,5.5,8.2,15.7,2.6,22.6c-0.9,1.1-70.1,73.3-70.1,73.3
	c-4.7,5.7-13.2,6.7-19,2.1s-6.9-13.1-2.4-19L880,409.3z"/>
<path class="st9" d="M814.3,502.7c-4.8-5.7-4.1-14.2,1.5-19.1s14.3-4.5,19.3,1c0,0,19,15.6,64.9,74.6l-12.2,10.6
	c0,0-52.5-38.9-72.8-66.5C814.8,503.2,814.3,502.7,814.3,502.7z"/>
<path class="st18" d="M833.1,455.4l43-49.5c7.2-9,20.4-10.5,29.5-3.3s10.6,20.5,3.4,29.6c-0.6,0.8-22.6,23.7-46.9,49.1
	C854.6,475.6,842.4,465.8,833.1,455.4z"/>
<path class="st9" d="M896.7,536.7c0,0,2.1-6.9-1-8.8c-3-1.9-5.1,11.1-5.1,11.1L896.7,536.7z"/>
<path class="st9" d="M921.8,547.9c-0.3-0.2-10.5-5.4-12-5.7c-0.9-0.2-8.4-1-8.4-1l5.7-1.6c2.4-0.7,6.7,3,10,2.1c3-0.8,2.8-3,1.6-3.4
	c-7.7-3-9.6-4.7-12.3-4.4c-4.5,0.4-6.9,1.3-8.6,1.6c-3.6,0.6-5,0-6.5,2.5c-0.1,0.2-4.4,7.9-7,24c-1.2,7.6,7.3,9.9,7.3,9.9
	c7.1,1.8,6.9-6.1,9.8-8.7c1.2-1.1,6.6,3.4,8.3,4.4c1.8,1,4.2,1.8,5.2,1.2c2.2-1.3,1.3-2.3,0.2-3.1c-1.6-1.3-12.6-9-12.6-9
	c0.1-0.4,0.2-0.7,0.2-1.2c0,0,5.6,1.8,8.3,3c2.4,1.1,6.7,3,8.8,1.7c2-1.2,1-2.8,0.4-3.4c-1.3-1.2-16.6-8-16.6-8s2.3-1.7,5.4-0.9
	c2.1,0.5,5.6,1.7,6.7,2.3c1.5,0.7,5,2.4,6.4,0.7C922.9,549.4,922.5,548.4,921.8,547.9z"/>
<path class="st17" d="M901.8,562.9c0,0-2.7-1.9-3.3-2.1C898,560.7,897.7,561.4,901.8,562.9z"/>
<path class="st17" d="M899.8,564.7c0,0-4.4-0.6-4.9-1.1C894.3,563.1,892.5,565.3,899.8,564.7z"/>
<path class="st17" d="M902.3,556.5c0,0-5.5-2.6-5.1-3.6c0.5-1.3,4,1.5,5.4,2.5L902.3,556.5z"/>
<path class="st17" d="M903.5,548.6c0,0-6.2-1.2-6-2.7C897.7,544.5,903.5,548.6,903.5,548.6z"/>
<path class="st17" d="M901.4,541.2c0,0-4.6-1-4.9-1.9C896.1,538.4,898.2,539.1,901.4,541.2z"/>
<path class="st9" d="M996.5,324.1c5.8,0,10.5-4.7,10.5-10.5s-4.7-10.5-10.5-10.5s-10.5,4.7-10.5,10.5S990.7,324.1,996.5,324.1z"/>
<path class="st25" d="M997.5,319.2c2.8,0,5-2.3,5-5c0-2.8-2.3-5-5-5c-2.8,0-5,2.3-5,5C992.5,317,994.8,319.2,997.5,319.2z"/>
<path class="st9" d="M929.4,267.3c19.4-22.7,56.5-13.3,63.6,15.6c3.2,13,5.3,29.2,2.8,45.5c-5.7,36.7-28.9,52.2-54.8,40.1
	c-26-12.1-28.4-64.3-19.9-87.1C923,276.2,925.9,271.4,929.4,267.3z"/>
<path class="st24" d="M996.4,303.2c0,0-3.9-0.4-7.4,5.4c0,0-6.7-43.7-23.9-42.2c0,0-22.7,0.9-46,12.1c-20,9.6-17.5-34.2,18.3-35.5
	c41.5-1.5,36.9,2.7,36.9,2.7S1014.2,232.4,996.4,303.2z"/>
<path class="st24" d="M979.7,273.5c0,0,3.8-24-3.6-33.5c-7.4-9.6-12.7-8.5-17.3-4c0,0-9.2-9.7-15.2-0.7c-6.1,9-10.1,2.3-13.7,0
	c-3.5-2.3-13.5-3-10.7,6.6c0,0-19.8-11.8-25.1,0.7s10.5,17.6,10.5,17.6s-9.4,31,18.1,18C956,262.4,979.7,273.5,979.7,273.5z"/>
<path class="st26" d="M864.2,159.4l14.8,46.8l134.1-119L864.2,159.4z"/>
<path class="st13" d="M816.5,143.8l47.8,15.6l148.8-72.1L816.5,143.8z"/>
<path class="st13" d="M880.9,164.1l132.2-76.8l-81.8,93.4L880.9,164.1z"/>
<path class="st27" d="M879,206.3l1.9-42.2l33.4,11L879,206.3z"/>
<path class="st28" d="M385.2,788.4l-26.7-4.8L337.6,745l-48.2,26.1l-17.2-3.1l-6.8,16.1l-48.2,26.1l20.9,38.6l-10.5,25l58.8,108.4
	L444,896.8L385.2,788.4z"/>
<path class="st29" d="M370.5,780.8l-157.4,85.4l43.2,79.5l157.4-85.4L370.5,780.8z"/>
<path class="st13" d="M213,866.3l44.5-105.8l112.9,20.4L213,866.3z"/>
<path class="st19" d="M322.9,737.4l-120.2,65.2L281,947.1l120.2-65.2L322.9,737.4z"/>
<path class="st30" d="M225.9,827.6l2.6,4.8l103.7-56.3l-2.6-4.8L225.9,827.6z"/>
<path class="st30" d="M233.8,842.2L337.5,786l-2.6-4.8l-103.7,56.3L233.8,842.2z"/>
<path class="st30" d="M239.1,852l103.7-56.3l-2.6-4.8l-103.7,56.3L239.1,852z"/>
<path class="st30" d="M244.5,861.8l103.7-56.2l-2.6-4.8L241.9,857L244.5,861.8z"/>
<path class="st30" d="M249.7,871.6l103.7-56.3l-2.6-4.8l-103.7,56.3L249.7,871.6z"/>
<path class="st30" d="M333.1,833.3l-80.4,43.6l2.6,4.8l80.4-43.6L333.1,833.3z"/>
<path class="st13" d="M213,866.3l58.8,108.3l157.4-85.4l-58.8-108.3l-43.9,106.9L213,866.3z"/>
<path class="st13" d="M271.8,974.7l44.5-105.8l112.9,20.3L271.8,974.7z"/>
<path class="st28" d="M271.8,974.7l33.8-90.8l4.1,0.8L271.8,974.7z"/>
<path class="st28" d="M429.3,889.2l-96.2-17.3l1.6-3.8L429.3,889.2z"/>
<path class="st28" d="M313.9,221V84.4c0-21.7,11.1-40.9,27.9-52.1c16.5,12.7,29.6,30.4,36.8,51.6C397.4,139.7,368.6,200.2,313.9,221
	z"/>
<path class="st31" d="M268.8,218.8c60.4,0,109.4-49,109.4-109.4C378.2,49,329.2,0,268.8,0S159.4,49,159.4,109.4
	S208.4,218.8,268.8,218.8z"/>
<path class="st31" d="M271.7,208.3c53.5,0,96.8-43.3,96.8-96.8s-43.4-96.8-96.8-96.8s-96.8,43.3-96.8,96.8
	C174.9,165,218.2,208.3,271.7,208.3z"/>
<path class="st32" d="M298,197.4c-50,16.9-104.2-9.5-122-58.9c0.2,0.7,0.4,1.3,0.6,2c17.1,50.7,72,77.9,122.7,60.8
	s77.9-72,60.8-122.7c-0.2-0.7-0.5-1.3-0.7-1.9C375.2,126.8,348.1,180.5,298,197.4z"/>
<path class="st28" d="M240.6,25.8c49.3-16.6,102.7,8.7,121.2,56.8c-0.4-1.4-0.8-2.7-1.3-4.1c-17.1-50.7-72-77.9-122.7-60.8
	s-77.9,72-60.8,122.7c0.5,1.4,1,2.7,1.5,4C164.2,94.8,191.3,42.4,240.6,25.8z"/>
<g class="st33">
	<path class="st28" d="M269.3,164.4l-50.2-42.1l9.8-11.7l36.7,30.8l52.1-84l13,8L269.3,164.4z"/>
</g>
<path class="st19" d="M267.1,158.9l-50.2-42.1l9.8-11.7l36.7,30.8l52.1-84l13,8L267.1,158.9z"/>
<g id="button" class="st34">
	<path class="st35" d="M669.7,817.1H438.3c-7.3,0-13.3-6-13.3-13.3v-33.4c0-7.3,6-13.3,13.3-13.3h231.4c7.3,0,13.3,6,13.3,13.3v33.4
		C683,811.2,677.1,817.1,669.7,817.1z"/>
	<text transform="matrix(1 0 0 1 475.3652 794.1074)" class="st36 st37 st38">Mi despensa</text>
	<g class="st39">
		<path class="st2" d="M492.6,794.1V784l-4.9,8.3h-1.8l-4.9-8.1v9.9h-3.6v-16.8h3.2l6.3,10.4l6.2-10.4h3.2v16.8L492.6,794.1
			L492.6,794.1z"/>
		<path class="st2" d="M500.2,778.8c-0.4-0.4-0.6-0.9-0.6-1.5s0.2-1.1,0.6-1.5s1-0.6,1.7-0.6s1.2,0.2,1.7,0.6
			c0.4,0.4,0.6,0.9,0.6,1.4c0,0.6-0.2,1.1-0.6,1.5s-1,0.6-1.7,0.6C501.2,779.4,500.6,779.2,500.2,778.8z M500,781.2h3.7v12.9H500
			V781.2z"/>
		<path class="st2" d="M527.2,776.3v17.8h-3.6v-1.5c-0.9,1.1-2.3,1.7-4,1.7c-1.2,0-2.3-0.3-3.3-0.8s-1.8-1.3-2.3-2.3
			s-0.8-2.2-0.8-3.5s0.3-2.5,0.8-3.5s1.3-1.8,2.3-2.3s2.1-0.8,3.3-0.8c1.6,0,2.9,0.5,3.9,1.6v-6.3h3.7V776.3z M522.6,790.3
			c0.6-0.6,0.9-1.5,0.9-2.6s-0.3-2-0.9-2.6c-0.6-0.6-1.4-1-2.4-1s-1.8,0.3-2.4,1c-0.6,0.6-0.9,1.5-0.9,2.6s0.3,2,0.9,2.6
			c0.6,0.6,1.4,1,2.4,1C521.2,791.2,521.9,790.9,522.6,790.3z"/>
		<path class="st2" d="M543.2,788.7h-9.8c0.2,0.8,0.6,1.4,1.2,1.9c0.7,0.5,1.5,0.7,2.4,0.7c0.7,0,1.3-0.1,1.8-0.3s1-0.5,1.5-0.9
			l2,2.2c-1.2,1.4-3,2.1-5.3,2.1c-1.5,0-2.7-0.3-3.9-0.9c-1.1-0.6-2-1.4-2.6-2.4s-0.9-2.2-0.9-3.4c0-1.3,0.3-2.4,0.9-3.4
			c0.6-1,1.4-1.8,2.5-2.4c1-0.6,2.2-0.9,3.5-0.9s2.4,0.3,3.4,0.8s1.8,1.3,2.4,2.3c0.6,1,0.9,2.2,0.9,3.5
			C543.3,787.7,543.3,788.1,543.2,788.7z M534.5,784.6c-0.6,0.5-0.9,1.1-1.1,2h6.4c-0.1-0.8-0.5-1.5-1.1-2s-1.3-0.7-2.1-0.7
			C535.7,783.8,535,784.1,534.5,784.6z"/>
		<path class="st2" d="M547,793.9c-1-0.3-1.8-0.6-2.4-1l1.2-2.7c0.6,0.4,1.3,0.7,2.1,0.9s1.6,0.3,2.4,0.3c1.6,0,2.4-0.4,2.4-1.2
			c0-0.4-0.2-0.6-0.6-0.8c-0.4-0.2-1.1-0.3-2-0.4c-1.1-0.2-1.9-0.3-2.6-0.6c-0.7-0.2-1.3-0.6-1.8-1.1s-0.8-1.3-0.8-2.3
			c0-0.8,0.2-1.5,0.7-2.2c0.5-0.6,1.2-1.1,2.1-1.5c0.9-0.4,2-0.5,3.2-0.5c0.9,0,1.8,0.1,2.7,0.3s1.7,0.5,2.2,0.8l-1.2,2.7
			c-1.1-0.6-2.4-1-3.7-1c-0.8,0-1.4,0.1-1.8,0.3c-0.4,0.2-0.6,0.5-0.6,0.9s0.2,0.7,0.6,0.8c0.4,0.2,1.1,0.3,2.1,0.5
			c1.1,0.2,1.9,0.4,2.6,0.6c0.7,0.2,1.3,0.6,1.8,1.1s0.7,1.3,0.7,2.2c0,0.8-0.2,1.5-0.7,2.1s-1.2,1.1-2.1,1.5
			c-0.9,0.3-2,0.5-3.3,0.5C549.1,794.3,548,794.2,547,793.9z"/>
		<path class="st2" d="M569.4,781.8c1,0.6,1.8,1.3,2.3,2.3c0.6,1,0.8,2.2,0.8,3.5s-0.3,2.5-0.8,3.5c-0.6,1-1.3,1.8-2.3,2.3
			c-1,0.6-2.1,0.8-3.3,0.8c-1.6,0-2.9-0.5-3.9-1.6v6h-3.7V781h3.6v1.5c0.9-1.1,2.3-1.7,4.1-1.7C567.4,781,568.4,781.3,569.4,781.8z
			 M567.9,790.3c0.6-0.6,0.9-1.5,0.9-2.6s-0.3-2-0.9-2.6c-0.6-0.6-1.4-1-2.4-1s-1.7,0.3-2.4,1c-0.6,0.6-0.9,1.5-0.9,2.6
			s0.3,2,0.9,2.6c0.6,0.6,1.4,1,2.4,1S567.3,790.9,567.9,790.3z"/>
		<path class="st2" d="M587.7,788.7h-9.8c0.2,0.8,0.6,1.4,1.2,1.9c0.7,0.5,1.5,0.7,2.4,0.7c0.7,0,1.3-0.1,1.8-0.3s1-0.5,1.5-0.9
			l2,2.2c-1.2,1.4-3,2.1-5.3,2.1c-1.5,0-2.7-0.3-3.9-0.9c-1.1-0.6-2-1.4-2.6-2.4s-0.9-2.2-0.9-3.4c0-1.3,0.3-2.4,0.9-3.4
			c0.6-1,1.4-1.8,2.5-2.4c1-0.6,2.2-0.9,3.5-0.9s2.4,0.3,3.4,0.8s1.8,1.3,2.4,2.3c0.6,1,0.9,2.2,0.9,3.5
			C587.7,787.7,587.7,788.1,587.7,788.7z M578.9,784.6c-0.6,0.5-0.9,1.1-1.1,2h6.4c-0.1-0.8-0.5-1.5-1.1-2s-1.3-0.7-2.1-0.7
			C580.2,783.8,579.5,784.1,578.9,784.6z"/>
		<path class="st2" d="M602,782.4c1,1,1.5,2.4,1.5,4.3v7.4h-3.7v-6.8c0-1-0.2-1.8-0.7-2.3c-0.4-0.5-1.1-0.8-1.9-0.8
			c-0.9,0-1.7,0.3-2.3,0.9c-0.6,0.6-0.8,1.5-0.8,2.6v6.4h-3.7v-12.9h3.6v1.5c0.5-0.5,1.1-1,1.8-1.3s1.5-0.4,2.4-0.4
			C599.7,781,601,781.5,602,782.4z"/>
		<path class="st2" d="M608,793.9c-1-0.3-1.8-0.6-2.4-1l1.2-2.7c0.6,0.4,1.3,0.7,2.1,0.9s1.6,0.3,2.4,0.3c1.6,0,2.4-0.4,2.4-1.2
			c0-0.4-0.2-0.6-0.6-0.8c-0.4-0.2-1.1-0.3-2-0.4c-1.1-0.2-1.9-0.3-2.6-0.6c-0.7-0.2-1.3-0.6-1.8-1.1s-0.8-1.3-0.8-2.3
			c0-0.8,0.2-1.5,0.7-2.2s1.2-1.1,2.1-1.5c0.9-0.4,2-0.5,3.2-0.5c0.9,0,1.8,0.1,2.7,0.3s1.7,0.5,2.2,0.8l-1.2,2.7
			c-1.1-0.6-2.4-1-3.7-1c-0.8,0-1.4,0.1-1.8,0.3c-0.4,0.2-0.6,0.5-0.6,0.9s0.2,0.7,0.6,0.8c0.4,0.2,1.1,0.3,2.1,0.5
			c1.1,0.2,1.9,0.4,2.6,0.6c0.7,0.2,1.3,0.6,1.8,1.1s0.7,1.3,0.7,2.2c0,0.8-0.2,1.5-0.7,2.1s-1.2,1.1-2.1,1.5
			c-0.9,0.3-2,0.5-3.3,0.5C610.1,794.3,609,794.2,608,793.9z"/>
		<path class="st2" d="M629.4,782.4c1.1,1,1.6,2.4,1.6,4.3v7.4h-3.5v-1.6c-0.7,1.2-2,1.8-3.9,1.8c-1,0-1.9-0.2-2.6-0.5
			c-0.7-0.3-1.3-0.8-1.7-1.4s-0.6-1.3-0.6-2c0-1.2,0.5-2.1,1.4-2.8s2.3-1,4.2-1h3c0-0.8-0.2-1.4-0.7-1.9c-0.5-0.4-1.2-0.7-2.2-0.7
			c-0.7,0-1.4,0.1-2,0.3s-1.2,0.5-1.7,0.9l-1.3-2.6c0.7-0.5,1.5-0.9,2.5-1.2s2-0.4,3-0.4C626.8,781,628.3,781.5,629.4,782.4z
			 M626.2,791.3c0.5-0.3,0.8-0.7,1.1-1.3v-1.3h-2.6c-1.5,0-2.3,0.5-2.3,1.5c0,0.5,0.2,0.9,0.6,1.1c0.4,0.3,0.9,0.4,1.5,0.4
			C625.1,791.8,625.7,791.6,626.2,791.3z"/>
	</g>
</g>
<g class="st34">
	<rect x="525.5" y="505.1" class="st35" width="57" height="140.3"/>
	<path class="st35" d="M554,376.3L554,376.3c-74.3,0-134.6,60.2-134.6,134.6v134.6h57V510.9c0-42.8,34.8-77.5,77.5-77.5
		s77.5,34.8,77.5,77.5v134.6h57V510.9C688.6,436.5,628.3,376.3,554,376.3z"/>
</g>
<g>
	<path class="st40" d="M697.6,555.2c0,29.5,0,55.4,0,81.2c0,1.8-0.4,2.3-2.3,2.3c-17.4-0.1-34.8-0.1-52.3,0c-1.8,0-2.3-0.5-2.3-2.3
		c0-43.6,0.1-87.2,0-130.8c0-12.3-1.4-24.5-5.1-36.3c-3.3-10.5-8.8-19.6-16.4-27.6c-9-9.5-19-17.4-31.1-22.5
		c-8.2-3.5-16.9-5.4-25.8-5.9c-10.5-0.6-20.9,0.1-31,3.3c-10.2,3.2-19.4,8.3-27.5,15.2c-8.5,7.2-16.3,15-21.7,24.9
		c-5.3,9.6-7.9,20.1-9.4,30.9c-1.2,9-1.2,18.1-1.2,27.2c0,40.4,0,80.8,0,121.2c0,2.9,0.5,2.7-2.7,2.7c-17.2,0-34.5,0-51.7,0
		c-1.4,0-2.2-0.1-2.2-1.9c0.2-44.4-0.3-88.8,0.4-133.2c0.1-8.8,0-17.7,1.2-26.4c0.8-6.4,2.4-12.8,4.5-18.9
		c3.3-9.5,6.5-19.1,11.6-27.9c14-24.3,33.1-43.5,58-56.5c23.8-12.4,49.4-17.4,76.3-15.4c17.9,1.3,35,6,51.3,13.5
		c10.7,4.9,20.1,11.6,29,19.2c15.5,13.2,28.1,28.8,36.6,47.4c4.7,10.2,8.2,20.9,10.8,32c2.6,11.4,2.1,23,2.5,34.4
		C697.8,522.9,697.6,540.9,697.6,555.2z"/>
	<path class="st41" d="M528.5,566.2c0-23.4,0-46.9,0-70.3c0-1.7,0.4-2.2,2.1-2.1c17.2,0.1,34.4,0.1,51.7,0c1.5,0,1.9,0.4,1.9,1.9
		c0,47,0,94,0,140.9c0,1.6-0.3,2.1-2,2.1c-17.2-0.1-34.3-0.1-51.5,0c-1.8,0-2.2-0.5-2.2-2.3C528.5,613,528.5,589.6,528.5,566.2z"/>
	<path class="st42" d="M549.2,766.1c0.7-3,2.8-4.9,5.6-5.1c2-0.1,2.7,0.5,2.5,2.5c-0.4,4.1-1.5,8-3.6,11.7c-1,1.8-1.7,3.7-2.9,5.3
		c-3,3.8-1.7,8.1-1.3,12.2c0.2,1.9,2.6,2.3,3.8,0.7c0.9-1.1,1.6-2.2,1.4-3.9c-0.1-1.4,0.2-2.8,0.5-4.3c0.1-0.6,0.5-1.2,0.8-1.8
		c0.7-1.1,1.8-1,2.8-0.6c1,0.3,0.3,1.2,0.2,1.8c-0.2,1.9-0.5,3.7-0.7,5.6c-0.1,1.1,0,2.3,1,2.7c1.2,0.5,2.1-0.5,2.8-1.3
		c2.2-2.7,3.1-5.8,3.2-9.2c0-1.2,0.2-2.5,1.9-2.5c1.2,0,2.2,0.3,1.8,2c-0.5,2.3-0.7,4.7-1.1,7.3c0.9-0.2,1.1-0.9,1.4-1.4
		c1-1.8,2.3-3.5,3.8-5c1.2-1.3,2.2-1.1,3,0.6c0.4,1,0.6,2,0.5,3.1c-0.3,2.1,0.1,4.2,0.2,6.2c0,0.3,0.1,0.7,0.2,0.9
		c0.4,0.7,0.8,1.7,1.7,1.8c0.7,0.1,1.2-0.7,1.6-1.3c1.4-2.4,3-4.7,3.5-7.6c0.4-2.7,1.6-5.1,3.5-7.1c1.6-1.6,3.3-1.9,4.7-0.9
		c1.7,1.2,1.8,2.6,0.6,4.8c-0.9,1.6-2.3,2.7-3.4,4c-1.2,1.4-2,2.9-1.3,4.8c0.7,2.1,2.5,2.5,4,0.9c1.4-1.5,2.6-3.1,2.9-5.4
		c0.2-1.7,1-3.4,1.8-4.9c0.2-0.5,0.5-1,0.8-1.3c1.1-1.3,2.3-2.4,4.1-2.1c1.7,0.3,1.9,1.8,2.4,3.2c0.3-0.2,0.5-0.3,0.7-0.5
		c0.6-1.2,1.5-1.8,2.9-1c1.5,0.8,0.9,2,0.5,3.1c-0.9,2.1-1.7,4.2-2.2,6.4c-0.2,0.7-0.3,1.5,0.1,2.6c1.8-1.3,2.8-3.1,3.8-4.9
		c0.4-0.6,0.4-1.5,1.5-1.4c0.6,0,0.6-0.7,0.8-1.2c1.8-5.3,2.5-10.8,3.2-16.3c0.3-2.4,0.6-4.8,0.9-7.2c0.1-1,0.2-2.3,1.6-2.2
		c1.5,0.1,2.1,1.3,1.8,2.7c-0.4,2.6-1.1,5.2-1.6,7.8c-0.8,5-1.6,10-2.4,15c-0.1,0.6-0.2,1.1-0.4,1.7c-0.3,1-0.5,2.2-1.6,2.5
		c-1.3,0.4-1.3-1.2-2.2-1.8c-1,2-2.2,3.7-3.5,5.4c-0.8,1.1-1.6,2.7-3.4,2.1c-1.7-0.6-2.1-2.2-2.1-3.9c0-0.3,0-0.5,0-1.1
		c-1,0.9-1.7,1.7-2.5,2.4c-1.6,1.3-3.1,1.4-4.5,0.1c-1.1-1.1-1.3,0.1-1.7,0.6c-1.6,1.7-3.2,3-5.8,2.6c-2.5-0.4-3.1-2.3-4-4.5
		c-0.8,1.3-1.5,2.4-2.1,3.5c-1.2,2.2-3.2,2.8-5.4,2.9c-0.9,0.1-1.5-0.6-1.8-1.3c-1.2-2.4-2.3-4.8-1.9-7.6c0.1-0.7,0.2-1.4-0.2-2.2
		c-1.5,1.7-2.2,3.7-3.4,5.4c-0.7,1-0.8,2.6-2.4,2.4c-1.7-0.2-1.4-1.9-1.8-3.3c-1.3,1.5-2.4,3-4.1,3.6c-2.1,0.7-3.5-0.5-4.7-1.9
		c-0.1,0.1-0.2,0.1-0.2,0.2c-1.3,1.7-2.5,3.7-5.1,3.2c-2.7-0.5-4.7-3.4-4.8-6.4c-0.2-6.5,0.4-12.9,1.9-19.2c0-0.2,0-0.4,0-0.6
		c0.8-0.3,0.7,0.3,0.6,0.7c-0.1,0.7-0.4,1.3,0,2.2C548.8,770.9,549,768.5,549.2,766.1z M549.2,779.3c3.2-2.5,7.3-13.4,6.3-16.5
		C551,767.3,551.1,773.4,549.2,779.3z M601.5,781.4c-1.4,1.3-3.8,7.8-3.6,9.5c0,0.2-0.1,0.5,0.3,0.6c0.4,0.1,0.6-0.2,0.8-0.4
		c1.2-1.4,2.4-2.7,3.5-4.2c0.4-0.6,0.5-1.4,0.8-2.2C601.3,784.4,602.5,782.4,601.5,781.4z M587.6,786.5c1.9-1.4,3.2-2.9,3.9-4.7
		c0.2-0.5,0.7-1.2-0.1-1.6c-0.6-0.3-1.1,0.2-1.4,0.7C588.9,782.5,588.1,784.2,587.6,786.5z M573,785.7c0.2,2.6-0.1,5.3,0.7,7.9
		C574,790.9,573.5,788.3,573,785.7z"/>
	<path class="st43" d="M400.7,703.2c0,2.7,0,5.4,0,8c0,1.2-0.5,1.5-1.5,1.4c-0.9,0-1.9,0.1-1.9-1.3c0.2-5.7-0.4-11.4,0.3-17
		c0.6-4.8,3.2-8,7.9-9.1c4.5-1,8.9-0.5,12.1,3.4c0.6,0.8,0.9,1.4,1.9,0.2c2.8-3.6,8-5,12.6-3.6c4.6,1.4,7.4,4.8,7.7,9.8
		c0.3,5.4,0.1,10.8,0.2,16.2c0,1.3-0.8,1.3-1.7,1.3c-0.9,0-1.6-0.1-1.6-1.3c0-4.4,0-8.9,0-13.3c0-2-0.1-4.1-1-5.9
		c-1.7-3.5-5.1-4.8-9.7-3.9c-3.3,0.7-5.5,3.4-5.6,7.3c-0.1,5.2-0.1,10.3,0,15.5c0,1.2-0.3,1.7-1.6,1.8c-1.3,0-1.7-0.4-1.7-1.7
		c0.1-4.5,0.1-9,0-13.5c0-3.1-0.6-6.1-3.4-8.1c-2.7-1.9-5.7-1.8-8.6-0.7c-2.8,1.1-4,3.5-4.2,6.3c-0.2,2.7,0,5.5,0,8.2
		C400.8,703.2,400.8,703.2,400.7,703.2z"/>
	<path class="st43" d="M497.9,689.5c0-7.4,0-14.8,0-22.3c0-1.6,0.6-1.8,2-1.8c1.4,0,1.3,0.9,1.3,1.9c0,5.9,0,11.9,0,17.8
		c0,4.9,0,9.8,0,14.7c-0.1,5.9-3.5,10.9-8.7,12.7c-5.9,2.1-12.1,0.6-16-3.6c-5.5-6-5.1-20.6,6.4-23.5c5.2-1.3,10.1-0.6,14,3.7
		c0.2,0.2,0.3,0.6,0.4,0.9C497.5,689.8,497.7,689.7,497.9,689.5z M476.4,699c-0.1,7,4,11.4,10.5,11.4c6.6,0.1,10.9-4.3,11-11.1
		c0.1-7-4.1-11.5-10.7-11.5C480.6,687.8,476.5,692.1,476.4,699z"/>
	<path class="st43" d="M569.7,708.3c0,1.7,0,2.9,0,4.1c0,6.3,0,12.5,0,18.8c0,1.2-0.3,1.6-1.6,1.6c-1,0-1.7,0-1.7-1.4
		c0.1-11.3-0.1-22.6,0.1-33.8c0.1-7.3,6.1-12.6,13.7-12.6c7.7,0,13.6,5.2,14.1,12.6c0.5,8-2.7,13.5-9.4,15.4
		C579.2,714.6,574.1,713.4,569.7,708.3z M580.5,688.1c-6.6,0-10.8,4.2-10.8,10.9c0,7.3,4,11.6,10.7,11.6c6.6,0,10.7-4.3,10.7-11.3
		C591.2,692.4,587.1,688.1,580.5,688.1z"/>
	<path class="st43" d="M613.2,700c-3.5,0-6.9,0.1-10.4,0c-1.4,0-1.9,0.2-1.6,1.8c0.6,3.9,2.5,6.8,6.2,8c4.1,1.3,8.1,1.2,11.6-1.8
		c0.8-0.7,1.4-1.2,2.5-0.5c1.1,0.7,1.4,1.1,0.4,2.1c-3.3,3.4-7.4,4.3-11.8,3.9c-8.6-0.8-13.5-7.5-12.2-16.9
		c1-7.8,6.8-12.1,15.5-11.6c7,0.4,12.1,6,12.3,13.2c0,1.4-0.4,1.8-1.8,1.7C620.3,699.9,616.7,700,613.2,700z M611.7,697.1
		c3,0,6-0.1,9,0c1.4,0,1.6-0.5,1.3-1.7c-1.2-4.7-5.3-7.7-10.5-7.5c-5.1,0.2-8.6,2.7-9.9,7c-0.4,1.4-0.4,2.3,1.5,2.2
		C605.9,697,608.8,697.1,611.7,697.1z"/>
	<path class="st43" d="M521.9,700c-3.5,0-6.9,0.1-10.4,0c-1.7-0.1-1.9,0.6-1.6,2c1,6,5.7,9.3,12.2,8.4c2.2-0.3,4.4-0.9,5.9-2.7
		c1.2-1.3,2.3-0.4,3,0.3c0.9,0.9-0.3,1.5-0.8,2c-3.9,3.8-11.2,4.7-16.5,2.1c-5.4-2.6-7.9-7.9-7.2-15.2c0.6-6.3,4.7-10.7,10.9-11.8
		c6.6-1.2,12.8,1.6,15.5,6.9c1,2,1.3,4.2,1.5,6.4c0.1,1.2-0.4,1.6-1.6,1.5C529.2,699.9,525.5,700,521.9,700z M520.5,697.1
		c3,0,6-0.1,9,0c1.5,0.1,1.6-0.6,1.3-1.7c-1.5-5-5.6-7.9-11-7.4c-5.2,0.4-8.6,3.1-9.6,7.4c-0.3,1.2-0.1,1.8,1.3,1.8
		C514.5,697.1,517.5,697.1,520.5,697.1z"/>
	<path class="st43" d="M711.6,708.3c-2.7,3.4-6.1,5-10.1,5.2c-7.7,0.4-13.5-4.8-14.3-12.9c-0.6-6.4,2.6-12.2,8.1-14.5
		c5.9-2.5,12.8-1,16.7,3.5c2.3,2.6,3.1,5.7,3.2,9c0.1,4.2,0,8.4,0.1,12.5c0,1.2-0.4,1.6-1.6,1.6c-1.2,0-1.9-0.2-1.8-1.6
		C712,710.3,712.1,709.4,711.6,708.3z M690.5,700.2c0,3.3,1.3,7,5.2,9c3.8,2,7.8,1.9,11.6-0.3c4.1-2.4,5.9-8.8,4.1-14
		c-0.7-2.2-1.9-4.2-4-5.4c-3.8-2.2-7.8-2.3-11.6-0.3C691.9,691.3,690.5,695,690.5,700.2z"/>
	<path class="st43" d="M672.4,685c3.8,0.1,7.2,1.1,9.3,4.6c0.4,0.7,1.2,1.5,0,2.1c-0.9,0.5-1.7,0.7-2.5-0.4
		c-2.7-3.5-8.9-4.5-12.5-2.1c-1.5,1-2.1,2.4-2,4.2c0.1,1.7,1.2,2.4,2.5,2.9c1.9,0.8,4,1.2,6,1.6c2.1,0.4,4.2,1.1,6,2.1
		c4.1,2.3,4.5,7.9,1,10.9c-4.1,3.4-12.4,3.4-16.4,0c-0.8-0.6-1.4-1.4-1.8-2.3c-0.3-0.7-0.9-1.4,0.2-2c0.8-0.4,1.5-0.8,2.3,0.3
		c2.9,3.7,8.6,4.7,12.7,2.3c2.8-1.7,2.9-5.3,0-7c-1.8-1-3.8-1.3-5.8-1.7c-2.3-0.5-4.6-0.8-6.7-2c-4.4-2.5-4.7-8.5-0.5-11.4
		C666.6,685.5,669.4,684.9,672.4,685z"/>
	<path class="st43" d="M548.7,684.9c5.1,0,8.5,1,10.7,4.4c0.5,0.7,1.3,1.6,0.2,2.3c-0.9,0.6-1.8,0.7-2.6-0.5
		c-2.5-3.5-9-4.3-12.6-1.8c-1.5,1-1.9,2.5-1.8,4.3c0.1,1.6,1.2,2.2,2.4,2.7c1.9,0.8,4,1.2,6,1.6c2.1,0.4,4.2,1,6.1,2.1
		c4.1,2.4,4.5,8.1,0.8,11.1c-4.1,3.3-12.2,3.3-16.3-0.1c-0.8-0.6-1.4-1.4-1.8-2.2c-0.3-0.7-0.8-1.4,0.2-2c0.8-0.4,1.6-0.8,2.3,0.3
		c2.6,4.2,8.9,4.2,12.5,2.4c1.4-0.7,2.2-1.9,2.3-3.6c0.1-1.7-0.9-2.8-2.3-3.6c-1.8-1-3.8-1.2-5.8-1.7c-2.2-0.5-4.4-0.9-6.5-2
		c-4.8-2.3-4.2-9-0.4-11.5C544.5,685.6,547.1,684.9,548.7,684.9z"/>
	<path class="st43" d="M630.3,703.4c0.2-2.7-0.3-5.9,0.4-9.1c1.1-4.9,4.1-7.8,8.9-9.1c5.8-1.5,12.1,1,14.7,5.8
		c1.1,2.2,1.6,4.6,1.6,7c0.1,4.3,0,8.6,0,12.9c0,1.3-0.4,1.7-1.7,1.7c-1.3,0-1.7-0.4-1.7-1.7c0.1-4.2,0.1-8.5,0-12.7
		c-0.1-3.5-0.7-6.8-4-8.8c-6.5-4.2-14.5-0.3-14.9,7.3c-0.3,4.6-0.1,9.3-0.1,13.9c0,1.3-0.2,2-1.8,2c-1.6,0-1.6-0.9-1.5-2
		C630.4,708.4,630.3,706.2,630.3,703.4z"/>
	<path class="st42" d="M493.7,795.7c0.8-4.1,1.6-8.8,2.5-13.5c0.5-2.6,0.7-5.2,1.6-7.6c0.3-1-0.1-1.3-1.1-1.2
		c-0.6,0-1.3-0.1-1.4-0.8c-0.1-0.7,0.5-1,1.1-1.1c5.4-0.9,10.2-3.5,15.5-4.7c0.1,0,0.1-0.1,0.2-0.1c0.7-0.2,1.7-0.7,2.1,0.3
		c0.4,1-0.7,1.2-1.4,1.5c-2.2,0.7-4.3,1.6-6.5,2c-3.1,0.5-4.7,1.9-4.9,5.3c-0.1,2.4-1.1,4.8-1.7,7.2c-0.2,0.8-0.5,1.7,0,2.3
		c0.5,0.5,1.3-0.1,2-0.3c2-0.5,4-1.2,6-1.7c0.7-0.2,1.8-0.9,2.1,0.3c0.3,1.1-1,1.2-1.7,1.4c-2.7,0.7-5.4,1.3-8.1,2.4
		c-0.6,0.2-1.1,0.4-1.2,1.1c-0.6,2.9-1.1,5.9-1.7,8.8c-0.2,1.1,0,1.7,1.4,1.3c2.8-0.8,5.7-1.5,8.5-2.2c0.7-0.2,1.5-0.5,1.8,0.5
		c0.2,0.8-0.6,1-1.3,1.2c-3.2,0.9-6.4,1.8-9.6,2.6C495.1,801.1,493.6,799.6,493.7,795.7z M496.1,787.4c0.2,0,0.3,0,0.5,0
		c-0.1-2.2,0.6-4.3,0.6-6.6C496.9,783.1,496.5,785.3,496.1,787.4z"/>
	<path class="st42" d="M519,789.3c1.8-2,3-4.3,4.8-6.2c0.6-0.6,1.1-1.4,2.1-1.2c1,0.3,1.3,1.2,1.5,2.1c0.6,2.5,0,5.1,0.4,7.6
		c0.1,0.4,0,0.9,0.1,1.4c0.2,1,0.8,2,1.7,2.2c0.8,0.2,1.4-0.8,1.8-1.5c1.2-2,2.4-4,3.3-6.2c0.2-0.5,0.4-1.1,1-0.9
		c0.7,0.2,0.6,0.9,0.4,1.5c-1.2,2.7-2.6,5.4-4.4,7.8c-1.2,1.5-3,1.8-4.7,1.9c-0.9,0-1.4-0.6-1.8-1.3c-1.2-2.2-2.1-4.5-1.9-7
		c0.1-0.9,0-1.8-0.3-2.9c-1.1,1.9-2.3,3.9-3.5,5.8c-0.6,1-0.9,2.7-2.5,2.2c-1.6-0.5-1.5-2.1-1.4-3.5c0.2-2.9,0.5-5.7,0.7-8.6
		c0-0.4,0.2-0.7,0.3-1.1c0.3-1.4,1.3-1.7,2.5-1.4c1.4,0.3,1.2,1.3,1,2.3C519.8,784.7,519.4,787,519,789.3z M524.4,785.5
		c0,2.3,0,4.7,0,7C525.2,790.2,524.4,787.9,524.4,785.5z"/>
	<path class="st43" d="M446.6,699.3c0-4,0-8,0-11.9c0-1.1,0.3-1.6,1.5-1.6c1.3,0,1.7,0.3,1.7,1.6c0,7.9,0,15.8,0,23.7
		c0,1.4-0.5,1.6-1.8,1.6c-1.3,0-1.5-0.6-1.5-1.7C446.6,707.1,446.6,703.2,446.6,699.3z"/>
	<path class="st43" d="M445.4,677.2c0-1.7,1.1-2.9,2.7-2.9c1.6,0,2.8,1.3,2.8,2.9c0,1.6-1.3,2.8-2.8,2.8
		C446.5,680,445.4,678.9,445.4,677.2z"/>
	<path class="st42" d="M562,770.4c-0.3,0.5-0.7,1.1-1.1,1.6c-1,1.2-2.1,2.3-3,3.6c-0.7,0.8-1.4,1-2.2,0.3c-0.9-0.7-0.6-1.5,0.1-2.2
		c1.3-1.3,2.6-2.7,4-4c0.4-0.4,1-0.6,1.6-0.3C561.8,769.5,561.9,769.9,562,770.4z"/>
	<path class="st42" d="M612.5,792.9c0.9,0.1,1.9,0.4,1.9,1.7c0,1.4-0.8,2.3-2.2,2.5c-1.4,0.2-1.8-0.8-1.9-2
		C610.1,793.7,611,793,612.5,792.9z"/>
</g>
</svg>
