<?xml version="1.0" encoding="utf-8"?>
<!-- Generator: Adobe Illustrator 26.1.0, SVG Export Plug-In . SVG Version: 6.00 Build 0)  -->
<svg version="1.0" xmlns="http://www.w3.org/2000/svg" xmlns:xlink="http://www.w3.org/1999/xlink" x="0px" y="0px"
	 viewBox="0 0 800 800" style="enable-background:new 0 0 800 800;" xml:space="preserve">
<style type="text/css">
	.st0{opacity:0.3;fill:#DADAE0;enable-background:new    ;}
	.st1{fill:#484867;}
	.st2{fill:#FDFDFD;}
	.st3{opacity:0.5;fill:#D1D1E6;enable-background:new    ;}
	.st4{opacity:0.2;fill:url(#SVGID_1_);enable-background:new    ;}
	.st5{opacity:0.2;fill:url(#SVGID_00000047756503224058005750000010390701894075417222_);enable-background:new    ;}
	.st6{opacity:0.2;fill:url(#SVGID_00000118358052444681658930000004322365591908218756_);enable-background:new    ;}
	.st7{opacity:0.2;fill:url(#SVGID_00000049195832387081323920000014389310734719945658_);enable-background:new    ;}
	.st8{fill:#2A1900;}
	.st9{fill:#F4B799;}
	.st10{fill:#37474F;}
	.st11{fill:#6F6FA5;}
	.st12{fill:#D0D1D8;}
	.st13{fill:#FFCE43;}
	.st14{fill:#FFDC85;}
	.st15{fill:#EAEBF4;}
	.st16{opacity:0.3;}
	.st17{opacity:0.3;enable-background:new    ;}
	.st18{fill:#AF2E23;}
	.st19{fill:#FFFFFF;}
	.st20{opacity:0.1;enable-background:new    ;}
	.st21{fill:#FAA284;}
	.st22{fill:#DBDBDB;}
	.st23{fill:#E8E8E8;}
	.st24{fill:#502F26;}
	.st25{opacity:0.6;enable-background:new    ;}
	.st26{fill:#EA9918;}
	.st27{fill:#FFBB4D;}
	.st28{opacity:0.5;enable-background:new    ;}
	.st29{fill:#E5AE13;}
	.st30{fill:#EDEDED;}
	.st31{fill:#0AAD60;}
	.st32{opacity:0.2;fill:#FFFFFF;enable-background:new    ;}
	.st33{opacity:0.5;}
	.st34{display:none;}
	.st35{display:inline;fill:#E1062B;}
	.st36{display:inline;fill:#FDFDFD;}
	.st37{font-family:'Montserrat-Bold';}
	.st38{font-size:16.721px;}
	.st39{display:inline;enable-background:new    ;}
	.st40{fill:#E2032B;}
	.st41{fill:#E2022A;}
	.st42{fill:#1F2933;}
	.st43{fill:#DC1035;}
	.st44{fill:#AF8171;}
	.st45{fill:#4C311E;}
	.st46{fill:#353535;}
	.st47{clip-path:url(#SVGID_00000022558732621012781750000007360808369135765120_);fill:#FFFFFF;}
	.st48{clip-path:url(#SVGID_00000022558732621012781750000007360808369135765120_);fill:#6B5847;}
	.st49{clip-path:url(#SVGID_00000022558732621012781750000007360808369135765120_);fill:#FF1A20;}
	.st50{fill:#383423;}
	.st51{clip-path:url(#SVGID_00000176018078435298950070000017378384954016406677_);fill:#FFFFFF;}
	.st52{clip-path:url(#SVGID_00000176018078435298950070000017378384954016406677_);fill:#6B5847;}
	.st53{clip-path:url(#SVGID_00000176018078435298950070000017378384954016406677_);fill:#FF1A20;}
</style>
<g id="Capa_1">
	<path class="st0" d="M399.25,759.5c119.07,0,215.56-11.43,215.56-25.5c0-14.07-96.49-25.5-215.56-25.5S183.69,719.93,183.69,734
		S280.19,759.5,399.25,759.5z"/>
	<path class="st1" d="M566.46,98.6v596.52c0,24.11-19.51,43.68-43.68,43.68H275.66c-24.11,0-43.68-19.58-43.68-43.68V98.6
		c0-15.12,7.73-28.5,19.44-36.3c6.97-4.67,15.26-7.32,24.25-7.32h247.19C546.96,54.92,566.46,74.49,566.46,98.6z"/>
	<path class="st2" d="M517.42,724.73H281.09c-18.32,0-33.23-14.84-33.23-33.23V103.9c0-18.32,14.84-33.23,33.23-33.23h236.32
		c18.32,0,33.23,14.84,33.23,33.23v587.6C550.65,709.82,535.74,724.73,517.42,724.73z"/>
	<path class="st1" d="M454.99,91.35H343.52c-4.95,0-8.92-3.97-8.92-8.92V63.49h129.24v18.95C463.84,87.38,459.87,91.35,454.99,91.35
		z"/>
	<path class="st3" d="M419.11,82.65h-52.95c-2.09,0-3.83-1.74-3.83-3.83s1.74-3.83,3.83-3.83h52.95c2.09,0,3.83,1.74,3.83,3.83
		C422.94,80.97,421.2,82.65,419.11,82.65z"/>
	<path class="st3" d="M432.35,82.65c2.09,0,3.83-1.74,3.83-3.83s-1.74-3.83-3.83-3.83s-3.83,1.74-3.83,3.83
		C428.52,80.97,430.19,82.65,432.35,82.65z"/>
	
		<linearGradient id="SVGID_1_" gradientUnits="userSpaceOnUse" x1="192.8746" y1="318.96" x2="417.6331" y2="318.96" gradientTransform="matrix(1 0 0 -1 94 478)">
		<stop  offset="0" style="stop-color:#37355E;stop-opacity:0.8"/>
		<stop  offset="1" style="stop-color:#D1D1E6"/>
	</linearGradient>
	<path class="st4" d="M511.63,141.17H286.87v35.74h224.76L511.63,141.17L511.63,141.17z"/>
	
		<linearGradient id="SVGID_00000027581403290071334100000010754450145747475883_" gradientUnits="userSpaceOnUse" x1="192.8746" y1="279.3172" x2="417.6331" y2="279.3172" gradientTransform="matrix(1 0 0 -1 94 478)">
		<stop  offset="0" style="stop-color:#37355E;stop-opacity:0.8"/>
		<stop  offset="1" style="stop-color:#D1D1E6"/>
	</linearGradient>
	<path style="opacity:0.2;fill:url(#SVGID_00000027581403290071334100000010754450145747475883_);enable-background:new    ;" d="
		M511.63,189.73H286.87v17.91h224.76L511.63,189.73L511.63,189.73z"/>
	
		<linearGradient id="SVGID_00000168835760465978498340000016608988685722092678_" gradientUnits="userSpaceOnUse" x1="192.8746" y1="245.3874" x2="417.6331" y2="245.3874" gradientTransform="matrix(1 0 0 -1 94 478)">
		<stop  offset="0" style="stop-color:#37355E;stop-opacity:0.8"/>
		<stop  offset="1" style="stop-color:#D1D1E6"/>
	</linearGradient>
	<path style="opacity:0.2;fill:url(#SVGID_00000168835760465978498340000016608988685722092678_);enable-background:new    ;" d="
		M511.63,223.66H286.87v17.91h224.76L511.63,223.66L511.63,223.66z"/>
	
		<linearGradient id="SVGID_00000154419804347958230620000001076352032576810149_" gradientUnits="userSpaceOnUse" x1="192.8746" y1="-179.3615" x2="417.6331" y2="-179.3615" gradientTransform="matrix(1 0 0 -1 94 478)">
		<stop  offset="0" style="stop-color:#37355E;stop-opacity:0.8"/>
		<stop  offset="1" style="stop-color:#D1D1E6"/>
	</linearGradient>
	<path style="opacity:0.2;fill:url(#SVGID_00000154419804347958230620000001076352032576810149_);enable-background:new    ;" d="
		M511.63,643.08H286.87v28.57h224.76L511.63,643.08L511.63,643.08z"/>
	<path class="st8" d="M112.7,214.74c0,0,23.97-9.41,32.54,21.53c8.57,30.93,16.86,37.27,24.87,42.29
		c8.01,4.95,8.71,45.5-59.08,45.43c-68.14-0.07-71.9-29.96-54.76-49.26s22.92-39.5,23.76-47.24
		C80.79,219.76,92.56,206.52,112.7,214.74z"/>
	<path class="st9" d="M153.45,321.34c-0.21-0.21-0.35-0.35-0.35-0.42c-2.37-2.23-5.5-3.48-8.78-3.34c-3.27,0.07-6.34,1.46-8.57,3.83
		c-4.39,4.6-4.46,11.98-0.21,16.65c0.21,0.21,0.42,0.49,0.7,0.7l46.05,47.59l0.07,0.07c4.25,3.9,11.29,3.62,15.26-0.63
		c3.76-4.04,4.18-10.45,0.49-14.56c0-0.14-0.56-0.21-0.7-0.35C195.75,369.13,157.08,325.38,153.45,321.34z"/>
	<path class="st9" d="M197.21,385.78c-0.14,0.14-0.49,0.42-0.49,0.42l-0.07,0.07c-4.39,3.83-11.08,3.41-14.98-0.91
		c-3.9-4.32-3.48-11.15,0.7-15.19c0.98-1.25,13.03-12.26,43.06-37l8.78,10.8C225.29,355.27,209.47,376.59,197.21,385.78z"/>
	<path class="st10" d="M116.46,572.78c0-0.07,0-0.56,0-0.56c-1.11-32.54-0.28-108.41-0.28-108.55
		c-0.35-11.84,8.99-21.74,20.83-22.02c11.84-0.35,21.6,8.85,21.95,20.69c0,0.14,0,0.35,0,0.35c-3.41,34.77-7.18,61.31-15.47,112.73
		l-0.07,0.49c-0.91,6.41-6.34,11.57-13.1,11.7c-7.45,0.21-13.73-5.64-13.93-13.17C116.39,573.83,116.39,573.34,116.46,572.78z"/>
	<path class="st9" d="M135.97,683.98l-15.33,0.14c-0.49-4.95-1.32-18.11-2.23-24.87h18.46
		C136.46,666.07,136.18,678.82,135.97,683.98z"/>
	<path class="st10" d="M116.39,572.92c0,0,0.14-0.49,0.14-0.7c0.91-6.48,6.34-11.5,13.1-11.7c7.45-0.21,13.73,5.71,13.93,13.17
		c0,0.77-0.28,3.41-0.35,3.9c-1.88,9.82-4.81,51.49-6.34,81.65h-18.46c-1.18-9.27-2.44-17.35-3.14-21.18
		C107.47,595.15,116.18,574.31,116.39,572.92z"/>
	<path class="st11" d="M136.94,653.46c0,0,1.67,0.35,1.18,2.86c-0.42,2.51,0.49,4.46-0.56,5.43c-1.05,0.98-9.61,3.41-19.72,0
		c0,0-1.46-0.77-0.7-4.39c0.35-1.46-1.39-3.14,0.28-4.74C117.43,652.55,126.63,656.46,136.94,653.46z"/>
	<path class="st10" d="M64.97,570.76c0-0.07,0.07-0.56,0.07-0.56c0.56-32.54,5.16-108.27,5.16-108.41
		c0.28-11.84,10.1-21.25,21.95-20.97s21.18,10.17,20.9,21.95c0,0.14,0,0.42,0,0.42l0,0c-5.16,34.56-10.38,60.75-21.25,111.68
		l-0.07,0.42c-1.25,6.34-6.9,11.15-13.66,11.01c-7.45-0.21-13.45-6.34-13.24-13.86C64.83,571.88,64.9,571.32,64.97,570.76z"/>
	<path class="st10" d="M64.9,570.97c0,0,0.14-0.49,0.21-0.7c1.18-6.41,6.9-11.15,13.66-11.01c7.52,0.21,13.45,6.41,13.24,13.86
		c0,0.77-0.49,3.41-0.56,3.83c-2.44,9.82-7.39,52.81-10.38,82.84l-18.46-1.88c-0.7-9.34-1.53-17.98-2.09-21.88
		C54.8,592.71,64.55,572.29,64.9,570.97z"/>
	<path class="st9" d="M78.7,683.63l-15.61,0.91c-0.21-4.88,0.07-20.34-0.56-26.61L81,659.8C80.3,666.56,79.12,678.68,78.7,683.63z"
		/>
	<path class="st11" d="M81.62,653.53c0,0,1.67,0.42,1.05,2.93c-0.63,2.51,0.21,4.46-0.84,5.36c-1.11,0.91-9.82,2.86-19.72-1.18
		c0,0-1.46-0.84-0.42-4.46c0.42-1.46-1.18-3.2,0.56-4.74C62.26,651.58,71.17,655.97,81.62,653.53z"/>
	<path class="st9" d="M139.31,685.09c0,0-2.09-3.34-10.52-3.34s-9.13,3.41-9.13,3.41v4.32h19.58L139.31,685.09z"/>
	<path class="st12" d="M172.06,701.81h-56.71v4.32h56.71V701.81z"/>
	<path class="st13" d="M171.64,701.81c0,0,2.65-10.1-16.23-8.5l-16.02-11.22c0,0-1.25-1.05-2.44,0c-1.18,1.11-5.36,5.09-10.52,4.46
		c-5.16-0.7-5.23-3.97-7.04-3.69c-1.81,0.28-4.81,8.5-4.32,18.95L171.64,701.81L171.64,701.81z"/>
	<path class="st14" d="M155.41,693.17c18.81-1.6,16.23,8.64,16.23,8.64h-17.77C153.8,695.68,155.41,693.17,155.41,693.17z"/>
	<path class="st15" d="M148.58,694.57c0.21,0,0.42-0.14,0.56-0.35c1.25-1.95,2.86-2.93,2.86-2.93c0.35-0.21,0.42-0.63,0.28-0.91
		c-0.21-0.35-0.63-0.42-0.91-0.28c-0.07,0.07-1.95,1.11-3.34,3.41c-0.21,0.35-0.07,0.7,0.21,0.91
		C148.37,694.57,148.44,694.57,148.58,694.57z"/>
	<path class="st15" d="M145.86,692.61c0.21,0,0.42-0.14,0.56-0.35c1.25-1.95,2.86-2.93,2.86-2.93c0.35-0.21,0.42-0.63,0.28-0.91
		c-0.21-0.35-0.63-0.42-0.91-0.28c-0.07,0.07-1.95,1.11-3.34,3.41c-0.21,0.35-0.07,0.7,0.21,0.91
		C145.58,692.61,145.72,692.61,145.86,692.61z"/>
	<path class="st15" d="M143.07,690.66c0.21,0,0.42-0.14,0.56-0.35c1.25-1.95,2.86-2.93,2.86-2.93c0.35-0.21,0.42-0.63,0.28-0.91
		c-0.21-0.35-0.63-0.42-0.91-0.28c-0.07,0.07-1.95,1.11-3.34,3.41c-0.21,0.35-0.07,0.77,0.21,0.91
		C142.86,690.66,143,690.66,143.07,690.66z"/>
	<path class="st15" d="M140.36,688.71c0.21,0,0.42-0.14,0.56-0.35c1.25-1.95,2.86-2.93,2.86-2.93c0.35-0.21,0.42-0.63,0.28-0.91
		c-0.21-0.35-0.63-0.42-0.91-0.28c-0.07,0.07-1.95,1.11-3.34,3.41c-0.21,0.35-0.07,0.77,0.21,0.91
		C140.08,688.71,140.22,688.71,140.36,688.71z"/>
	<path class="st9" d="M81.9,685.09c0,0-2.02-3.34-10.45-3.34s-9.13,3.41-9.13,3.41v4.32h19.51L81.9,685.09z"/>
	<path class="st12" d="M95.63,701.81H59.82v4.32h35.74L95.63,701.81L95.63,701.81z"/>
	<path class="st13" d="M95,701.81c0,0,1.6-6.97-5.43-8.5l-8.64-11.29c0,0-3.2-3-8.08,0.07c-1.11,0.7-3.76,5.16-6.97,4.46
		c-3.27-0.7-2.23-3.97-3.41-3.76c-1.18,0.28-3.07,7.32-2.72,19.09L95,701.81L95,701.81z"/>
	<path class="st14" d="M89.5,693.17c7.04,1.6,5.43,8.71,5.43,8.71H76.4C76.89,691.36,89.5,693.17,89.5,693.17z"/>
	<path class="st15" d="M79.95,692.55c0.07,0,0.21,0,0.28-0.07c4.25-1.88,7.04-1.05,7.11-1.05c0.35,0.14,0.77-0.07,0.84-0.42
		c0.14-0.35-0.07-0.77-0.42-0.84c-0.14-0.07-3.27-1.05-8.08,1.11c-0.35,0.14-0.49,0.56-0.35,0.91
		C79.39,692.41,79.67,692.55,79.95,692.55z"/>
	<path class="st15" d="M78.21,690.18c0.07,0,0.21,0,0.28-0.07c4.25-1.88,7.04-1.05,7.11-1.05c0.35,0.14,0.77-0.07,0.84-0.42
		c0.14-0.35-0.07-0.77-0.42-0.84c-0.14-0.07-3.27-1.05-8.08,1.11c-0.35,0.14-0.49,0.56-0.35,0.91
		C77.72,690.04,78,690.18,78.21,690.18z"/>
	<path class="st15" d="M76.89,688.3c0.07,0,0.21,0,0.28-0.07c4.25-2.02,7.04-1.25,7.04-1.25c0.35,0.07,0.77-0.07,0.84-0.49
		c0.14-0.35-0.07-0.77-0.49-0.84c-0.14-0.07-3.34-0.91-8.01,1.32c-0.35,0.14-0.49,0.56-0.35,0.91
		C76.4,688.16,76.61,688.3,76.89,688.3z"/>
	<path class="st15" d="M75.21,686c0.07,0,0.21,0,0.28-0.07c4.18-2.09,6.97-1.39,7.04-1.32c0.35,0.07,0.77-0.14,0.84-0.49
		c0.07-0.35-0.14-0.77-0.49-0.84c-0.14-0.07-3.34-0.91-8.01,1.46c-0.35,0.14-0.49,0.56-0.28,0.91C74.73,685.79,74.94,686,75.21,686z
		"/>
	<path class="st10" d="M69.99,461.45c0-0.77,0.14-2.3,0.21-2.86c0.07-0.7,0.21-1.39,0.35-2.02c4.46-24.45,17.28-45.7,17.28-45.7
		l54.27,0.28c0,0,14.49,16.65,16.79,45.15c0.14,1.11,0,5.99,0,5.99c-0.35,10.94-8.5,19.3-18.95,20.41l-48.91,0.07
		C79.46,482.42,70.13,473.08,69.99,461.45z"/>
	<g class="st16">
		<g class="st16">
			<path class="st17" d="M113.95,481.93c0.21,0,0.49-0.14,0.56-0.35c0-0.07,2.72-6.34,5.99-19.65c3.27-13.38,0.14-43.27,0-44.52
				c-0.07-0.35-0.35-0.56-0.7-0.56c-0.35,0.07-0.56,0.35-0.56,0.7c0,0.28,3.27,30.93,0,44.1c-3.2,13.17-5.92,19.37-5.92,19.44
				c-0.14,0.28,0,0.7,0.35,0.84C113.81,481.93,113.88,481.93,113.95,481.93z"/>
		</g>
		<g class="st16">
			<path class="st17" d="M119.53,470.71h0.07c6.2-0.91,8.36-8.29,8.5-8.64c4.04-12.47,0.07-44.1-0.14-45.43
				c-0.07-0.35-0.35-0.56-0.7-0.56c-0.35,0.07-0.56,0.35-0.56,0.7c0.07,0.35,4.18,32.68,0.21,44.87c0,0.07-2.09,6.97-7.45,7.73
				c-0.35,0.07-0.56,0.35-0.49,0.7C118.97,470.5,119.25,470.71,119.53,470.71z"/>
		</g>
		<g class="st16">
			<path class="st17" d="M117.64,426.89c17.84,0,28.5-5.5,28.63-5.57c0.28-0.14,0.42-0.56,0.28-0.84c-0.14-0.28-0.56-0.42-0.84-0.28
				c-0.21,0.14-23.62,12.19-59.64-0.07c-0.35-0.14-0.7,0.07-0.77,0.42c-0.14,0.35,0.07,0.7,0.42,0.77
				C97.93,425.5,108.73,426.89,117.64,426.89z"/>
		</g>
		<path class="st17" d="M124.4,423.62c1.39,0,2.58-1.11,2.58-2.58c0-1.39-1.11-2.58-2.58-2.58c-1.46,0-2.58,1.11-2.58,2.58
			C121.82,422.43,123.01,423.62,124.4,423.62z"/>
		<path class="st17" d="M98.97,426.26c0,0-0.14,17.56-18.25,17.14c0,0,3.14-13.1,7.18-19.79C87.89,423.62,95.56,426.12,98.97,426.26
			z"/>
		<path class="st17" d="M144.54,423.55c0,0,1.95,9.89,9.75,12.33c0,0-3.14-9.75-5.78-14.28
			C148.44,421.53,146.7,422.57,144.54,423.55z"/>
		<g class="st16">
			<path class="st17" d="M81.35,447.79c6.55,0,11.77-1.81,15.54-5.5c6.62-6.27,6.55-15.68,6.55-16.02s-0.28-0.63-0.63-0.63l0,0
				c-0.35,0-0.63,0.28-0.63,0.63c0,0.07,0.07,9.2-6.13,15.12c-3.97,3.76-9.61,5.5-16.79,5.09c-0.35,0-0.63,0.21-0.63,0.56
				s0.21,0.63,0.56,0.63C79.95,447.79,80.65,447.79,81.35,447.79z"/>
		</g>
		<g class="st16">
			<path class="st17" d="M154.99,439.71c0.28,0,0.56-0.21,0.63-0.49c0.07-0.35-0.14-0.7-0.42-0.77
				c-11.22-2.86-12.89-14.21-12.89-14.35c-0.07-0.35-0.35-0.56-0.7-0.56c-0.35,0.07-0.56,0.35-0.56,0.7
				c0,0.14,1.81,12.33,13.79,15.4C154.92,439.71,154.99,439.71,154.99,439.71z"/>
		</g>
		<g class="st16">
			<g class="st16">
				<path class="st17" d="M110.96,480.82c0.14,0,0.21,0,0.35-0.07c0.28-0.21,0.35-0.56,0.21-0.84c-0.07-0.07-5.64-8.71-13.79-14.49
					c-0.28-0.21-0.63-0.14-0.84,0.14c-0.21,0.28-0.14,0.7,0.14,0.84c7.94,5.64,13.45,14.07,13.52,14.14
					C110.54,480.68,110.75,480.82,110.96,480.82z"/>
			</g>
			<g class="st16">
				<path class="st17" d="M107.33,479.56c0.21,0,0.35-0.07,0.49-0.21c0.21-0.28,0.21-0.63-0.07-0.84
					c-0.14-0.07-10.73-8.71-24.32-11.15c-0.35-0.07-0.63,0.14-0.7,0.49c-0.07,0.35,0.14,0.63,0.49,0.7
					c13.24,2.44,23.69,10.8,23.76,10.87C107.05,479.49,107.19,479.56,107.33,479.56z"/>
			</g>
			<g class="st16">
				<path class="st17" d="M107.89,481.93c0.28,0,0.56-0.21,0.63-0.49c0.07-0.35-0.14-0.63-0.49-0.7
					c-0.56-0.14-13.45-2.65-20.27-1.18c-0.35,0.07-0.56,0.42-0.49,0.77s0.42,0.56,0.77,0.49c6.55-1.39,19.65,1.11,19.79,1.18
					C107.82,481.93,107.89,481.93,107.89,481.93z"/>
			</g>
		</g>
		<g class="st16">
			<g class="st16">
				<path class="st17" d="M121.48,480.82c0.21,0,0.42-0.07,0.49-0.28c0.07-0.07,5.5-8.5,13.52-14.14c0.28-0.21,0.35-0.56,0.14-0.84
					s-0.56-0.35-0.84-0.14c-8.15,5.78-13.79,14.42-13.79,14.49c-0.21,0.28-0.07,0.7,0.21,0.84
					C121.27,480.75,121.34,480.82,121.48,480.82z"/>
			</g>
			<g class="st16">
				<path class="st17" d="M125.1,479.56c0.14,0,0.28-0.07,0.42-0.14c0.07-0.07,10.52-8.5,23.76-10.87c0.35-0.07,0.56-0.35,0.49-0.7
					c-0.07-0.35-0.42-0.56-0.7-0.49c-13.59,2.44-24.25,11.08-24.32,11.15c-0.28,0.21-0.28,0.63-0.07,0.84
					C124.75,479.49,124.96,479.56,125.1,479.56z"/>
			</g>
			<g class="st16">
				<path class="st17" d="M124.54,481.93c0.07,0,0.07,0,0.14,0c0.14,0,13.24-2.58,19.79-1.18c0.35,0.07,0.63-0.14,0.77-0.49
					c0.07-0.35-0.14-0.63-0.49-0.77c-6.83-1.46-19.72,1.05-20.27,1.18c-0.35,0.07-0.56,0.42-0.49,0.7
					C123.98,481.72,124.19,481.93,124.54,481.93z"/>
			</g>
		</g>
	</g>
	<path class="st9" d="M120.15,305.94l0.07,15.26l-18.67,0.07l-0.07-19.86C109.28,306.5,117.02,306.36,120.15,305.94z"/>
	<path class="st9" d="M101.48,301.41l-0.07-15.26l18.67-0.07l0.07,19.86C117.02,306.36,109.28,306.5,101.48,301.41z"/>
	<path class="st17" d="M101.34,301.41l-0.07-15.26l18.67-0.07l0.07,19.86C116.88,306.36,109.14,306.5,101.34,301.41z"/>
	<path class="st9" d="M113.53,318.27c-6.69,0.14-12.12-3.9-13.79-5.92c3.62-0.63,9.06-1.95,12.19-1.95c3,0,7.45,0.98,10.52,1.53
		C122.31,313.4,120.71,318.13,113.53,318.27z"/>
	<path class="st18" d="M64.76,325.8c0-7.25,10.24-8.71,10.24-8.71c5.29-0.98,13.93-2.3,19.58-3.62c0,0,2.65-0.63,6.13-1.18
		c1.67,2.02,6.06,5.43,12.75,5.23c7.18-0.14,8.15-4.11,8.29-5.57c3.27,0.56,5.78,1.18,5.78,1.18c10.03,2.09,18.04,4.04,18.04,4.04
		s10.52,1.46,10.52,8.71c0,3.27-6.83,8.08-9.89,9.75v0.77c9.89,7.73,11.15,13.52,11.15,20.07c0,13.79-11.64,17.14-11.64,17.14
		l-3.41,37.62c-21.53,11.29-54.34-0.28-54.34-0.28c-3.55-24.32-9.13-39.92-11.7-55.39c-1.05-6.48-1.53-13.73-1.6-20.13
		C71.24,333.46,64.76,328.93,64.76,325.8z"/>
	<path class="st18" d="M154.29,428.7c0,0,2.02,5.78,2.86,11.01c0,0-28.77,13.31-83.12,0l3.62-11.01H154.29z"/>
	<path class="st19" d="M114.58,322.59c-11.5,0.28-18.32-5.02-20.69-8.99c0.21-0.07,0.42-0.07,0.63-0.14c0,0,2.65-0.63,6.13-1.18
		c1.67,2.02,6.06,5.43,12.75,5.23c7.18-0.14,8.15-4.11,8.29-5.57c3,0.56,5.36,1.05,5.71,1.18
		C126.77,316.39,124.12,322.31,114.58,322.59z"/>
	<path class="st20" d="M153.94,362.31c0,0-2.44,2.09-7.73,2.51c-10.73,0.91-28.29,2.86-43.75,0.35c-6.48-1.05-11.29-4.32-16.16-8.15
		c0,0,2.93,16.65,23.27,16.3C129.91,373.03,152.69,375.54,153.94,362.31z"/>
	<path class="st9" d="M62.53,451.9c0,0,8.01,5.71,8.71,8.64c0.7,2.93,2.93,9.68,2.93,11.15c0,3.48,1.74,8.01,0.77,8.36
		c-0.91,0.35-2.72,1.18-4.88-5.57l0.63,7.87c0,0,0.42,2.86-1.81,3.14c-2.44,0.28-2.65-1.95-2.65-1.95l-0.98-2.86
		c0,0-0.42,1.46-2.3,1.39c-1.95-0.07-2.58-3.48-2.58-3.48s-0.84,1.6-2.58,1.25s-2.23-1.81-2.23-1.81s-1.05,0.7-1.95,0.35
		c-1.39-0.56-2.3-3.69-2.3-3.69s-1.6-8.99,0.35-19.51C51.67,455.04,54.24,444.73,62.53,451.9z"/>
	<path class="st17" d="M53.62,478.24c0.84,0.35,1.95-0.35,1.95-0.35s0.49,1.46,2.23,1.81c1.74,0.35,2.58-1.25,2.58-1.25
		s0.63,3.34,2.58,3.48c1.88,0.07,2.3-1.39,2.3-1.39l0.98,2.86c0,0,0.28,2.23,2.58,2.02c2.23-0.21,1.95-3.14,1.95-3.14l-0.63-7.73
		c0-0.07-0.98-6.62-1.39-6.83l0.7,7.8c0,0-1.18,3.41-4.04,2.09c0,0-2.37,1.88-4.81-0.28c0,0-3.34,1.32-4.95-0.91
		c0,0-2.93,1.18-4.25-2.16c0,0.21,0.07,0.35,0.07,0.35S52.29,477.68,53.62,478.24z"/>
	<path class="st9" d="M46.37,398.05c0-0.14,0-0.63,0-0.63v-0.14c0.07-5.78,4.88-10.52,10.66-10.52c5.85,0,10.66,4.88,10.87,10.66
		c0.28,1.6-0.35,18.18-2.09,56.99l-14.35,2.3C49.02,442.57,45.05,413.3,46.37,398.05z"/>
	<path class="st9" d="M56.68,408.08c4.95,0,9.34-3.48,10.45-8.36c4.39-14.84,18.74-62.84,18.95-63.75c1.32-6.69-3-13.17-9.68-14.49
		c-0.77-0.14-1.6-0.21-2.44-0.21c-5.85,0-10.87,4.18-12.05,9.89l-15.75,64.31v0.07c-1.05,5.71,2.79,11.22,8.43,12.33
		C55.29,408.01,55.99,408.08,56.68,408.08z"/>
	<path class="st18" d="M81.48,379.17c0,0,0.56,40.06-7.45,60.61l80.89-8.99c0,0-9.54-26.06-9.75-51.7L81.48,379.17z"/>
	<path class="st18" d="M75.77,316.95c0,0-22.85,1.32-23.69,40.55l30.72,4.04C82.81,361.54,101.41,326.49,75.77,316.95z"/>
	<path class="st18" d="M136.11,322.38c0,0-11.5,19.79,20.69,42.15l18.04-20.76C174.91,343.77,158.26,306.29,136.11,322.38z"/>
	<path class="st9" d="M85.16,270.71c3.48,0,6.34-2.86,6.34-6.34c0-3.48-2.86-6.34-6.34-6.34c-3.48,0-6.34,2.86-6.34,6.34
		C78.82,267.85,81.67,270.71,85.16,270.71z"/>
	<path class="st9" d="M137.85,271c3.48,0,6.34-2.86,6.34-6.34s-2.86-6.34-6.34-6.34s-6.34,2.86-6.34,6.34S134.36,271,137.85,271z"/>
	<path class="st9" d="M129.49,233.33c-13.31-14.84-38.04-7.94-42.22,11.5c-1.88,8.78-3.07,19.65-1.11,30.45
		c4.39,24.45,20.13,34.42,37.34,25.92c17.14-8.5,17.91-43.4,11.84-58.59C133.88,239.18,131.93,236.05,129.49,233.33z"/>
	<path class="st9" d="M222.78,336.94c0,0-0.42-5.16,0.98-9.06c0.56-1.46,0.49-6.9-0.98-9.82c-1.39-2.79-2.65-3.41-1.88-4.11
		c1.88-1.81,4.88-2.09,9.2,8.5l6.83-4.25c0,0,2.44-1.46,3.9,0.21c1.32,1.53,0,2.93,0,2.93s2.23-0.7,3.34,0.77
		c1.11,1.6-0.14,3.34-0.14,3.34s1.11-0.07,2.09,1.6c0.77,1.39,0,2.86,0,2.86s0.7,0.77,0.98,1.67c0.42,1.39-0.49,3.27-0.49,3.27
		s-4.53,5.64-13.86,10.73C232.6,345.72,220.97,349.28,222.78,336.94z"/>
	<path class="st17" d="M230.09,323.01l6.83-4.04c0,0-3.83,3.34-4.95,4.6c-1.11,1.25,0,2.72,0,2.72s0,0.07,0.07,0.14l0,0
		c0.77,1.05,2.51-0.07,2.51-0.07l6.2-4.88c0,0-4.39,3.76-6.06,5.16c-1.67,1.39-0.98,2.58-0.98,2.58l0,0
		c0.14,0.21,0.28,0.49,0.42,0.7c0.98,1.18,2.58,0.35,2.58,0.35l7.25-4.6c0,0-5.36,3.97-6.97,4.95c-1.6,0.98-0.7,2.51-0.7,2.58
		s0.07,0.07,0.07,0.14c0.91,1.25,2.37,0.84,2.37,0.84l7.25-4.04c0,0-5.92,3.62-6.9,4.32c-1.05,0.7-0.56,1.81-0.56,1.81
		c0.21,0.28,0.35,0.49,0.49,0.63c1.11,1.46,7.18-2.23,7.18-2.23c-0.77,1.25-5.02,4.39-5.02,4.39c-5.43-4.67-10.66-2.79-10.66-2.79
		C233.99,330.26,230.09,323.01,230.09,323.01z"/>
	<path class="st8" d="M139.24,251.46c0,0-27.24-13.79-28.57-29.33C110.68,222.13,140.57,215.37,139.24,251.46z"/>
	<path class="st8" d="M116.95,223.87c0,0-2.79,13.66-16.58,18.11c0,0,1.39-3.55,1.39-7.18c0,0-5.09,11.84-18.18,12.26
		C83.57,247.14,81.48,216.07,116.95,223.87z"/>
	<path class="st0" d="M113.05,716.37c55.11,0,99.77-5.29,99.77-11.77c0-6.55-44.66-11.77-99.77-11.77
		c-55.11,0-99.77,5.23-99.77,11.77C13.28,711.08,57.94,716.37,113.05,716.37z"/>
	<path class="st0" d="M673.97,717.35c55.11,0,99.77-5.29,99.77-11.77c0-6.55-44.66-11.77-99.77-11.77s-99.77,5.29-99.77,11.77
		S618.86,717.35,673.97,717.35z"/>
	<path class="st21" d="M669.23,665.65h-17.56v19.93h17.56V665.65z"/>
	<path class="st10" d="M672.22,581.35c-0.21-9.06-7.45-15.12-15.12-15.12c-8.01,0-15.12,6.55-15.12,15.12
		c-0.14,4.18,8.99,93.15,8.99,93.15c8.85,0,8.57-0.7,19.16-0.63L672.22,581.35z"/>
	<path class="st10" d="M670.2,467.72c0-9.06-7.39-16.44-16.44-16.44c-9.06,0-16.44,7.39-16.44,16.44c0,0.21,4.53,109.45,4.74,113.63
		c0.21,9.54,7.94,15.12,15.12,15.12c7.8,0,15.47-6.48,15.12-15.68L670.2,467.72z"/>
	<path class="st21" d="M648.61,683.77c0,0,2.44-3.76,11.98-3.76s10.45,3.97,10.45,3.97v4.67h-22.36L648.61,683.77z"/>
	<path class="st22" d="M675.92,703.14h-64.1v4.81h64.1V703.14z"/>
	<path class="st13" d="M612.03,703.14c0,0-3-11.57,18.32-9.75l18.11-12.75c0,0,1.39-1.25,2.79,0c1.32,1.25,6.06,5.71,11.84,5.02
		c5.78-0.77,5.92-4.32,8.01-4.04c2.02,0.28,5.43,9.48,4.88,21.6L612.03,703.14L612.03,703.14z"/>
	<path class="st14" d="M630.35,693.38c-21.25-1.74-18.32,9.75-18.32,9.75h20.07C632.16,695.89,630.35,693.38,630.35,693.38z"/>
	<path class="st23" d="M641.15,692.41c-0.28,0-0.49-0.14-0.63-0.35c-1.39-2.23-3.2-3.27-3.27-3.27c-0.35-0.21-0.49-0.7-0.28-1.05
		c0.21-0.35,0.7-0.49,1.05-0.28c0.07,0.07,2.23,1.25,3.76,3.83c0.21,0.35,0.14,0.84-0.28,1.05
		C641.43,692.41,641.29,692.41,641.15,692.41z"/>
	<path class="st23" d="M644.29,690.25c-0.28,0-0.49-0.14-0.63-0.35c-1.39-2.23-3.2-3.27-3.27-3.27c-0.35-0.21-0.49-0.7-0.28-1.05
		c0.21-0.35,0.7-0.49,1.05-0.28c0.07,0.07,2.23,1.25,3.76,3.83c0.21,0.35,0.14,0.84-0.28,1.05
		C644.57,690.18,644.43,690.25,644.29,690.25z"/>
	<path class="st23" d="M647.35,688.02c-0.28,0-0.49-0.14-0.63-0.35c-1.39-2.23-3.2-3.27-3.27-3.27c-0.35-0.21-0.49-0.7-0.28-1.05
		c0.21-0.35,0.7-0.49,1.05-0.28c0.07,0.07,2.23,1.25,3.76,3.83c0.21,0.35,0.14,0.84-0.28,1.05
		C647.63,688.02,647.49,688.02,647.35,688.02z"/>
	<path class="st21" d="M721.62,665.23l-17.56,0.49l0.56,19.93l17.56-0.49L721.62,665.23z"/>
	<path class="st10" d="M722.18,580.86c-0.49-9.06-7.87-14.91-15.54-14.63c-8.01,0.21-14.91,6.97-14.63,15.54
		c0,4.18,12.12,92.66,12.12,92.66c8.36-0.77,8.22-0.77,18.11-1.81L722.18,580.86z"/>
	<path class="st10" d="M716.88,467.3c-0.28-9.06-7.8-16.23-16.93-15.95c-9.06,0.28-16.23,7.8-15.95,16.93
		c0,0.21,7.66,109.31,7.94,113.49c0.49,9.54,8.36,14.84,15.54,14.63c7.8-0.21,15.26-6.9,14.63-16.09L716.88,467.3z"/>
	<path class="st21" d="M700.58,683.77c0,0,2.44-3.76,11.98-3.76s10.45,3.97,10.45,3.97v4.67h-22.36L700.58,683.77z"/>
	<path class="st23" d="M728.52,703.14H669.3v4.81h59.22V703.14z"/>
	<path class="st13" d="M675.85,703.14c0,0-1.11-9.75,11.22-10.03l14.91-13.1c0,0,2.72-2.02,6.2,0c2.65,1.53,3,5.85,7.8,5.09
		c4.74-0.77,4.88-4.39,6.55-4.11s6.41,8.85,5.92,22.09L675.85,703.14L675.85,703.14z"/>
	<path class="st14" d="M680.45,693.17c-12.33,0.28-11.22,9.96-11.22,9.96h20.62C689.92,693.45,680.45,693.17,680.45,693.17z"/>
	<path class="st19" d="M699.61,691.92c-0.21,0-0.42-0.07-0.56-0.28c-2.72-2.93-6.55-3-6.55-3c-0.42,0-0.77-0.21-0.77-0.63
		s0.35-0.63,0.77-0.63l0,0c0.21,0,4.53-0.07,7.66,3.34c0.28,0.28,0.28,0.77-0.07,1.05C699.95,691.92,699.74,691.92,699.61,691.92z"
		/>
	<path class="st19" d="M702.67,689.2c-0.21,0-0.42-0.07-0.56-0.28c-2.72-2.93-6.55-3-6.55-3c-0.42,0-0.77-0.35-0.77-0.84
		c0-0.42,0.35-0.77,0.77-0.77l0,0c0.21,0,4.53,0.14,7.66,3.48c0.28,0.35,0.28,0.84-0.07,1.11
		C703.09,689.13,702.88,689.2,702.67,689.2z"/>
	<path class="st19" d="M705.81,686.48c-0.21,0-0.42-0.07-0.56-0.28c-2.72-2.93-6.55-3-6.55-3c-0.42,0-0.77-0.21-0.77-0.63
		s0.35-0.63,0.77-0.63l0,0c0.21,0,4.53-0.07,7.66,3.34c0.28,0.28,0.28,0.77-0.07,1.05C706.15,686.48,706.02,686.48,705.81,686.48z"
		/>
	<path class="st10" d="M717.02,442.01h-79.84l0.28,28.22c0.21,10.24,8.57,18.53,18.81,18.95l41.94,0.28
		c10.45-0.28,18.81-8.99,18.81-19.51C717.02,469.39,717.02,442.01,717.02,442.01z"/>
	<path class="st11" d="M724.48,673.25c-0.63,0-23.9,1.25-23.9,1.25l-1.6-12.82h26.54L724.48,673.25z"/>
	<path class="st11" d="M672.71,674.43c-0.63,0-23.9,1.25-23.9,1.25l-1.6-12.82h26.54L672.71,674.43z"/>
	<g class="st16">
		<g class="st16">
			<path class="st17" d="M679.68,488.48c-0.21,0-0.42-0.14-0.49-0.28c0-0.07-2.3-5.29-5.02-16.37c-2.72-11.15-0.14-36.09,0-37.13
				c0-0.28,0.28-0.49,0.56-0.49c0.28,0,0.49,0.28,0.49,0.56c0,0.28-2.72,25.78,0,36.79c2.72,11.01,4.95,16.16,4.95,16.23
				c0.14,0.28,0,0.56-0.28,0.7C679.82,488.48,679.75,488.48,679.68,488.48z"/>
		</g>
		<g class="st16">
			<path class="st17" d="M675.08,479.07L675.08,479.07c-5.23-0.77-7.04-6.9-7.11-7.18c-3.41-10.38,0-36.79,0.14-37.9
				c0.07-0.28,0.28-0.49,0.56-0.42c0.28,0.07,0.49,0.28,0.42,0.56c-0.07,0.28-3.48,27.24-0.14,37.41c0,0.07,1.74,5.78,6.2,6.48
				c0.28,0.07,0.49,0.28,0.42,0.56C675.57,478.86,675.36,479.07,675.08,479.07z"/>
		</g>
		<g class="st16">
			<path class="st17" d="M676.61,442.5c-14.91,0-23.76-4.6-23.9-4.67c-0.28-0.14-0.35-0.42-0.21-0.7c0.14-0.28,0.42-0.35,0.7-0.21
				c0.21,0.07,19.72,10.17,49.75,0c0.28-0.07,0.56,0.07,0.63,0.35c0.07,0.28-0.07,0.56-0.35,0.63
				C693.13,441.38,684.14,442.5,676.61,442.5z"/>
		</g>
		<path class="st17" d="M671.04,439.78c1.18,0,2.09-0.98,2.09-2.09s-0.98-2.09-2.09-2.09c-1.18,0-2.09,0.98-2.09,2.09
			S669.86,439.78,671.04,439.78z"/>
		<path class="st17" d="M692.22,442.08c0,0,0.14,14.7,15.26,14.28c0,0-2.65-10.94-5.99-16.51
			C701.49,439.78,695.08,441.94,692.22,442.08z"/>
		<path class="st17" d="M654.25,439.71c0,0-1.6,8.22-8.15,10.31c0,0,2.65-8.15,4.88-11.91
			C650.97,438.11,652.44,438.94,654.25,439.71z"/>
		<g class="st16">
			<path class="st17" d="M706.92,459.98c-5.43,0-9.82-1.53-12.96-4.6c-5.5-5.23-5.43-13.03-5.43-13.38c0-0.28,0.21-0.56,0.49-0.56
				l0,0c0.28,0,0.49,0.28,0.49,0.56c0,0.07-0.07,7.66,5.16,12.61c3.27,3.14,8.01,4.6,14,4.25c0.28,0,0.56,0.21,0.56,0.49
				c0,0.28-0.21,0.56-0.49,0.56C708.11,459.98,707.48,459.98,706.92,459.98z"/>
		</g>
		<g class="st16">
			<path class="st17" d="M645.47,453.23c-0.21,0-0.42-0.14-0.49-0.42c-0.07-0.28,0.07-0.56,0.35-0.63
				c9.34-2.37,10.73-11.91,10.73-11.98c0.07-0.28,0.28-0.49,0.56-0.42c0.28,0.07,0.49,0.28,0.42,0.56
				C657.04,440.41,655.5,450.58,645.47,453.23C645.54,453.23,645.54,453.23,645.47,453.23z"/>
		</g>
		<g class="st16">
			<g class="st16">
				<path class="st17" d="M682.26,487.5c-0.07,0-0.21,0-0.28-0.07c-0.21-0.14-0.28-0.49-0.14-0.7c0.07-0.07,4.74-7.25,11.5-12.12
					c0.21-0.14,0.56-0.14,0.7,0.14c0.14,0.21,0.14,0.56-0.14,0.7c-6.62,4.74-11.22,11.77-11.29,11.84
					C682.61,487.43,682.4,487.5,682.26,487.5z"/>
			</g>
			<g class="st16">
				<path class="st17" d="M685.25,486.46c-0.14,0-0.28-0.07-0.42-0.21c-0.21-0.21-0.14-0.56,0.07-0.7
					c0.07-0.07,8.99-7.25,20.27-9.34c0.28-0.07,0.56,0.14,0.63,0.42c0.07,0.28-0.14,0.56-0.42,0.63
					c-11.08,2.02-19.72,8.99-19.86,9.06C685.53,486.46,685.39,486.46,685.25,486.46z"/>
			</g>
			<g class="st16">
				<path class="st17" d="M684.77,488.48c-0.21,0-0.49-0.14-0.49-0.42c-0.07-0.28,0.14-0.56,0.42-0.63
					c0.49-0.07,11.22-2.16,16.93-0.98c0.28,0.07,0.49,0.35,0.42,0.63c-0.07,0.28-0.35,0.49-0.63,0.42
					c-5.5-1.18-16.37,0.98-16.51,0.98C684.84,488.48,684.77,488.48,684.77,488.48z"/>
			</g>
		</g>
		<g class="st16">
			<g class="st16">
				<path class="st17" d="M673.48,487.5c-0.14,0-0.35-0.07-0.42-0.21c-0.07-0.07-4.6-7.11-11.29-11.84
					c-0.21-0.14-0.28-0.49-0.14-0.7c0.14-0.21,0.49-0.28,0.7-0.14c6.83,4.81,11.5,12.05,11.5,12.12c0.14,0.21,0.07,0.56-0.14,0.7
					C673.62,487.5,673.55,487.5,673.48,487.5z"/>
			</g>
			<g class="st16">
				<path class="st17" d="M670.41,486.46c-0.14,0-0.21-0.07-0.35-0.14c-0.07-0.07-8.78-7.11-19.86-9.06
					c-0.28-0.07-0.49-0.35-0.42-0.63c0.07-0.28,0.35-0.49,0.63-0.42c11.29,2.09,20.2,9.27,20.27,9.34c0.21,0.21,0.28,0.49,0.07,0.7
					C670.69,486.39,670.55,486.46,670.41,486.46z"/>
			</g>
			<g class="st16">
				<path class="st17" d="M670.9,488.48L670.9,488.48c-0.21,0-11.08-2.16-16.58-0.98c-0.28,0.07-0.56-0.14-0.63-0.42
					c-0.07-0.28,0.14-0.56,0.42-0.63c5.71-1.18,16.44,0.91,16.93,0.98c0.28,0.07,0.49,0.35,0.42,0.63
					C671.39,488.34,671.18,488.48,670.9,488.48z"/>
			</g>
		</g>
	</g>
	<path class="st24" d="M704.13,216c3.62,2.79,5.92,6.97,7.11,11.43c1.53,5.92,1.18,12.19-0.28,18.11
		c-1.46,5.92-4.04,11.5-6.97,16.93c-0.56,0.98-1.11,2.02-2.09,2.65c-0.84,0.56-1.88,0.7-2.93,0.84c-12.12,1.53-24.38,3-36.51,1.39
		c-2.79-0.35-5.71-0.98-7.73-2.93c-2.65-2.51-3-6.55-3.14-10.17c-0.14-3.2-0.21-6.41-0.21-9.68c0-7.18-10.66-9.13-8.43-15.95
		c0.84-2.65,12.96-10.59,14.98-12.54c1.53-1.46,3.41-2.44,5.29-3.2c6.41-2.65,13.59-3.48,20.48-2.37c3.48,0.56,6.41,3.07,9.82,2.79
		C697.52,213,701,213.63,704.13,216z"/>
	<path class="st9" d="M692.85,282.39h-24.8v28.98h24.8V282.39z"/>
	<path class="st17" d="M692.85,294.79v-12.4h-24.8v19.37C671.67,302.25,686.16,303.29,692.85,294.79z"/>
	<path class="st9" d="M664.63,307.89c0,0,14.56-3.41,31.98,0c0,0-4.39,9.96-17.42,9.96C666.16,317.85,664.63,307.89,664.63,307.89z"
		/>
	<path class="st18" d="M743.57,327.54c-2.51-8.99-10.45-10.38-10.45-10.38s-20.9-5.78-38.11-9.54c0,0-3.76,9.96-17.77,9.75
		c-12.12-0.21-11.01-9.75-11.01-9.75c-7.8,1.25-27.59,5.85-35.39,9.48c0,0-8.22,2.72-8.99,12.12c0,0-0.14,4.25,8.78,10.03
		c0.56,9.89,1.81,23.55,4.53,41.94c3.14,21.46,1.95,32.68,1.88,62.36c0,0,25.43,10.66,81.45-0.07c0,0-2.02-31.21,0.77-54.83
		c2.23-19.02,9.82-37.55,11.01-47.72l0,0C746.01,334.3,743.57,327.54,743.57,327.54z"/>
	<path class="st9" d="M738.06,324.89c-3.83-4.88-10.94-5.71-15.75-1.88c-4.88,3.83-5.71,10.87-1.88,15.75
		c0.63,0.77,48.7,51.21,48.7,51.21c3.27,4.04,9.13,4.67,13.24,1.46s4.81-9.13,1.67-13.24L738.06,324.89z"/>
	<path class="st9" d="M782.79,391.01c3.76-3.55,3.9-9.48,0.42-13.31c-3.55-3.83-9.61-4.18-13.45-0.7c0,0-14.35,9.41-50.51,46.89
		l8.22,8.92c0,0,38.67-23.62,54.76-41.31C782.37,391.29,782.79,391.01,782.79,391.01z"/>
	<path class="st18" d="M770.6,357.08l-29.89-34.63c-5.02-6.27-14.21-7.39-20.55-2.37c-6.34,5.02-7.45,14.21-2.44,20.55
		c0.42,0.56,15.68,16.51,32.61,34.28C755.55,371.08,764.12,364.26,770.6,357.08z"/>
	<path class="st9" d="M731.03,423.69c-1.88-5.43-4.81-4.6-4.81-4.6l-4.18,0.21c-3.62-1.81-5.57-4.67-7.39-5.29
		c-3.34-1.05-4.46-4.32-5.16-4.04c-1.53,0.56-1.95,2.02-1.25,3.34c0.98,1.88,3.2,3.62,3.2,3.62c-1.46-0.56-7.52-2.37-9.68-2.65
		c-1.88-0.21-7.25,3-7.87,3.34c-0.84,0.42-1.95,1.25-1.6,2.02c0.63,1.32,2.16,1.25,3.34,0.91c1.32-0.35,4.18-2.44,5.23-2.16
		c0.63,0.14,4.32,1.25,4.67,1.39c0,0-4.6,1.81-6.55,2.51c-2.3,0.84-7.04,2.79-7.04,2.79c-3.76,2.37,0.91,3.83,0.91,3.83
		c-0.28,0.21-1.25,1.05-0.91,1.81c0.56,1.32,2.51,1.32,3,1.32c1.53-0.07,6.13-1.53,6.27-1.53l6.69,0.21
		c-2.02,1.53-3.2,2.44-5.71,4.18c-0.42,0.28-3.14,1.95-3.27,2.37c-0.21,0.49,0,0.98,0.42,1.18c0.98,0.49,2.09,0.42,3.2,0.07
		c0.49-0.14,2.58-1.11,3.69-1.74c4.32-2.51,6.76-3.34,10.73-0.42c5.71,4.18,11.98-4.32,11.98-4.32S732.91,429.12,731.03,423.69z"/>
	<path class="st17" d="M711.52,416.86l3.07,1.11C714.51,417.97,714.86,417.28,711.52,416.86z"/>
	<path class="st17" d="M692.78,428.77c0,0,6.27-2.23,7.73-2.58c1.46-0.42,8.5-0.28,7.94-1.81
		C708.38,424.38,706.29,422.57,692.78,428.77z"/>
	<path class="st17" d="M705.53,419.71c0,0,3.55-0.49,2.72-0.84C707.34,418.46,706.22,419.44,705.53,419.71z"/>
	<path class="st9" d="M626.38,324.96c3.83-4.88,10.94-5.71,15.75-1.81c4.88,3.83,5.71,10.94,1.81,15.75
		c-0.63,0.77-48.84,51.07-48.84,51.07c-3.27,3.97-9.2,4.67-13.24,1.46s-4.81-9.13-1.67-13.24L626.38,324.96z"/>
	<path class="st9" d="M580.61,390.03c-3.34-3.97-2.86-9.89,1.05-13.31c3.9-3.41,9.96-3.14,13.45,0.7c0,0,13.24,10.87,45.22,51.97
		l-8.5,7.39c0,0-36.58-27.1-50.72-46.33C580.96,390.38,580.61,390.03,580.61,390.03z"/>
	<path class="st18" d="M593.71,357.08l29.96-34.49c5.02-6.27,14.21-7.32,20.55-2.3c6.34,5.02,7.39,14.28,2.37,20.62
		c-0.42,0.56-15.75,16.51-32.68,34.21C608.68,371.15,600.18,364.33,593.71,357.08z"/>
	<path class="st9" d="M638.02,413.72c0,0,1.46-4.81-0.7-6.13c-2.09-1.32-3.55,7.73-3.55,7.73L638.02,413.72z"/>
	<path class="st9" d="M655.5,421.53c-0.21-0.14-7.32-3.76-8.36-3.97c-0.63-0.14-5.85-0.7-5.85-0.7l3.97-1.11
		c1.67-0.49,4.67,2.09,6.97,1.46c2.09-0.56,1.95-2.09,1.11-2.37c-5.36-2.09-6.69-3.27-8.57-3.07c-3.14,0.28-4.81,0.91-5.99,1.11
		c-2.51,0.42-3.48,0-4.53,1.74c-0.07,0.14-3.07,5.5-4.88,16.72c-0.84,5.29,5.09,6.9,5.09,6.9c4.95,1.25,4.81-4.25,6.83-6.06
		c0.84-0.77,4.6,2.37,5.78,3.07c1.25,0.7,2.93,1.25,3.62,0.84c1.53-0.91,0.91-1.6,0.14-2.16c-1.11-0.91-8.78-6.27-8.78-6.27
		c0.07-0.28,0.14-0.49,0.14-0.84c0,0,3.9,1.25,5.78,2.09c1.67,0.77,4.67,2.09,6.13,1.18c1.39-0.84,0.7-1.95,0.28-2.37
		c-0.91-0.84-11.57-5.57-11.57-5.57s1.6-1.18,3.76-0.63c1.46,0.35,3.9,1.18,4.67,1.6c1.05,0.49,3.48,1.67,4.46,0.49
		C656.27,422.57,655.99,421.87,655.5,421.53z"/>
	<path class="st17" d="M641.57,431.98c0,0-1.88-1.32-2.3-1.46C638.92,430.44,638.71,430.93,641.57,431.98z"/>
	<path class="st17" d="M640.18,433.23c0,0-3.07-0.42-3.41-0.77C636.34,432.12,635.09,433.65,640.18,433.23z"/>
	<path class="st17" d="M641.92,427.52c0,0-3.83-1.81-3.55-2.51c0.35-0.91,2.79,1.05,3.76,1.74L641.92,427.52z"/>
	<path class="st17" d="M642.75,422.01c0,0-4.32-0.84-4.18-1.88C638.71,419.16,642.75,422.01,642.75,422.01z"/>
	<path class="st17" d="M641.29,416.86c0,0-3.2-0.7-3.41-1.32C637.6,414.91,639.06,415.39,641.29,416.86z"/>
	<path class="st9" d="M707.55,265.6c4.04,0,7.32-3.27,7.32-7.32c0-4.04-3.27-7.32-7.32-7.32s-7.32,3.27-7.32,7.32
		C700.23,262.33,703.51,265.6,707.55,265.6z"/>
	<path class="st25" d="M708.24,262.19c1.95,0,3.48-1.6,3.48-3.48c0-1.95-1.6-3.48-3.48-3.48c-1.95,0-3.48,1.6-3.48,3.48
		C704.76,260.66,706.36,262.19,708.24,262.19z"/>
	<path class="st9" d="M660.8,226.03c13.52-15.82,39.36-9.27,44.31,10.87c2.23,9.06,3.69,20.34,1.95,31.7
		c-3.97,25.57-20.13,36.37-38.18,27.94c-18.11-8.43-19.79-44.8-13.86-60.68C656.34,232.23,658.36,228.89,660.8,226.03z"/>
	<path class="st24" d="M707.48,251.04c0,0-2.72-0.28-5.16,3.76c0,0-4.67-30.45-16.65-29.4c0,0-15.82,0.63-32.05,8.43
		c-13.93,6.69-12.19-23.83,12.75-24.73c28.91-1.05,25.71,1.88,25.71,1.88S719.88,201.71,707.48,251.04z"/>
	<path class="st24" d="M695.84,230.35c0,0,2.65-16.72-2.51-23.34c-5.16-6.69-8.85-5.92-12.05-2.79c0,0-6.41-6.76-10.59-0.49
		c-4.25,6.27-7.04,1.6-9.54,0c-2.44-1.6-9.41-2.09-7.45,4.6c0,0-13.79-8.22-17.49,0.49s7.32,12.26,7.32,12.26
		s-6.55,21.6,12.61,12.54C679.33,222.61,695.84,230.35,695.84,230.35z"/>
	<path class="st26" d="M615.37,150.85l10.31,32.61l93.43-82.91L615.37,150.85z"/>
	<path class="st13" d="M582.14,139.99l33.3,10.87l103.67-50.23L582.14,139.99z"/>
	<path class="st13" d="M627.01,154.13l92.1-53.51l-56.99,65.07L627.01,154.13z"/>
	<path class="st27" d="M625.68,183.53l1.32-29.4l23.27,7.66L625.68,183.53z"/>
	<path class="st28" d="M281.65,589.08l-18.6-3.34l-14.56-26.89l-33.58,18.18l-11.98-2.16l-4.74,11.22l-33.58,18.18l14.56,26.89
		l-7.32,17.42l40.97,75.52l109.8-59.5L281.65,589.08z"/>
	<path class="st29" d="M271.41,583.79l-109.66,59.5l30.1,55.39l109.66-59.5L271.41,583.79z"/>
	<path class="st13" d="M161.68,643.36l31-73.71l78.66,14.21L161.68,643.36z"/>
	<path class="st19" d="M238.24,553.55l-83.74,45.43l54.55,100.67l83.74-45.43L238.24,553.55z"/>
	<path class="st30" d="M170.66,616.39l1.81,3.34l72.25-39.22l-1.81-3.34L170.66,616.39z"/>
	<path class="st30" d="M176.17,626.57l72.25-39.16l-1.81-3.34l-72.25,39.22L176.17,626.57z"/>
	<path class="st30" d="M179.86,633.39l72.25-39.22l-1.81-3.34l-72.25,39.22L179.86,633.39z"/>
	<path class="st30" d="M183.62,640.22l72.25-39.16l-1.81-3.34l-72.25,39.16L183.62,640.22z"/>
	<path class="st30" d="M187.25,647.05l72.25-39.22l-1.81-3.34l-72.25,39.22L187.25,647.05z"/>
	<path class="st30" d="M245.35,620.37l-56.02,30.38l1.81,3.34l56.02-30.38L245.35,620.37z"/>
	<path class="st13" d="M161.68,643.36l40.97,75.45l109.66-59.5l-40.97-75.45l-30.59,74.48L161.68,643.36z"/>
	<path class="st13" d="M202.64,718.88l31-73.71l78.66,14.14L202.64,718.88z"/>
	<path class="st28" d="M202.64,718.88l23.55-63.26l2.86,0.56L202.64,718.88z"/>
	<path class="st28" d="M312.37,659.31l-67.02-12.05l1.11-2.65L312.37,659.31z"/>
	<path class="st28" d="M231.97,193.77V98.6c0-15.12,7.73-28.5,19.44-36.3c11.5,8.85,20.62,21.18,25.64,35.95
		C290.15,137.13,270.08,179.28,231.97,193.77z"/>
	<path class="st31" d="M200.55,192.24c42.08,0,76.22-34.14,76.22-76.22c0-42.08-34.14-76.22-76.22-76.22s-76.22,34.14-76.22,76.22
		S158.47,192.24,200.55,192.24z"/>
	<path class="st31" d="M202.57,184.92c37.27,0,67.44-30.17,67.44-67.44s-30.24-67.44-67.44-67.44s-67.44,30.17-67.44,67.44
		S165.3,184.92,202.57,184.92z"/>
	<path class="st32" d="M220.9,177.33c-34.84,11.77-72.6-6.62-85-41.04c0.14,0.49,0.28,0.91,0.42,1.39
		c11.91,35.32,50.16,54.27,85.49,42.36c35.32-11.91,54.27-50.16,42.36-85.49c-0.14-0.49-0.35-0.91-0.49-1.32
		C274.68,128.14,255.8,165.55,220.9,177.33z"/>
	<path class="st28" d="M180.91,57.77c34.35-11.57,71.55,6.06,84.44,39.57c-0.28-0.98-0.56-1.88-0.91-2.86
		c-11.91-35.32-50.16-54.27-85.49-42.36s-54.27,50.16-42.36,85.49c0.35,0.98,0.7,1.88,1.05,2.79
		C127.68,105.85,146.56,69.34,180.91,57.77z"/>
	<g class="st33">
		<path class="st28" d="M200.9,154.34l-34.97-29.33l6.83-8.15l25.57,21.46l36.3-58.52l9.06,5.57L200.9,154.34z"/>
	</g>
	<path class="st19" d="M199.37,150.51l-34.97-29.33l6.83-8.15l25.57,21.46l36.3-58.52l9.06,5.57L199.37,150.51z"/>
	<g id="button" class="st34">
		<path class="st35" d="M479.86,609.08H318.64c-5.09,0-9.27-4.18-9.27-9.27v-23.27c0-5.09,4.18-9.27,9.27-9.27h161.22
			c5.09,0,9.27,4.18,9.27,9.27v23.27C489.13,604.97,485.02,609.08,479.86,609.08z"/>
		<text transform="matrix(1 0 0 1 344.4683 593.0605)" class="st36 st37 st38">Mi despensa</text>
		<g class="st39">
			<path class="st2" d="M356.48,593.06v-7.04l-3.41,5.78h-1.25l-3.41-5.64v6.9h-2.51v-11.7h2.23l4.39,7.25l4.32-7.25h2.23v11.7
				L356.48,593.06L356.48,593.06z"/>
			<path class="st2" d="M361.77,582.4c-0.28-0.28-0.42-0.63-0.42-1.05s0.14-0.77,0.42-1.05c0.28-0.28,0.7-0.42,1.18-0.42
				s0.84,0.14,1.18,0.42c0.28,0.28,0.42,0.63,0.42,0.98c0,0.42-0.14,0.77-0.42,1.05s-0.7,0.42-1.18,0.42
				C362.47,582.81,362.05,582.67,361.77,582.4z M361.63,584.07h2.58v8.99h-2.58V584.07z"/>
			<path class="st2" d="M380.58,580.65v12.4h-2.51v-1.05c-0.63,0.77-1.6,1.18-2.79,1.18c-0.84,0-1.6-0.21-2.3-0.56
				c-0.7-0.35-1.25-0.91-1.6-1.6s-0.56-1.53-0.56-2.44s0.21-1.74,0.56-2.44s0.91-1.25,1.6-1.6c0.7-0.35,1.46-0.56,2.3-0.56
				c1.11,0,2.02,0.35,2.72,1.11v-4.39h2.58L380.58,580.65L380.58,580.65z M377.38,590.41c0.42-0.42,0.63-1.05,0.63-1.81
				s-0.21-1.39-0.63-1.81c-0.42-0.42-0.98-0.7-1.67-0.7s-1.25,0.21-1.67,0.7c-0.42,0.42-0.63,1.05-0.63,1.81s0.21,1.39,0.63,1.81
				c0.42,0.42,0.98,0.7,1.67,0.7C376.4,591.03,376.89,590.83,377.38,590.41z"/>
			<path class="st2" d="M391.73,589.29h-6.83c0.14,0.56,0.42,0.98,0.84,1.32c0.49,0.35,1.05,0.49,1.67,0.49
				c0.49,0,0.91-0.07,1.25-0.21s0.7-0.35,1.05-0.63l1.39,1.53c-0.84,0.98-2.09,1.46-3.69,1.46c-1.05,0-1.88-0.21-2.72-0.63
				c-0.77-0.42-1.39-0.98-1.81-1.67c-0.42-0.7-0.63-1.53-0.63-2.37c0-0.91,0.21-1.67,0.63-2.37s0.98-1.25,1.74-1.67
				c0.7-0.42,1.53-0.63,2.44-0.63c0.91,0,1.67,0.21,2.37,0.56c0.7,0.35,1.25,0.91,1.67,1.6c0.42,0.7,0.63,1.53,0.63,2.44
				C391.8,588.6,391.8,588.87,391.73,589.29z M385.67,586.44c-0.42,0.35-0.63,0.77-0.77,1.39h4.46c-0.07-0.56-0.35-1.05-0.77-1.39
				c-0.42-0.35-0.91-0.49-1.46-0.49C386.5,585.88,386.02,586.09,385.67,586.44z"/>
			<path class="st2" d="M394.38,592.92c-0.7-0.21-1.25-0.42-1.67-0.7l0.84-1.88c0.42,0.28,0.91,0.49,1.46,0.63
				c0.56,0.14,1.11,0.21,1.67,0.21c1.11,0,1.67-0.28,1.67-0.84c0-0.28-0.14-0.42-0.42-0.56c-0.28-0.14-0.77-0.21-1.39-0.28
				c-0.77-0.14-1.32-0.21-1.81-0.42c-0.49-0.14-0.91-0.42-1.25-0.77c-0.35-0.35-0.56-0.91-0.56-1.6c0-0.56,0.14-1.05,0.49-1.53
				c0.35-0.42,0.84-0.77,1.46-1.05c0.63-0.28,1.39-0.35,2.23-0.35c0.63,0,1.25,0.07,1.88,0.21s1.18,0.35,1.53,0.56l-0.84,1.88
				c-0.77-0.42-1.67-0.7-2.58-0.7c-0.56,0-0.98,0.07-1.25,0.21c-0.28,0.14-0.42,0.35-0.42,0.63s0.14,0.49,0.42,0.56
				c0.28,0.14,0.77,0.21,1.46,0.35c0.77,0.14,1.32,0.28,1.81,0.42c0.49,0.14,0.91,0.42,1.25,0.77c0.35,0.35,0.49,0.91,0.49,1.53
				c0,0.56-0.14,1.05-0.49,1.46s-0.84,0.77-1.46,1.05c-0.63,0.21-1.39,0.35-2.3,0.35C395.84,593.19,395.07,593.12,394.38,592.92z"/>
			<path class="st2" d="M409.98,584.49c0.7,0.42,1.25,0.91,1.6,1.6c0.42,0.7,0.56,1.53,0.56,2.44s-0.21,1.74-0.56,2.44
				c-0.42,0.7-0.91,1.25-1.6,1.6c-0.7,0.42-1.46,0.56-2.3,0.56c-1.11,0-2.02-0.35-2.72-1.11v4.18h-2.58v-12.26h2.51v1.05
				c0.63-0.77,1.6-1.18,2.86-1.18C408.59,583.93,409.29,584.14,409.98,584.49z M408.94,590.41c0.42-0.42,0.63-1.05,0.63-1.81
				s-0.21-1.39-0.63-1.81c-0.42-0.42-0.98-0.7-1.67-0.7s-1.18,0.21-1.67,0.7c-0.42,0.42-0.63,1.05-0.63,1.81s0.21,1.39,0.63,1.81
				c0.42,0.42,0.98,0.7,1.67,0.7S408.52,590.83,408.94,590.41z"/>
			<path class="st2" d="M422.73,589.29h-6.83c0.14,0.56,0.42,0.98,0.84,1.32c0.49,0.35,1.05,0.49,1.67,0.49
				c0.49,0,0.91-0.07,1.25-0.21s0.7-0.35,1.05-0.63l1.39,1.53c-0.84,0.98-2.09,1.46-3.69,1.46c-1.05,0-1.88-0.21-2.72-0.63
				c-0.77-0.42-1.39-0.98-1.81-1.67c-0.42-0.7-0.63-1.53-0.63-2.37c0-0.91,0.21-1.67,0.63-2.37s0.98-1.25,1.74-1.67
				c0.7-0.42,1.53-0.63,2.44-0.63s1.67,0.21,2.37,0.56c0.7,0.35,1.25,0.91,1.67,1.6c0.42,0.7,0.63,1.53,0.63,2.44
				C422.73,588.6,422.73,588.87,422.73,589.29z M416.6,586.44c-0.42,0.35-0.63,0.77-0.77,1.39h4.46c-0.07-0.56-0.35-1.05-0.77-1.39
				c-0.42-0.35-0.91-0.49-1.46-0.49C417.51,585.88,417.02,586.09,416.6,586.44z"/>
			<path class="st2" d="M432.7,584.9c0.7,0.7,1.05,1.67,1.05,3v5.16h-2.58v-4.74c0-0.7-0.14-1.25-0.49-1.6
				c-0.28-0.35-0.77-0.56-1.32-0.56c-0.63,0-1.18,0.21-1.6,0.63c-0.42,0.42-0.56,1.05-0.56,1.81v4.46h-2.58v-8.99h2.51v1.05
				c0.35-0.35,0.77-0.7,1.25-0.91c0.49-0.21,1.05-0.28,1.67-0.28C431.09,583.93,432,584.28,432.7,584.9z"/>
			<path class="st2" d="M436.88,592.92c-0.7-0.21-1.25-0.42-1.67-0.7l0.84-1.88c0.42,0.28,0.91,0.49,1.46,0.63
				c0.56,0.14,1.11,0.21,1.67,0.21c1.11,0,1.67-0.28,1.67-0.84c0-0.28-0.14-0.42-0.42-0.56c-0.28-0.14-0.77-0.21-1.39-0.28
				c-0.77-0.14-1.32-0.21-1.81-0.42c-0.49-0.14-0.91-0.42-1.25-0.77c-0.35-0.35-0.56-0.91-0.56-1.6c0-0.56,0.14-1.05,0.49-1.53
				c0.35-0.49,0.84-0.77,1.46-1.05c0.63-0.28,1.39-0.35,2.23-0.35c0.63,0,1.25,0.07,1.88,0.21c0.63,0.14,1.18,0.35,1.53,0.56
				l-0.84,1.88c-0.77-0.42-1.67-0.7-2.58-0.7c-0.56,0-0.98,0.07-1.25,0.21c-0.28,0.14-0.42,0.35-0.42,0.63s0.14,0.49,0.42,0.56
				c0.28,0.14,0.77,0.21,1.46,0.35c0.77,0.14,1.32,0.28,1.81,0.42c0.49,0.14,0.91,0.42,1.25,0.77c0.35,0.35,0.49,0.91,0.49,1.53
				c0,0.56-0.14,1.05-0.49,1.46c-0.35,0.42-0.84,0.77-1.46,1.05c-0.63,0.21-1.39,0.35-2.3,0.35
				C438.34,593.19,437.57,593.12,436.88,592.92z"/>
			<path class="st2" d="M451.79,584.9c0.77,0.7,1.11,1.67,1.11,3v5.16h-2.44v-1.11c-0.49,0.84-1.39,1.25-2.72,1.25
				c-0.7,0-1.32-0.14-1.81-0.35c-0.49-0.21-0.91-0.56-1.18-0.98c-0.28-0.42-0.42-0.91-0.42-1.39c0-0.84,0.35-1.46,0.98-1.95
				c0.63-0.49,1.6-0.7,2.93-0.7h2.09c0-0.56-0.14-0.98-0.49-1.32c-0.35-0.28-0.84-0.49-1.53-0.49c-0.49,0-0.98,0.07-1.39,0.21
				s-0.84,0.35-1.18,0.63l-0.91-1.81c0.49-0.35,1.05-0.63,1.74-0.84c0.7-0.21,1.39-0.28,2.09-0.28
				C449.97,583.93,451.02,584.28,451.79,584.9z M449.56,591.1c0.35-0.21,0.56-0.49,0.77-0.91v-0.91h-1.81c-1.05,0-1.6,0.35-1.6,1.05
				c0,0.35,0.14,0.63,0.42,0.77c0.28,0.21,0.63,0.28,1.05,0.28C448.79,591.45,449.21,591.31,449.56,591.1z"/>
		</g>
	</g>
	<g class="st34">
		<rect x="379.4" y="391.71" class="st35" width="39.71" height="97.75"/>
		<path class="st35" d="M399.25,301.97L399.25,301.97c-51.77,0-93.78,41.94-93.78,93.78v93.78h39.71v-93.78
			c0-29.82,24.25-53.99,53.99-53.99c29.75,0,53.99,24.25,53.99,53.99v93.78h39.71v-93.78C493.03,343.91,451.02,301.97,399.25,301.97
			z"/>
	</g>
	<g>
		<path class="st40" d="M499.3,426.61c0,20.55,0,38.6,0,56.57c0,1.25-0.28,1.6-1.6,1.6c-12.12-0.07-24.25-0.07-36.44,0
			c-1.25,0-1.6-0.35-1.6-1.6c0-30.38,0.07-60.75,0-91.13c0-8.57-0.98-17.07-3.55-25.29c-2.3-7.32-6.13-13.66-11.43-19.23
			c-6.27-6.62-13.24-12.12-21.67-15.68c-5.71-2.44-11.77-3.76-17.98-4.11c-7.32-0.42-14.56,0.07-21.6,2.3
			c-7.11,2.23-13.52,5.78-19.16,10.59c-5.92,5.02-11.36,10.45-15.12,17.35c-3.69,6.69-5.5,14-6.55,21.53
			c-0.84,6.27-0.84,12.61-0.84,18.95c0,28.15,0,56.29,0,84.44c0,2.02,0.35,1.88-1.88,1.88c-11.98,0-24.04,0-36.02,0
			c-0.98,0-1.53-0.07-1.53-1.32c0.14-30.93-0.21-61.87,0.28-92.8c0.07-6.13,0-12.33,0.84-18.39c0.56-4.46,1.67-8.92,3.14-13.17
			c2.3-6.62,4.53-13.31,8.08-19.44c9.75-16.93,23.06-30.31,40.41-39.36c16.58-8.64,34.42-12.12,53.16-10.73
			c12.47,0.91,24.38,4.18,35.74,9.41c7.45,3.41,14,8.08,20.2,13.38c10.8,9.2,19.58,20.07,25.5,33.02
			c3.27,7.11,5.71,14.56,7.52,22.29c1.81,7.94,1.46,16.02,1.74,23.97C499.44,404.11,499.3,416.65,499.3,426.61z"/>
		<path class="st41" d="M381.49,434.28c0-16.3,0-32.68,0-48.98c0-1.18,0.28-1.53,1.46-1.46c11.98,0.07,23.97,0.07,36.02,0
			c1.05,0,1.32,0.28,1.32,1.32c0,32.75,0,65.49,0,98.17c0,1.11-0.21,1.46-1.39,1.46c-11.98-0.07-23.9-0.07-35.88,0
			c-1.25,0-1.53-0.35-1.53-1.6C381.49,466.88,381.49,450.58,381.49,434.28z"/>
		<path class="st42" d="M395.14,572.08c0.56-2.4,2.24-3.92,4.48-4.08c1.6-0.08,2.16,0.4,2,2c-0.32,3.28-1.2,6.4-2.88,9.36
			c-0.8,1.44-1.36,2.96-2.32,4.24c-2.4,3.04-1.36,6.48-1.04,9.76c0.16,1.52,2.08,1.84,3.04,0.56c0.72-0.88,1.28-1.76,1.12-3.12
			c-0.08-1.12,0.16-2.24,0.4-3.44c0.08-0.48,0.4-0.96,0.64-1.44c0.56-0.88,1.44-0.8,2.24-0.48c0.8,0.24,0.24,0.96,0.16,1.44
			c-0.16,1.52-0.4,2.96-0.56,4.48c-0.08,0.88,0,1.84,0.8,2.16c0.96,0.4,1.68-0.4,2.24-1.04c1.76-2.16,2.48-4.64,2.56-7.36
			c0-0.96,0.16-2,1.52-2c0.96,0,1.76,0.24,1.44,1.6c-0.4,1.84-0.56,3.76-0.88,5.84c0.72-0.16,0.88-0.72,1.12-1.12
			c0.8-1.44,1.84-2.8,3.04-4c0.96-1.04,1.76-0.88,2.4,0.48c0.32,0.8,0.48,1.6,0.4,2.48c-0.24,1.68,0.08,3.36,0.16,4.96
			c0,0.24,0.08,0.56,0.16,0.72c0.32,0.56,0.64,1.36,1.36,1.44c0.56,0.08,0.96-0.56,1.28-1.04c1.12-1.92,2.4-3.76,2.8-6.08
			c0.32-2.16,1.28-4.08,2.8-5.68c1.28-1.28,2.64-1.52,3.76-0.72c1.36,0.96,1.44,2.08,0.48,3.84c-0.72,1.28-1.84,2.16-2.72,3.2
			c-0.96,1.12-1.6,2.32-1.04,3.84c0.56,1.68,2,2,3.2,0.72c1.12-1.2,2.08-2.48,2.32-4.32c0.16-1.36,0.8-2.72,1.44-3.92
			c0.16-0.4,0.4-0.8,0.64-1.04c0.88-1.04,1.84-1.92,3.28-1.68c1.36,0.24,1.52,1.44,1.92,2.56c0.24-0.16,0.4-0.24,0.56-0.4
			c0.48-0.96,1.2-1.44,2.32-0.8c1.2,0.64,0.72,1.6,0.4,2.48c-0.72,1.68-1.36,3.36-1.76,5.12c-0.16,0.56-0.24,1.2,0.08,2.08
			c1.44-1.04,2.24-2.48,3.04-3.92c0.32-0.48,0.32-1.2,1.2-1.12c0.48,0,0.48-0.56,0.64-0.96c1.44-4.24,2-8.64,2.56-13.03
			c0.24-1.92,0.48-3.84,0.72-5.76c0.08-0.8,0.16-1.84,1.28-1.76c1.2,0.08,1.68,1.04,1.44,2.16c-0.32,2.08-0.88,4.16-1.28,6.24
			c-0.64,4-1.28,8-1.92,11.99c-0.08,0.48-0.16,0.88-0.32,1.36c-0.24,0.8-0.4,1.76-1.28,2c-1.04,0.32-1.04-0.96-1.76-1.44
			c-0.8,1.6-1.76,2.96-2.8,4.32c-0.64,0.88-1.28,2.16-2.72,1.68c-1.36-0.48-1.68-1.76-1.68-3.12c0-0.24,0-0.4,0-0.88
			c-0.8,0.72-1.36,1.36-2,1.92c-1.28,1.04-2.48,1.12-3.6,0.08c-0.88-0.88-1.04,0.08-1.36,0.48c-1.28,1.36-2.56,2.4-4.64,2.08
			c-2-0.32-2.48-1.84-3.2-3.6c-0.64,1.04-1.2,1.92-1.68,2.8c-0.96,1.76-2.56,2.24-4.32,2.32c-0.72,0.08-1.2-0.48-1.44-1.04
			c-0.96-1.92-1.84-3.84-1.52-6.08c0.08-0.56,0.16-1.12-0.16-1.76c-1.2,1.36-1.76,2.96-2.72,4.32c-0.56,0.8-0.64,2.08-1.92,1.92
			c-1.36-0.16-1.12-1.52-1.44-2.64c-1.04,1.2-1.92,2.4-3.28,2.88c-1.68,0.56-2.8-0.4-3.76-1.52c-0.08,0.08-0.16,0.08-0.16,0.16
			c-1.04,1.36-2,2.96-4.08,2.56c-2.16-0.4-3.76-2.72-3.84-5.12c-0.16-5.2,0.32-10.32,1.52-15.35c0-0.16,0-0.32,0-0.48
			c0.64-0.24,0.56,0.24,0.48,0.56c-0.08,0.56-0.32,1.04,0,1.76C394.82,575.92,394.98,574,395.14,572.08z M395.14,582.64
			c2.56-2,5.84-10.72,5.04-13.19C396.58,573.04,396.66,577.92,395.14,582.64z M436.97,584.32c-1.12,1.04-3.04,6.24-2.88,7.6
			c0,0.16-0.08,0.4,0.24,0.48c0.32,0.08,0.48-0.16,0.64-0.32c0.96-1.12,1.92-2.16,2.8-3.36c0.32-0.48,0.4-1.12,0.64-1.76
			C436.81,586.72,437.77,585.12,436.97,584.32z M425.85,588.4c1.52-1.12,2.56-2.32,3.12-3.76c0.16-0.4,0.56-0.96-0.08-1.28
			c-0.48-0.24-0.88,0.16-1.12,0.56C426.89,585.2,426.25,586.56,425.85,588.4z M414.18,587.76c0.16,2.08-0.08,4.24,0.56,6.32
			C414.98,591.91,414.58,589.83,414.18,587.76z"/>
		<path class="st43" d="M292.45,529.72c0,1.88,0,3.76,0,5.57c0,0.84-0.35,1.05-1.05,0.98c-0.63,0-1.32,0.07-1.32-0.91
			c0.14-3.97-0.28-7.94,0.21-11.84c0.42-3.34,2.23-5.57,5.5-6.34c3.14-0.7,6.2-0.35,8.43,2.37c0.42,0.56,0.63,0.98,1.32,0.14
			c1.95-2.51,5.57-3.48,8.78-2.51c3.2,0.98,5.16,3.34,5.36,6.83c0.21,3.76,0.07,7.52,0.14,11.29c0,0.91-0.56,0.91-1.18,0.91
			c-0.63,0-1.11-0.07-1.11-0.91c0-3.07,0-6.2,0-9.27c0-1.39-0.07-2.86-0.7-4.11c-1.18-2.44-3.55-3.34-6.76-2.72
			c-2.3,0.49-3.83,2.37-3.9,5.09c-0.07,3.62-0.07,7.18,0,10.8c0,0.84-0.21,1.18-1.11,1.25c-0.91,0-1.18-0.28-1.18-1.18
			c0.07-3.14,0.07-6.27,0-9.41c0-2.16-0.42-4.25-2.37-5.64c-1.88-1.32-3.97-1.25-5.99-0.49c-1.95,0.77-2.79,2.44-2.93,4.39
			c-0.14,1.88,0,3.83,0,5.71C292.52,529.72,292.52,529.72,292.45,529.72z"/>
		<path class="st43" d="M360.17,520.18c0-5.16,0-10.31,0-15.54c0-1.11,0.42-1.25,1.39-1.25c0.98,0,0.91,0.63,0.91,1.32
			c0,4.11,0,8.29,0,12.4c0,3.41,0,6.83,0,10.24c-0.07,4.11-2.44,7.59-6.06,8.85c-4.11,1.46-8.43,0.42-11.15-2.51
			c-3.83-4.18-3.55-14.35,4.46-16.37c3.62-0.91,7.04-0.42,9.75,2.58c0.14,0.14,0.21,0.42,0.28,0.63
			C359.89,520.39,360.03,520.32,360.17,520.18z M345.19,526.8c-0.07,4.88,2.79,7.94,7.32,7.94c4.6,0.07,7.59-3,7.66-7.73
			c0.07-4.88-2.86-8.01-7.45-8.01C348.12,518.99,345.26,521.99,345.19,526.8z"/>
		<path class="st43" d="M410.19,533.28c0,1.18,0,2.02,0,2.86c0,4.39,0,8.71,0,13.1c0,0.84-0.21,1.11-1.11,1.11
			c-0.7,0-1.18,0-1.18-0.98c0.07-7.87-0.07-15.75,0.07-23.55c0.07-5.09,4.25-8.78,9.54-8.78c5.36,0,9.48,3.62,9.82,8.78
			c0.35,5.57-1.88,9.41-6.55,10.73C416.81,537.67,413.26,536.83,410.19,533.28z M417.72,519.2c-4.6,0-7.52,2.93-7.52,7.59
			c0,5.09,2.79,8.08,7.45,8.08c4.6,0,7.45-3,7.45-7.87C425.17,522.2,422.31,519.2,417.72,519.2z"/>
		<path class="st43" d="M440.5,527.49c-2.44,0-4.81,0.07-7.25,0c-0.98,0-1.32,0.14-1.11,1.25c0.42,2.72,1.74,4.74,4.32,5.57
			c2.86,0.91,5.64,0.84,8.08-1.25c0.56-0.49,0.98-0.84,1.74-0.35c0.77,0.49,0.98,0.77,0.28,1.46c-2.3,2.37-5.16,3-8.22,2.72
			c-5.99-0.56-9.41-5.23-8.5-11.77c0.7-5.43,4.74-8.43,10.8-8.08c4.88,0.28,8.43,4.18,8.57,9.2c0,0.98-0.28,1.25-1.25,1.18
			C445.45,527.43,442.94,527.49,440.5,527.49z M439.45,525.47c2.09,0,4.18-0.07,6.27,0c0.98,0,1.11-0.35,0.91-1.18
			c-0.84-3.27-3.69-5.36-7.32-5.23c-3.55,0.14-5.99,1.88-6.9,4.88c-0.28,0.98-0.28,1.6,1.05,1.53
			C435.41,525.4,437.43,525.47,439.45,525.47z"/>
		<path class="st43" d="M376.89,527.49c-2.44,0-4.81,0.07-7.25,0c-1.18-0.07-1.32,0.42-1.11,1.39c0.7,4.18,3.97,6.48,8.5,5.85
			c1.53-0.21,3.07-0.63,4.11-1.88c0.84-0.91,1.6-0.28,2.09,0.21c0.63,0.63-0.21,1.05-0.56,1.39c-2.72,2.65-7.8,3.27-11.5,1.46
			c-3.76-1.81-5.5-5.5-5.02-10.59c0.42-4.39,3.27-7.45,7.59-8.22c4.6-0.84,8.92,1.11,10.8,4.81c0.7,1.39,0.91,2.93,1.05,4.46
			c0.07,0.84-0.28,1.11-1.11,1.05C381.98,527.43,379.4,527.49,376.89,527.49z M375.91,525.47c2.09,0,4.18-0.07,6.27,0
			c1.05,0.07,1.11-0.42,0.91-1.18c-1.05-3.48-3.9-5.5-7.66-5.16c-3.62,0.28-5.99,2.16-6.69,5.16c-0.21,0.84-0.07,1.25,0.91,1.25
			C371.73,525.47,373.82,525.47,375.91,525.47z"/>
		<path class="st43" d="M509.06,533.28c-1.88,2.37-4.25,3.48-7.04,3.62c-5.36,0.28-9.41-3.34-9.96-8.99
			c-0.42-4.46,1.81-8.5,5.64-10.1c4.11-1.74,8.92-0.7,11.64,2.44c1.6,1.81,2.16,3.97,2.23,6.27c0.07,2.93,0,5.85,0.07,8.71
			c0,0.84-0.28,1.11-1.11,1.11c-0.84,0-1.32-0.14-1.25-1.11C509.33,534.67,509.4,534.04,509.06,533.28z M494.35,527.63
			c0,2.3,0.91,4.88,3.62,6.27c2.65,1.39,5.43,1.32,8.08-0.21c2.86-1.67,4.11-6.13,2.86-9.75c-0.49-1.53-1.32-2.93-2.79-3.76
			c-2.65-1.53-5.43-1.6-8.08-0.21C495.33,521.43,494.35,524.01,494.35,527.63z"/>
		<path class="st43" d="M481.74,517.04c2.65,0.07,5.02,0.77,6.48,3.2c0.28,0.49,0.84,1.05,0,1.46c-0.63,0.35-1.18,0.49-1.74-0.28
			c-1.88-2.44-6.2-3.14-8.71-1.46c-1.05,0.7-1.46,1.67-1.39,2.93c0.07,1.18,0.84,1.67,1.74,2.02c1.32,0.56,2.79,0.84,4.18,1.11
			c1.46,0.28,2.93,0.77,4.18,1.46c2.86,1.6,3.14,5.5,0.7,7.59c-2.86,2.37-8.64,2.37-11.43,0c-0.56-0.42-0.98-0.98-1.25-1.6
			c-0.21-0.49-0.63-0.98,0.14-1.39c0.56-0.28,1.05-0.56,1.6,0.21c2.02,2.58,5.99,3.27,8.85,1.6c1.95-1.18,2.02-3.69,0-4.88
			c-1.25-0.7-2.65-0.91-4.04-1.18c-1.6-0.35-3.2-0.56-4.67-1.39c-3.07-1.74-3.27-5.92-0.35-7.94
			C477.7,517.39,479.65,516.97,481.74,517.04z"/>
		<path class="st43" d="M395.56,516.97c3.55,0,5.92,0.7,7.45,3.07c0.35,0.49,0.91,1.11,0.14,1.6c-0.63,0.42-1.25,0.49-1.81-0.35
			c-1.74-2.44-6.27-3-8.78-1.25c-1.05,0.7-1.32,1.74-1.25,3c0.07,1.11,0.84,1.53,1.67,1.88c1.32,0.56,2.79,0.84,4.18,1.11
			c1.46,0.28,2.93,0.7,4.25,1.46c2.86,1.67,3.14,5.64,0.56,7.73c-2.86,2.3-8.5,2.3-11.36-0.07c-0.56-0.42-0.98-0.98-1.25-1.53
			c-0.21-0.49-0.56-0.98,0.14-1.39c0.56-0.28,1.11-0.56,1.6,0.21c1.81,2.93,6.2,2.93,8.71,1.67c0.98-0.49,1.53-1.32,1.6-2.51
			c0.07-1.18-0.63-1.95-1.6-2.51c-1.25-0.7-2.65-0.84-4.04-1.18c-1.53-0.35-3.07-0.63-4.53-1.39c-3.34-1.6-2.93-6.27-0.28-8.01
			C392.64,517.46,394.45,516.97,395.56,516.97z"/>
		<path class="st43" d="M452.41,529.86c0.14-1.88-0.21-4.11,0.28-6.34c0.77-3.41,2.86-5.43,6.2-6.34c4.04-1.05,8.43,0.7,10.24,4.04
			c0.77,1.53,1.11,3.2,1.11,4.88c0.07,3,0,5.99,0,8.99c0,0.91-0.28,1.18-1.18,1.18c-0.91,0-1.18-0.28-1.18-1.18
			c0.07-2.93,0.07-5.92,0-8.85c-0.07-2.44-0.49-4.74-2.79-6.13c-4.53-2.93-10.1-0.21-10.38,5.09c-0.21,3.2-0.07,6.48-0.07,9.68
			c0,0.91-0.14,1.39-1.25,1.39c-1.11,0-1.11-0.63-1.05-1.39C452.48,533.35,452.41,531.81,452.41,529.86z"/>
		<path class="st42" d="M350.76,595.75c0.64-3.28,1.28-7.04,2-10.8c0.4-2.08,0.56-4.16,1.28-6.08c0.24-0.8-0.08-1.04-0.88-0.96
			c-0.48,0-1.04-0.08-1.12-0.64c-0.08-0.56,0.4-0.8,0.88-0.88c4.32-0.72,8.16-2.8,12.39-3.76c0.08,0,0.08-0.08,0.16-0.08
			c0.56-0.16,1.36-0.56,1.68,0.24c0.32,0.8-0.56,0.96-1.12,1.2c-1.76,0.56-3.44,1.28-5.2,1.6c-2.48,0.4-3.76,1.52-3.92,4.24
			c-0.08,1.92-0.88,3.84-1.36,5.76c-0.16,0.64-0.4,1.36,0,1.84c0.4,0.4,1.04-0.08,1.6-0.24c1.6-0.4,3.2-0.96,4.8-1.36
			c0.56-0.16,1.44-0.72,1.68,0.24c0.24,0.88-0.8,0.96-1.36,1.12c-2.16,0.56-4.32,1.04-6.48,1.92c-0.48,0.16-0.88,0.32-0.96,0.88
			c-0.48,2.32-0.88,4.72-1.36,7.04c-0.16,0.88,0,1.36,1.12,1.04c2.24-0.64,4.56-1.2,6.8-1.76c0.56-0.16,1.2-0.4,1.44,0.4
			c0.16,0.64-0.48,0.8-1.04,0.96c-2.56,0.72-5.12,1.44-7.68,2.08C351.88,600.07,350.68,598.87,350.76,595.75z M352.68,589.12
			c0.16,0,0.24,0,0.4,0c-0.08-1.76,0.48-3.44,0.48-5.28C353.32,585.68,353,587.44,352.68,589.12z"/>
		<path class="st42" d="M370.99,590.63c1.44-1.6,2.4-3.44,3.84-4.96c0.48-0.48,0.88-1.12,1.68-0.96c0.8,0.24,1.04,0.96,1.2,1.68
			c0.48,2,0,4.08,0.32,6.08c0.08,0.32,0,0.72,0.08,1.12c0.16,0.8,0.64,1.6,1.36,1.76c0.64,0.16,1.12-0.64,1.44-1.2
			c0.96-1.6,1.92-3.2,2.64-4.96c0.16-0.4,0.32-0.88,0.8-0.72c0.56,0.16,0.48,0.72,0.32,1.2c-0.96,2.16-2.08,4.32-3.52,6.24
			c-0.96,1.2-2.4,1.44-3.76,1.52c-0.72,0-1.12-0.48-1.44-1.04c-0.96-1.76-1.68-3.6-1.52-5.6c0.08-0.72,0-1.44-0.24-2.32
			c-0.88,1.52-1.84,3.12-2.8,4.64c-0.48,0.8-0.72,2.16-2,1.76c-1.28-0.4-1.2-1.68-1.12-2.8c0.16-2.32,0.4-4.56,0.56-6.88
			c0-0.32,0.16-0.56,0.24-0.88c0.24-1.12,1.04-1.36,2-1.12c1.12,0.24,0.96,1.04,0.8,1.84C371.63,586.96,371.31,588.8,370.99,590.63z
			 M375.31,587.6c0,1.84,0,3.76,0,5.6C375.95,591.35,375.31,589.52,375.31,587.6z"/>
		<path class="st43" d="M324.43,527.01c0-2.79,0-5.57,0-8.29c0-0.77,0.21-1.11,1.05-1.11c0.91,0,1.18,0.21,1.18,1.11
			c0,5.5,0,11.01,0,16.51c0,0.98-0.35,1.11-1.25,1.11c-0.91,0-1.05-0.42-1.05-1.18C324.43,532.44,324.43,529.72,324.43,527.01z"/>
		<path class="st43" d="M323.59,511.61c0-1.18,0.77-2.02,1.88-2.02s1.95,0.91,1.95,2.02c0,1.11-0.91,1.95-1.95,1.95
			C324.36,513.56,323.59,512.79,323.59,511.61z"/>
		<path class="st42" d="M405.38,575.52c-0.24,0.4-0.56,0.88-0.88,1.28c-0.8,0.96-1.68,1.84-2.4,2.88c-0.56,0.64-1.12,0.8-1.76,0.24
			c-0.72-0.56-0.48-1.2,0.08-1.76c1.04-1.04,2.08-2.16,3.2-3.2c0.32-0.32,0.8-0.48,1.28-0.24
			C405.22,574.8,405.3,575.12,405.38,575.52z"/>
		<path class="st42" d="M445.76,593.51c0.72,0.08,1.52,0.32,1.52,1.36c0,1.12-0.64,1.84-1.76,2c-1.12,0.16-1.44-0.64-1.52-1.6
			C443.84,594.15,444.56,593.59,445.76,593.51z"/>
	</g>
	<script  type="text/javascript">//	<![CDATA[  <-- For SVG support
	if ('WebSocket' in window) {
		(function () {
			function refreshCSS() {
				var sheets = [].slice.call(document.getElementsByTagName("link"));
				var head = document.getElementsByTagName("head")[0];
				for (var i = 0; i < sheets.length; ++i) {
					var elem = sheets[i];
					var parent = elem.parentElement || head;
					parent.removeChild(elem);
					var rel = elem.rel;
					if (elem.href && typeof rel != "string" || rel.length == 0 || rel.toLowerCase() == "stylesheet") {
						var url = elem.href.replace(/(&|\?)_cacheOverride=\d+/, '');
						elem.href = url + (url.indexOf('?') >= 0 ? '&' : '?') + '_cacheOverride=' + (new Date().valueOf());
					}
					parent.appendChild(elem);
				}
			}
			var protocol = window.location.protocol === 'http:' ? 'ws://' : 'wss://';
			var address = protocol + window.location.host + window.location.pathname + '/ws';
			var socket = new WebSocket(address);
			socket.onmessage = function (msg) {
				if (msg.data == 'reload') window.location.reload();
				else if (msg.data == 'refreshcss') refreshCSS();
			};
			if (sessionStorage && !sessionStorage.getItem('IsThisFirstTime_Log_From_LiveServer')) {
				console.log('Live reload enabled.');
				sessionStorage.setItem('IsThisFirstTime_Log_From_LiveServer', true);
			}
		})();
	}
	else {
		console.error('Upgrade your browser. This Browser is NOT supported WebSocket for Live-Reloading.');
	}
	// 
		]]>
</script>
	<g>
		<path class="st44" d="M111.74,270.69c0.74-2.58,6.75-2.82,7.29,0C117.73,269.16,113.17,269.42,111.74,270.69L111.74,270.69z"/>
	</g>
	<g>
		<path class="st44" d="M667.4,265.42c0.8-2.68,7.07-2.93,7.67,0C673.72,263.78,668.89,264.05,667.4,265.42L667.4,265.42z"/>
	</g>
</g>
<g id="Capa_2">
	<ellipse class="st19" cx="103.29" cy="258.9" rx="4.61" ry="6.33"/>
	<g>
		<path class="st45" d="M97.53,250.54c1.49-1.27,3.53-1.63,5.42-1.81c0.96-0.08,1.96-0.26,2.92,0.06c0.93,0.3,1.92,0.8,2.5,1.74
			l-0.1,0.17c-2.84,0.38-5.21-0.63-8-0.49c-0.89,0.02-1.79,0.13-2.62,0.49L97.53,250.54L97.53,250.54z"/>
	</g>
	<g>
		<path class="st45" d="M131.03,249.68c-3.54-1.36-6.98,0.48-10.62,0.01c0,0-0.1-0.17-0.1-0.17c1.2-1.84,3.46-2.13,5.42-1.81
			c1.89,0.19,3.93,0.54,5.42,1.81C131.14,249.52,131.03,249.68,131.03,249.68L131.03,249.68z"/>
	</g>
	<circle class="st46" cx="103.71" cy="261.21" r="2.3"/>
	<ellipse class="st19" cx="125.72" cy="258.33" rx="4.61" ry="6.33"/>
	<circle class="st46" cx="126.39" cy="261.21" r="2.3"/>
	<g>
		<defs>
			<path id="SVGID_00000067952895789297487520000016717204295758950292_" d="M105.08,279.3c2.92,0.95,17.52,0.65,20.52-0.06
				c0,1.11,0.23,1.4-0.12,2.4c-1.13,3.29-6,5.68-10.17,5.77c-4.13,0.09-7.93-1.4-9.86-4.77C104.93,281.71,105.3,280.52,105.08,279.3
				z"/>
		</defs>
		<clipPath id="SVGID_00000023992507389996150640000018167235050471764352_">
			<use xlink:href="#SVGID_00000067952895789297487520000016717204295758950292_"  style="overflow:visible;"/>
		</clipPath>
		
			<rect x="98.93" y="277.6" style="clip-path:url(#SVGID_00000023992507389996150640000018167235050471764352_);fill:#FFFFFF;" width="28.23" height="6.72"/>
		<path style="clip-path:url(#SVGID_00000023992507389996150640000018167235050471764352_);fill:#6B5847;" d="M105.2,281.88
			c2.22,0.36,16.65,0.51,20.85-0.63c4.2-1.14,2.89,1.47,2.89,1.47l-6.46,6.48l-14.16-1.38l-4.74-3.18L105.2,281.88z"/>
		
			<ellipse style="clip-path:url(#SVGID_00000023992507389996150640000018167235050471764352_);fill:#FF1A20;" cx="114.55" cy="287.53" rx="5.03" ry="3.13"/>
	</g>
	<ellipse class="st19" cx="659.75" cy="253.9" rx="4.85" ry="6.66"/>
	<g>
		<path class="st50" d="M653.7,245.11c1.57-1.32,3.71-1.68,5.7-1.87c1.01-0.08,2.06-0.25,3.06,0.08c0.98,0.31,2.01,0.82,2.63,1.79
			c0,0-0.1,0.17-0.1,0.17c-2.98,0.32-5.49-0.7-8.42-0.54c-0.94,0.03-1.88,0.15-2.75,0.53L653.7,245.11L653.7,245.11z"/>
	</g>
	<g>
		<path class="st50" d="M688.93,244.19c-3.7-1.45-7.35,0.41-11.18,0.01c0,0-0.1-0.17-0.1-0.17c1.29-1.88,3.65-2.18,5.7-1.86
			c1.98,0.19,4.13,0.55,5.7,1.87C689.04,244.03,688.93,244.19,688.93,244.19L688.93,244.19z"/>
	</g>
	<circle class="st46" cx="660.96" cy="255.71" r="2.42"/>
	<ellipse class="st19" cx="683.34" cy="253.29" rx="4.85" ry="6.66"/>
	<circle class="st46" cx="684.01" cy="255.71" r="2.42"/>
	<g>
		<defs>
			<path id="SVGID_00000067956395390538512880000014286960118867187867_" d="M661.88,276.54c3.07,1,18.43,0.68,21.58-0.06
				c0,1.17,0.24,1.47-0.12,2.52c-1.19,3.45-6.31,5.98-10.7,6.07c-4.34,0.09-8.34-1.48-10.37-5.02
				C661.72,279.07,662.11,277.83,661.88,276.54z"/>
		</defs>
		<clipPath id="SVGID_00000153685847519498958220000009639021952430159252_">
			<use xlink:href="#SVGID_00000067956395390538512880000014286960118867187867_"  style="overflow:visible;"/>
		</clipPath>
		
			<rect x="655.42" y="274.75" style="clip-path:url(#SVGID_00000153685847519498958220000009639021952430159252_);fill:#FFFFFF;" width="29.69" height="7.07"/>
		<path style="clip-path:url(#SVGID_00000153685847519498958220000009639021952430159252_);fill:#6B5847;" d="M662.01,279.25
			c2.33,0.38,17.51,0.54,21.93-0.66c4.41-1.2,3.04,1.55,3.04,1.55l-6.79,6.82l-14.89-1.45l-4.99-3.34L662.01,279.25z"/>
		
			<ellipse style="clip-path:url(#SVGID_00000153685847519498958220000009639021952430159252_);fill:#FF1A20;" cx="671.84" cy="285.2" rx="5.29" ry="3.3"/>
	</g>
</g>
</svg>
