<svg xmlns="http://www.w3.org/2000/svg" xmlns:xlink="http://www.w3.org/1999/xlink" viewBox="0 0 603.49 248.39"><defs><style>.cls-1{fill:none;}.cls-2{fill:url(#Degradado_sin_nombre_36);}.cls-3{fill:url(#Degradado_sin_nombre_36-2);}.cls-4{fill:url(#Degradado_sin_nombre_36-3);}.cls-5{fill:url(#Degradado_sin_nombre_36-4);}.cls-6{fill:url(#Degradado_sin_nombre_36-5);}.cls-7{fill:url(#Degradado_sin_nombre_36-6);}.cls-8{fill:url(#Degradado_sin_nombre_36-7);}.cls-9{fill:url(#Degradado_sin_nombre_36-8);}.cls-10{fill:url(#Degradado_sin_nombre_36-9);}.cls-11{fill:url(#Degradado_sin_nombre_36-10);}.cls-12{fill:url(#Degradado_sin_nombre_36-11);}.cls-13{fill:url(#Degradado_sin_nombre_36-12);}.cls-14{fill:url(#Degradado_sin_nombre_36-13);}.cls-15{font-size:21.68px;fill:#111629;font-family:Arial-Black, Arial;font-weight:800;}.cls-16{fill:url(#Degradado_sin_nombre_36-14);}.cls-17{clip-path:url(#clip-path);}.cls-18{fill:#6395e4;}.cls-19{fill:url(#Degradado_sin_nombre_65);}.cls-20{opacity:0.32;fill:url(#Degradado_sin_nombre_61);}.cls-21{fill:url(#Degradado_sin_nombre_30);}</style><linearGradient id="Degradado_sin_nombre_36" x1="37.84" y1="189.78" x2="37.84" y2="115.39" gradientUnits="userSpaceOnUse"><stop offset="0" stop-color="#0e3782"/><stop offset="0.24" stop-color="#092960"/><stop offset="0.55" stop-color="#04193a"/><stop offset="0.71" stop-color="#02132b"/><stop offset="1" stop-color="#02132b"/></linearGradient><linearGradient id="Degradado_sin_nombre_36-2" x1="186.88" y1="187.22" x2="186.88" y2="131.78" xlink:href="#Degradado_sin_nombre_36"/><linearGradient id="Degradado_sin_nombre_36-3" x1="493.41" y1="187.22" x2="493.41" y2="131.78" xlink:href="#Degradado_sin_nombre_36"/><linearGradient id="Degradado_sin_nombre_36-4" x1="112.86" y1="187.22" x2="112.86" y2="131.78" xlink:href="#Degradado_sin_nombre_36"/><linearGradient id="Degradado_sin_nombre_36-5" x1="339.86" y1="187.22" x2="339.86" y2="131.78" xlink:href="#Degradado_sin_nombre_36"/><linearGradient id="Degradado_sin_nombre_36-6" x1="285.86" y1="241.59" x2="285.86" y2="199.44" xlink:href="#Degradado_sin_nombre_36"/><linearGradient id="Degradado_sin_nombre_36-7" x1="417.21" y1="185.73" x2="417.21" y2="131.78" xlink:href="#Degradado_sin_nombre_36"/><linearGradient id="Degradado_sin_nombre_36-8" x1="489.71" y1="241.59" x2="489.71" y2="199.44" xlink:href="#Degradado_sin_nombre_36"/><linearGradient id="Degradado_sin_nombre_36-9" x1="381.11" y1="241.59" x2="381.11" y2="199.44" xlink:href="#Degradado_sin_nombre_36"/><linearGradient id="Degradado_sin_nombre_36-10" x1="333.07" y1="241.59" x2="333.07" y2="199.44" xlink:href="#Degradado_sin_nombre_36"/><linearGradient id="Degradado_sin_nombre_36-11" x1="567.8" y1="185.7" x2="567.8" y2="132.86" xlink:href="#Degradado_sin_nombre_36"/><linearGradient id="Degradado_sin_nombre_36-12" x1="435.6" y1="241.59" x2="435.6" y2="199.44" xlink:href="#Degradado_sin_nombre_36"/><linearGradient id="Degradado_sin_nombre_36-13" x1="546.05" y1="241.59" x2="546.05" y2="199.44" xlink:href="#Degradado_sin_nombre_36"/><linearGradient id="Degradado_sin_nombre_36-14" x1="261.64" y1="243.61" x2="261.64" y2="131.78" xlink:href="#Degradado_sin_nombre_36"/><clipPath id="clip-path"><path class="cls-1" d="M597.05,107S474,0,300.61,0C109,0,0,107,0,107H96.54V74H116V107h10V59h28.06v48h8.8V34.24h41.37V107H390.19V34.24h41.37V107h8.8V59h28.06v48h10V74h19.5V107Z"/></clipPath><radialGradient id="Degradado_sin_nombre_65" cx="298.53" cy="107" r="100.53" gradientUnits="userSpaceOnUse"><stop offset="0" stop-color="#fdf0f7"/><stop offset="0.25" stop-color="#fdf0f7"/><stop offset="0.89" stop-color="#82afed"/></radialGradient><radialGradient id="Degradado_sin_nombre_61" cx="298.53" cy="107" r="79.24" gradientUnits="userSpaceOnUse"><stop offset="0" stop-color="#fff" stop-opacity="0.4"/><stop offset="0.71" stop-color="#87b2ee" stop-opacity="0.4"/><stop offset="0.84" stop-color="#c9ddfe"/><stop offset="0.89" stop-color="#c9ddfe" stop-opacity="0"/></radialGradient><radialGradient id="Degradado_sin_nombre_30" cx="298.53" cy="107" r="36.28" gradientUnits="userSpaceOnUse"><stop offset="0" stop-color="#fdf0f7"/><stop offset="1" stop-color="#c9ddfe" stop-opacity="0"/></radialGradient></defs><g id="Capa_2" data-name="Capa 2"><g id="peruana"><path class="cls-2" d="M52.6,115.39H1c1.31.72,2.51,3.76,2.51,5.07v64.26c0,1.31-1.2,4.35-2.51,5.06H52.6c12.34,0,22.11-3.21,22.11-19.25V134.64C74.71,118.61,64.94,115.39,52.6,115.39ZM49.91,151v22.91c0,4.23-3.2,4.43-7.24,4.43H28.81V126.88H42.67c4,0,7.24,1,7.24,4.43Z"/><path class="cls-3" d="M212.71,131.78H169.43a13.84,13.84,0,0,0-13.83,13.83V158a11.69,11.69,0,0,0,11.69,11.69h26a2.26,2.26,0,0,1,2.26,2.26v2.15a2.26,2.26,0,0,1-2.26,2.26h-29a24.89,24.89,0,0,1-9.39-2l1.86,11.16a1.87,1.87,0,0,0,1.86,1.65h46.08A14.25,14.25,0,0,0,218.91,173V159.32a10.73,10.73,0,0,0-10.73-10.73H181.47a2.26,2.26,0,0,1-2.26-2.26v-1.91a2.26,2.26,0,0,1,2.26-2.26s26.47.06,28.08,0a14,14,0,0,1,8.35,3.45,25.31,25.31,0,0,0-2.21-12A3.13,3.13,0,0,0,212.71,131.78Z"/><path class="cls-4" d="M519.23,131.78H476a13.83,13.83,0,0,0-13.83,13.83V158a11.68,11.68,0,0,0,11.68,11.69h26a2.27,2.27,0,0,1,2.27,2.26v2.15a2.27,2.27,0,0,1-2.27,2.26h-29a24.89,24.89,0,0,1-9.39-2l1.86,11.16a1.87,1.87,0,0,0,1.87,1.65h46.08A14.24,14.24,0,0,0,525.43,173V159.32a10.73,10.73,0,0,0-10.73-10.73H488a2.27,2.27,0,0,1-2.27-2.26v-1.91a2.27,2.27,0,0,1,2.27-2.26s26.47.06,28.07,0a14,14,0,0,1,8.35,3.45,25.19,25.19,0,0,0-2.21-12A3.13,3.13,0,0,0,519.23,131.78Z"/><path class="cls-5" d="M143.76,165.4a2.72,2.72,0,0,0,2.72-2.72v-20a10.91,10.91,0,0,0-10.91-10.91H91A11.72,11.72,0,0,0,79.24,143.5v31.38a12.34,12.34,0,0,0,12.34,12.34h46.68a8.25,8.25,0,0,0,8.22-8.22v-5.49a38,38,0,0,1-10.13,1.91H107.17a2.89,2.89,0,0,1-2.89-2.89V165.4Zm-39.48-11.2v-6.74c0-2.74,1.67-4.71,3.81-4.71H119c2.15,0,3.82,2,3.82,4.71v6.74Z"/><path class="cls-6" d="M370.75,165.4a2.72,2.72,0,0,0,2.73-2.72v-20a10.91,10.91,0,0,0-10.91-10.91H318a11.72,11.72,0,0,0-11.71,11.72v31.38a12.33,12.33,0,0,0,12.34,12.34h46.67a8.25,8.25,0,0,0,8.23-8.22v-5.49a38,38,0,0,1-10.13,1.91H334.17a2.89,2.89,0,0,1-2.89-2.89V165.4Zm-39.47-11.2v-6.74c0-2.74,1.67-4.71,3.81-4.71H346c2.15,0,3.82,2,3.82,4.71v6.74Z"/><path class="cls-7" d="M308.58,225a2,2,0,0,0,2-2.07v-15.2a8.16,8.16,0,0,0-8-8.29H269.75a8.77,8.77,0,0,0-8.61,8.91v23.86a9.23,9.23,0,0,0,9.07,9.38h34.33a6.18,6.18,0,0,0,6-6.26v-4.17a27.19,27.19,0,0,1-7.46,1.45H281.68a2.16,2.16,0,0,1-2.13-2.19V225Zm-29-8.52v-5.12c0-2.08,1.23-3.58,2.81-3.58h8c1.58,0,2.8,1.5,2.8,3.58v5.12Z"/><path class="cls-8" d="M381.11,131.78h25c.94,0,1.43.54,1.38,2.69s0,3.89.72,3.57,1.79-6.26,5.59-6.26H434.4c10.2,0,15.92,6.44,15.92,15.56v27.3c0,5,2,7.93,3,11.09H423.55a31.09,31.09,0,0,0,2.33-11V149.19c0-2.92-.48-7.27-7.27-7.27s-10.26.77-10.26,7.33v25.63c0,5.37,2.27,8.65,3.07,10.85h-29a25.52,25.52,0,0,0,1.7-9.86s.09-32.46.09-35.32A14.44,14.44,0,0,0,381.11,131.78Z"/><path class="cls-9" d="M462.68,199.44h18.75c.7,0,1.07.42,1,2.1s0,3,.54,2.79,1.33-4.89,4.18-4.89h15.4c7.64,0,11.92,5,11.92,12.16v21.32c0,3.87,1.52,6.2,2.23,8.67H494.47a25.29,25.29,0,0,0,1.74-8.62V213c0-2.28-.36-5.68-5.45-5.68s-7.68.6-7.68,5.73v20c0,4.19,1.7,6.75,2.3,8.48h-21.7a20.65,20.65,0,0,0,1.28-7.71s.06-25.36.06-27.59A11.57,11.57,0,0,0,462.68,199.44Z"/><path class="cls-10" d="M408.14,241.59H389.39c-.7,0-1.07-.42-1-2.1s0-3-.54-2.79-1.34,4.89-4.19,4.89h-15.4c-7.63,0-11.92-5-11.92-12.16V208.1c0-3.86-1.52-6.19-2.23-8.66h22.28a25.29,25.29,0,0,0-1.74,8.62V228c0,2.28.35,5.68,5.44,5.68s7.68-.61,7.68-5.73v-20c0-4.19-1.7-6.76-2.3-8.48h21.7a20.79,20.79,0,0,0-1.27,7.71s-.07,25.35-.07,27.59A11.57,11.57,0,0,0,408.14,241.59Z"/><path class="cls-11" d="M315.31,199.44h16.95c.71,0,1.08.42,1,2.1s0,3,.54,2.79,1.34-4.89,4.18-4.89h12.81v12.4c-2.35-.73-4.15-2.62-9.24-2.62s-7.67,2.51-7.67,7.63v16.26c0,4.19,1.69,6.75,2.3,8.48H316.31a20.65,20.65,0,0,0,1.28-7.71s.06-25.36.06-27.59A11.57,11.57,0,0,0,315.31,199.44Z"/><path class="cls-12" d="M601,177.48V147.07c0-12.16-10.73-14.21-17.17-14.21h-45a2.14,2.14,0,0,0-2.08,1.69l-2.33,11.27a9.3,9.3,0,0,1,6.17-2.77H572.7a2.45,2.45,0,0,1,2.44,2.45v2.55a2.44,2.44,0,0,1-2.38,2.45c-6.41.15-23.76,0-30.28,0-8.05,0-10.37,7.63-10.37,12.34v11c0,5.13,3.45,11.83,10.61,11.83H569.3c2.27,0,5.46-1.73,6-3.46s1.76-1.13,1.84-.36,1.14,3.82,3.32,3.82h23C602.33,183.47,601,180.25,601,177.48Zm-25.85-5.82a4.4,4.4,0,0,1-4.41,4.41h-9.36a2.74,2.74,0,0,1-2.74-2.74v-9.42a2.74,2.74,0,0,1,2.74-2.74h13.77Z"/><path class="cls-13" d="M459.34,235V210.78c0-9.7-7.68-11.34-12.28-11.34H414.92a1.58,1.58,0,0,0-1.49,1.35l-1.66,9a6.39,6.39,0,0,1,4.41-2.21h22.93a1.86,1.86,0,0,1,1.75,2v2a1.86,1.86,0,0,1-1.71,1.95c-4.58.12-17,0-21.65,0-5.76,0-7.42,6.09-7.42,9.84v8.8c0,4.09,2.47,9.44,7.59,9.44h19c1.62,0,3.9-1.38,4.31-2.76s1.25-.91,1.31-.29.82,3.05,2.37,3.05h16.46A16.9,16.9,0,0,1,459.34,235Zm-18.48-4.64a3.35,3.35,0,0,1-3.16,3.52H431a2.09,2.09,0,0,1-2-2.19v-7.51a2.09,2.09,0,0,1,2-2.19h9.85Z"/><path class="cls-14" d="M569.78,235V210.78c0-9.7-7.67-11.34-12.28-11.34H525.37a1.57,1.57,0,0,0-1.49,1.35l-1.67,9a6.41,6.41,0,0,1,4.41-2.21h22.93a1.85,1.85,0,0,1,1.75,2v2a1.85,1.85,0,0,1-1.7,1.95c-4.59.12-17,0-21.66,0-5.75,0-7.41,6.09-7.41,9.84v8.8c0,4.09,2.47,9.44,7.58,9.44h19c1.62,0,3.9-1.38,4.31-2.76s1.26-.91,1.31-.29.82,3.05,2.38,3.05h16.45A17.08,17.08,0,0,1,569.78,235Zm-18.48-4.64a3.35,3.35,0,0,1-3.15,3.52h-6.69a2.09,2.09,0,0,1-2-2.19v-7.51a2.09,2.09,0,0,1,2-2.19h9.84Z"/><text class="cls-15" transform="translate(579.06 215.72)">S.<tspan x="0" y="26.02">A.</tspan></text><path class="cls-16" d="M281.32,131.78H262.64c-5.64,0-7,2.6-8,3.94s-1.79.36-2-1.3a3.3,3.3,0,0,0-3.13-2.64H227.38c1,1.4,2.86,4.39,2.86,6.44V243.61h24.12V180.74c0-1.3,1.08-1.67,1.81-.45,2,3.36,3.6,2.73,6.91,2.73h19c8.76,0,13.86-5.1,13.86-12V143.77C295.9,136.61,290.09,131.78,281.32,131.78Zm-10.19,38.45a3.28,3.28,0,0,1-3.28,3.28H255.51a1.31,1.31,0,0,1-1.31-1.31V144.9a1.31,1.31,0,0,1,1.31-1.31h12.34a3.28,3.28,0,0,1,3.28,3.28Z"/><g class="cls-17"><rect class="cls-18" x="-10.7" y="-24.61" width="618.46" height="148.77"/><polygon class="cls-19" points="298.53 5.71 301.63 89.42 333.17 11.81 307.45 91.54 363.64 29.41 312.2 95.52 386.25 56.35 315.31 100.89 398.28 89.41 316.38 107 398.28 124.59 315.31 113.11 386.25 157.65 312.2 118.47 363.64 184.59 307.45 122.46 333.17 202.18 301.63 124.58 298.53 208.29 295.43 124.58 263.88 202.18 289.6 122.46 233.42 184.59 284.85 118.47 210.81 157.65 281.75 113.11 198.77 124.59 280.67 107 198.77 89.41 281.75 100.89 210.81 56.35 284.85 95.52 233.42 29.41 289.6 91.54 263.88 11.81 295.43 89.42 298.53 5.71"/><circle class="cls-20" cx="298.53" cy="107" r="79.24"/><circle class="cls-21" cx="298.53" cy="107" r="36.28"/></g></g></g></svg>