<?xml version="1.0" encoding="UTF-8"?><svg id="a" xmlns="http://www.w3.org/2000/svg" xmlns:xlink="http://www.w3.org/1999/xlink" viewBox="0 0 984.4 288.56"><defs><style>.i{letter-spacing:0em;}.j{clip-path:url(#h);}.k{stroke:#04803d;}.k,.l,.m,.n,.o,.p{stroke-width:4px;}.k,.m{fill:none;stroke-miterlimit:10;}.q{letter-spacing:.06em;}.l{fill:url(#d);}.l,.n,.o,.p{stroke:#1a914a;stroke-linejoin:round;}.r{fill:#04803d;font-family:NotoSans-Italic, Noto Sans;font-size:41.66px;}.s{letter-spacing:.07em;}.t{letter-spacing:.04em;}.m{stroke:url(#f);}.u{letter-spacing:0em;}.v{letter-spacing:.03em;}.n{fill:url(#c);}.o{fill:url(#e);}.w{letter-spacing:.05em;}.x{letter-spacing:.03em;}.y{letter-spacing:0em;}.p{fill:url(#b);}.a`{letter-spacing:.04em;}.aa{letter-spacing:0em;}.ab{clip-path:url(#g);}</style><linearGradient id="b" x1="87.26" y1="248.57" x2="87.26" y2="63.59" gradientTransform="matrix(1, 0, 0, 1, 0, 0)" gradientUnits="userSpaceOnUse"><stop offset="0" stop-color="#04803d"/><stop offset="1" stop-color="#095c34"/></linearGradient><linearGradient id="c" x1="222.99" y1="248.57" x2="222.99" y2="63.59" gradientTransform="matrix(1, 0, 0, 1, 0, 0)" gradientUnits="userSpaceOnUse"><stop offset="0" stop-color="#04803d"/><stop offset="1" stop-color="#0a6439"/></linearGradient><linearGradient id="d" x1="333.02" y1="251.4" x2="333.02" y2="63.47" xlink:href="#c"/><linearGradient id="e" x1="453.57" y1="248.57" x2="453.57" y2="63.47" xlink:href="#c"/><linearGradient id="f" x1="10.52" y1="213.26" x2="923.9" y2="213.26" gradientTransform="matrix(1, 0, 0, 1, 0, 0)" gradientUnits="userSpaceOnUse"><stop offset="0" stop-color="#04803d"/><stop offset=".97" stop-color="#06b857"/></linearGradient><clipPath id="g"><path class="k" d="M760.25,140.52c-8.37-43-47.51-75.55-94.56-75.55s-86.19,32.55-94.56,75.55h189.12Z"/></clipPath><clipPath id="h"><path class="k" d="M706.11,140.52c8.37-43,47.51-75.55,94.56-75.55,47.05,0,86.19,32.55,94.56,75.55h-189.12Z"/></clipPath></defs><g><path class="p" d="M154,63.59h-57.49L10.52,248.57H61.34l10.33-32.33h43.99l.33,32.33h47.99l-10-184.98Zm-39.66,118.32h-25.66l23.33-63.33h2.33v63.33Z"/><polygon class="n" points="199.99 63.59 170 248.57 271.48 248.57 275.98 212.07 222.99 211.07 250.49 63.59 199.99 63.59"/><path class="l" d="M391.47,125.33l6.25-49.24s-32.25-20.5-62.24-9.25c-30,11.25-44.12,35.67-41.75,58.49,2.18,20.89,5.77,33.77,27,48.99,19.21,13.78,17.25,22.08,9.25,28-8,5.92-28.5,6.08-48.16-10.58l-13.5,42.49s37.5,29.83,77.32,10.83c39.83-19,40.08-56.49,36.83-70.49-3.25-14-13-24.75-26.75-30.75-13.75-6-14.5-23.25-9-29.75s16.25-14.5,29.75-7c13.5,7.5,15,18.25,15,18.25Z"/><polygon class="o" points="417.61 63.59 389.14 248.57 489.5 248.57 495.46 209.91 439.3 209.91 444.94 173.24 498.62 173.24 506.85 135.92 450.69 135.92 455.77 102.92 511.93 102.92 518 63.47 417.61 63.59"/></g><polyline class="m" points="10.52 274.59 921.9 274.59 921.9 151.93 540.95 151.93"/><g><polyline class="k" points="538.45 53.78 538.45 140.52 720.1 140.52 725.93 140.52 921.9 140.52 921.9 53.78"/><polygon class="k" points="538.45 15.78 538.45 53.78 585.95 53.78 538.45 15.78"/><polygon class="k" points="921.9 15.78 921.9 53.78 969.4 53.78 921.9 15.78"/></g><g><g class="ab"><line class="k" x1="588.57" y1="61.61" x2="588.57" y2="157.71"/><line class="k" x1="604.88" y1="61.61" x2="604.88" y2="157.71"/><line class="k" x1="621.19" y1="61.61" x2="621.19" y2="157.71"/><line class="k" x1="637.5" y1="61.61" x2="637.5" y2="157.71"/><line class="k" x1="653.81" y1="61.61" x2="653.81" y2="157.71"/><line class="k" x1="670.12" y1="61.61" x2="670.12" y2="157.71"/><line class="k" x1="686.43" y1="61.61" x2="686.43" y2="157.71"/><line class="k" x1="702.74" y1="61.61" x2="702.74" y2="157.71"/></g><path class="k" d="M760.25,140.52c-8.37-43-47.51-75.55-94.56-75.55s-86.19,32.55-94.56,75.55h189.12Z"/></g><path class="k" d="M760.25,140.52c-8.37-43-47.51-75.55-94.56-75.55s-86.19,32.55-94.56,75.55h189.12Z"/><g><g class="j"><line class="k" x1="877.78" y1="61.61" x2="877.78" y2="157.71"/><line class="k" x1="861.47" y1="61.61" x2="861.47" y2="157.71"/><line class="k" x1="845.16" y1="61.61" x2="845.16" y2="157.71"/><line class="k" x1="828.85" y1="61.61" x2="828.85" y2="157.71"/><line class="k" x1="812.54" y1="61.61" x2="812.54" y2="157.71"/><line class="k" x1="796.23" y1="61.61" x2="796.23" y2="157.71"/><line class="k" x1="779.92" y1="61.61" x2="779.92" y2="157.71"/><line class="k" x1="763.61" y1="61.61" x2="763.61" y2="157.71"/><line class="k" x1="747.74" y1="80.25" x2="747.74" y2="109.27"/></g><path class="k" d="M706.11,140.52c8.37-43,47.51-75.55,94.56-75.55,47.05,0,86.19,32.55,94.56,75.55h-189.12Z"/></g><path class="k" d="M706.11,140.52c8.37-43,47.51-75.55,94.56-75.55,47.05,0,86.19,32.55,94.56,75.55h-189.12Z"/><g><text class="r" transform="translate(544.78 206.7) scale(1 1.05)"><tspan x="0" y="0">A</tspan><tspan class="s" x="23.41" y="0">L</tspan><tspan class="q" x="46.04" y="0">M</tspan><tspan class="w" x="83.53" y="0">A</tspan><tspan class="a`" x="109.15" y="0">C</tspan><tspan x="135.35" y="0">E</tspan><tspan class="x" x="156.77" y="0">N</tspan><tspan class="t" x="187.48" y="-.24">E</tspan><tspan class="u" x="210.4" y="0">S</tspan></text><text class="r" transform="translate(543.84 250.87) scale(1.08 1.05)"><tspan x="0" y="0">DE LA SELVA</tspan><tspan class="v" x="222.95" y="0"> </tspan><tspan class="i" x="234.98" y="0">S</tspan><tspan class="v" x="256.02" y="0">.</tspan><tspan class="i" x="267.89" y="-.32">A</tspan><tspan class="y" x="291.3" y="0">.</tspan><tspan class="aa" x="301.96" y="0">C</tspan><tspan x="326" y="0">.</tspan></text></g></svg>